<?xml version="1.0" standalone="no"?>
<!DOCTYPE svg PUBLIC "-//W3C//DTD SVG 20010904//EN"
 "http://www.w3.org/TR/2001/REC-SVG-20010904/DTD/svg10.dtd">
<svg version="1.0" xmlns="http://www.w3.org/2000/svg"
 width="700.000000pt" height="700.000000pt" viewBox="0 0 700.000000 700.000000"
 preserveAspectRatio="xMidYMid meet">
<metadata>
Created by potrace 1.11, written by Peter Selinger 2001-2013
</metadata>
<g transform="translate(0.000000,700.000000) scale(0.100000,-0.100000)"
fill="#000000" stroke="none">
<path d="M852 6579 c-86 -22 -122 -39 -188 -93 -52 -41 -123 -135 -145 -191
-32 -83 -35 -142 -33 -775 1 -456 4 -649 13 -685 30 -121 136 -255 247 -309
103 -51 140 -56 392 -56 l232 0 0 -52 c4 -349 0 -1851 -3 -1855 -3 -3 -106 -5
-229 -5 -337 -1 -402 -24 -561 -198 -24 -27 -66 -124 -80 -185 -10 -47 -13
-199 -11 -705 1 -632 2 -646 23 -704 62 -171 176 -276 352 -321 80 -21 1232
-22 1319 -1 166 39 294 155 351 317 23 64 23 66 25 706 1 354 -3 666 -8 695
-20 117 -104 244 -209 315 -95 65 -149 76 -403 80 -126 2 -232 5 -235 8 -7 7
-8 1884 -1 1896 3 4 103 9 222 9 232 2 279 8 373 55 104 50 187 146 236 270
l23 60 2 646 c1 362 -2 669 -7 700 -14 80 -70 186 -130 247 -60 61 -117 97
-198 126 -53 18 -86 19 -678 21 -567 2 -627 0 -691 -16z m1292 -324 c21 -10
50 -36 64 -58 l26 -39 0 -622 c0 -547 -2 -625 -16 -651 -22 -41 -56 -71 -98
-83 -23 -7 -233 -10 -605 -10 -601 0 -608 1 -659 46 -48 43 -48 46 -48 699 1
607 1 613 22 650 27 49 60 72 111 81 22 4 294 7 603 6 520 -1 565 -2 600 -19z
m1 -4037 c40 -21 64 -49 78 -90 9 -24 12 -207 11 -643 -1 -680 3 -646 -71
-702 l-36 -28 -601 0 c-677 0 -641 -3 -692 77 l-26 41 0 619 c1 555 3 622 18
653 18 38 52 67 96 81 16 5 290 9 610 8 512 0 587 -2 613 -16z"/>
<path d="M2764 4644 c-114 -60 -131 -203 -33 -276 106 -79 259 1 259 136 0 36
-41 105 -76 126 -43 27 -112 33 -150 14z"/>
<path d="M3277 4315 c-76 -19 -117 -70 -120 -148 -3 -123 124 -202 233 -145
168 87 71 340 -113 293z"/>
<path d="M3741 3974 c-116 -50 -129 -208 -23 -279 106 -70 245 3 246 129 0
121 -113 198 -223 150z"/>
<path d="M4224 3637 c-63 -32 -95 -89 -89 -157 11 -104 108 -167 212 -139 65
18 116 102 106 175 -14 107 -133 170 -229 121z"/>
<path d="M4877 3353 c-188 -42 -340 -200 -371 -386 -8 -46 -11 -264 -10 -690
1 -561 2 -628 18 -682 51 -175 196 -310 369 -345 64 -13 1194 -18 1276 -5 190
28 351 178 396 366 13 54 14 162 12 719 l-2 655 -29 70 c-60 147 -183 256
-331 295 -72 20 -1244 22 -1328 3z m1248 -317 c44 -11 86 -45 103 -85 14 -32
16 -110 17 -646 1 -496 -1 -616 -12 -643 -16 -38 -56 -77 -93 -90 -14 -5 -287
-9 -609 -9 -572 0 -584 1 -625 21 -26 13 -49 36 -63 61 l-23 40 3 627 c2 615
2 627 23 654 32 43 70 67 116 73 62 9 1129 5 1163 -3z"/>
</g>
</svg>
