<svg xmlns="http://www.w3.org/2000/svg" viewBox="0 0 64 64"><rect width="64" height="64" fill="#0f172a" rx="14"/><path fill="none" stroke="#94a3b8" stroke-linecap="round" stroke-width="6" d="M25 24l14 16"/><path fill="none" stroke="#f8fafc" stroke-linecap="round" stroke-width="6" d="M23 38l-3 3c-5 5-13 5-18 0s-5-13 0-18l7-7c5-5 13-5 18 0 2 2 4 5 4 8" transform="translate(12 3)"/><path fill="none" stroke="#f8fafc" stroke-linecap="round" stroke-width="6" d="M23 38l-3 3c-5 5-13 5-18 0s-5-13 0-18l7-7c5-5 13-5 18 0 2 2 4 5 4 8" transform="translate(52 61) rotate(180)"/><circle cx="21" cy="43" r="4.5" fill="#14b8a6"/><circle cx="43" cy="21" r="4.5" fill="#60a5fa"/><circle cx="32" cy="32" r="3.8" fill="#f8fafc"/></svg>