<svg xmlns="http://www.w3.org/2000/svg" xmlns:xlink="http://www.w3.org/1999/xlink" width="184" height="184" version="1.1" viewBox="0 0 184 184"><title>depviz_bg_white</title><desc>Created with Sketch.</desc><g id="Page-1" fill="none" fill-rule="evenodd" stroke="none" stroke-width="1"><g id="Group"><rect id="Rectangle" width="184" height="184" x="0" y="0" fill="#FFF" rx="8"/><path id="Depviz" fill="#E9279C" fill-rule="nonzero" stroke="#E9279C" d="M35.38,153 C38.3933333,153 41.0733333,152.333333 43.42,151 C45.7666667,149.666667 47.5933333,147.813333 48.9,145.44 C50.2066667,143.066667 50.86,140.373333 50.86,137.36 C50.86,134.346667 50.2066667,131.66 48.9,129.3 C47.5933333,126.94 45.7666667,125.093333 43.42,123.76 C41.0733333,122.426667 38.3933333,121.76 35.38,121.76 L35.38,121.76 L28.14,121.76 C27.5533333,121.76 27.06,121.953333 26.66,122.34 C26.26,122.726667 26.06,123.226667 26.06,123.84 L26.06,123.84 L26.06,150.92 C26.06,151.506667 26.26,152 26.66,152.4 C27.06,152.8 27.5533333,153 28.14,153 L28.14,153 L35.38,153 Z M35.38,149.32 L30.22,149.32 L30.22,125.44 L35.38,125.44 C37.5933333,125.44 39.5733333,125.946667 41.32,126.96 C43.0666667,127.973333 44.4266667,129.386667 45.4,131.2 C46.3733333,133.013333 46.86,135.066667 46.86,137.36 C46.86,139.653333 46.3733333,141.713333 45.4,143.54 C44.4266667,145.366667 43.0666667,146.786667 41.32,147.8 C39.5733333,148.813333 37.5933333,149.32 35.38,149.32 L35.38,149.32 Z M67.26,153.16 C68.4866667,153.16 69.7733333,152.933333 71.12,152.48 C72.4666667,152.026667 73.5933333,151.44 74.5,150.72 C74.9266667,150.4 75.14,150 75.14,149.52 C75.14,149.013333 74.9,148.56 74.42,148.16 C74.1266667,147.893333 73.7266667,147.76 73.22,147.76 C72.7133333,147.76 72.2733333,147.906667 71.9,148.2 C71.34,148.626667 70.6266667,148.986667 69.76,149.28 C68.8933333,149.573333 68.06,149.72 67.26,149.72 C65.2333333,149.72 63.52,149.146667 62.12,148 C60.72,146.853333 59.8733333,145.346667 59.58,143.48 L59.58,143.48 L74.78,143.48 C75.3133333,143.48 75.7533333,143.313333 76.1,142.98 C76.4466667,142.646667 76.62,142.226667 76.62,141.72 C76.62,139.613333 76.22,137.746667 75.42,136.12 C74.62,134.493333 73.4733333,133.226667 71.98,132.32 C70.4866667,131.413333 68.7133333,130.96 66.66,130.96 C64.58,130.96 62.72,131.433333 61.08,132.38 C59.44,133.326667 58.16,134.646667 57.24,136.34 C56.32,138.033333 55.86,139.946667 55.86,142.08 C55.86,144.213333 56.3466667,146.12 57.32,147.8 C58.2933333,149.48 59.6466667,150.793333 61.38,151.74 C63.1133333,152.686667 65.0733333,153.16 67.26,153.16 Z M72.94,140.28 L59.62,140.28 C59.94,138.493333 60.7066667,137.066667 61.92,136 C63.1333333,134.933333 64.7133333,134.4 66.66,134.4 C68.42,134.4 69.8466667,134.933333 70.94,136 C72.0333333,137.066667 72.7,138.493333 72.94,140.28 L72.94,140.28 Z M83.86,162.36 C84.4733333,162.36 84.9666667,162.173333 85.34,161.8 C85.7133333,161.426667 85.9,160.933333 85.9,160.32 L85.9,160.32 L85.9,149.52 C86.8333333,150.666667 87.9666667,151.56 89.3,152.2 C90.6333333,152.84 92.0733333,153.16 93.62,153.16 C95.54,153.16 97.28,152.68 98.84,151.72 C100.4,150.76 101.626667,149.433333 102.52,147.74 C103.413333,146.046667 103.86,144.16 103.86,142.08 C103.86,140 103.38,138.113333 102.42,136.42 C101.46,134.726667 100.133333,133.393333 98.44,132.42 C96.7466667,131.446667 94.8733333,130.96 92.82,130.96 C90.7666667,130.96 88.9066667,131.446667 87.24,132.42 C85.5733333,133.393333 84.2533333,134.726667 83.28,136.42 C82.3066667,138.113333 81.82,140 81.82,142.08 L81.82,142.08 L81.82,160.32 C81.82,160.933333 82.0133333,161.426667 82.4,161.8 C82.7866667,162.173333 83.2733333,162.36 83.86,162.36 Z M92.82,149.56 C91.4866667,149.56 90.28,149.233333 89.2,148.58 C88.12,147.926667 87.2733333,147.033333 86.66,145.9 C86.0466667,144.766667 85.74,143.493333 85.74,142.08 C85.74,140.666667 86.0466667,139.386667 86.66,138.24 C87.2733333,137.093333 88.12,136.193333 89.2,135.54 C90.28,134.886667 91.4866667,134.56 92.82,134.56 C94.1533333,134.56 95.36,134.886667 96.44,135.54 C97.52,136.193333 98.3733333,137.093333 99,138.24 C99.6266667,139.386667 99.94,140.666667 99.94,142.08 C99.94,143.493333 99.6266667,144.766667 99,145.9 C98.3733333,147.033333 97.52,147.926667 96.44,148.58 C95.36,149.233333 94.1533333,149.56 92.82,149.56 Z M117.34,152.96 C118.166667,152.96 118.78,152.52 119.18,151.64 L119.18,151.64 L127.66,133.76 C127.793333,133.493333 127.86,133.24 127.86,133 C127.86,132.653333 127.766667,132.34 127.58,132.06 C127.393333,131.78 127.126667,131.56 126.78,131.4 C126.513333,131.266667 126.206667,131.2 125.86,131.2 C125.513333,131.2 125.186667,131.286667 124.88,131.46 C124.573333,131.633333 124.34,131.88 124.18,132.2 L124.18,132.2 L117.3,147.2 L110.34,132.2 C110.18,131.88 109.953333,131.633333 109.66,131.46 C109.366667,131.286667 109.06,131.2 108.74,131.2 C108.42,131.2 108.14,131.266667 107.9,131.4 C107.153333,131.773333 106.78,132.32 106.78,133.04 C106.78,133.306667 106.833333,133.546667 106.94,133.76 L106.94,133.76 L115.42,151.64 C115.66,152.12 115.926667,152.46 116.22,152.66 C116.513333,152.86 116.886667,152.96 117.34,152.96 Z M134.3,127.56 C135.02,127.56 135.64,127.3 136.16,126.78 C136.68,126.26 136.94,125.64 136.94,124.92 C136.94,124.2 136.68,123.58 136.16,123.06 C135.64,122.54 135.02,122.28 134.3,122.28 C133.58,122.28 132.96,122.54 132.44,123.06 C131.92,123.58 131.66,124.2 131.66,124.92 C131.66,125.64 131.92,126.26 132.44,126.78 C132.96,127.3 133.58,127.56 134.3,127.56 Z M134.3,153 C134.913333,153 135.406667,152.806667 135.78,152.42 C136.153333,152.033333 136.34,151.546667 136.34,150.96 L136.34,150.96 L136.34,133.16 C136.34,132.546667 136.153333,132.053333 135.78,131.68 C135.406667,131.306667 134.913333,131.12 134.3,131.12 C133.713333,131.12 133.226667,131.306667 132.84,131.68 C132.453333,132.053333 132.26,132.546667 132.26,133.16 L132.26,133.16 L132.26,150.96 C132.26,151.546667 132.453333,152.033333 132.84,152.42 C133.226667,152.806667 133.713333,153 134.3,153 Z M158.46,153 C159.713333,153 160.34,152.373333 160.34,151.12 C160.34,149.866667 159.713333,149.24 158.46,149.24 L158.46,149.24 L148.3,149.24 L159.58,134.28 C159.82,133.96 159.94,133.533333 159.94,133 C159.94,131.746667 159.313333,131.12 158.06,131.12 L158.06,131.12 L144.42,131.12 C143.166667,131.12 142.54,131.746667 142.54,133 C142.54,134.253333 143.166667,134.88 144.42,134.88 L144.42,134.88 L154.62,134.88 L143.3,149.84 C143.06,150.16 142.94,150.586667 142.94,151.12 C142.94,152.373333 143.566667,153 144.82,153 L144.82,153 L158.46,153 Z"/><g id="icon" stroke="#E9279C" stroke-width="4" transform="translate(57.000000, 27.000000)"><rect id="Rectangle" width="23" height="24" x="0" y="0" rx="4"/><rect id="Rectangle" width="23" height="24" x="50" y="41" rx="4"/><rect id="Rectangle" width="23" height="24" x="0" y="58" rx="4"/><line id="Line" x1="11.5" x2="11.5" y1="24.532" y2="56.468" stroke-linecap="round"/><line id="Line" x1="26" x2="48" y1="26" y2="41" stroke-dasharray="0 6" stroke-linecap="round"/></g></g></g></svg>