<?xml version="1.0" encoding="UTF-8"?>
<svg width="646px" height="242px" viewBox="0 0 646 242" version="1.1" xmlns="http://www.w3.org/2000/svg" xmlns:xlink="http://www.w3.org/1999/xlink">
    <!-- Generator: Sketch 51.2 (57519) - http://www.bohemiancoding.com/sketch -->
    <title>depviz</title>
    <desc>Created with Sketch.</desc>
    <defs></defs>
    <g id="Page-1" stroke="none" stroke-width="1" fill="none" fill-rule="evenodd">
        <g id="Group-Copy">
            <path d="M37.418,30.8 C85.754,31.012 85.754,104.788 37.418,105 L9.434,105 L9.434,30.8 L37.418,30.8 Z M18.656,38.75 L18.656,97.05 L37.206,97.05 C74.094,97.05 74.094,38.75 37.206,38.75 L18.656,38.75 Z M37.206,95.884 L19.61,95.884 L19.61,39.81 L37.206,39.81 C72.822,40.022 72.822,95.778 37.206,95.884 Z M28.408,48.078 L28.408,87.722 L37.418,87.722 C61.056,87.722 61.056,48.078 37.418,48.078 L28.408,48.078 Z M96.99,38.644 L96.99,97.156 L128.154,97.156 L128.154,96.096 L98.156,96.096 L98.156,67.158 L125.08,67.158 L125.08,66.098 L98.156,66.098 L98.156,39.704 L127.2,39.704 L127.2,38.644 L96.99,38.644 Z M134.408,30.8 L134.408,47.76 L106.954,47.76 L106.954,58.254 L132.182,58.254 L132.182,75.108 L106.954,75.108 L106.954,88.146 L135.362,88.146 L135.362,105 L88.086,105 L88.086,30.8 L134.408,30.8 Z M184.44,78.076 C207.972,77.864 208.078,38.856 184.44,38.856 L160.484,38.856 L160.484,97.898 L161.65,97.898 L161.65,78.076 L184.44,78.076 Z M170.66,105 L151.686,105 L151.686,30.8 L184.334,30.8 C219.844,30.906 219.844,86.026 184.334,86.026 L170.66,86.026 L170.66,105 Z M161.65,39.81 L184.44,39.81 C206.382,39.81 206.7,76.804 184.44,76.804 L161.65,76.804 L161.65,39.81 Z M184.228,68.96 C194.616,68.96 195.252,47.866 184.228,47.76 C179.776,47.654 175.006,47.76 170.66,47.76 L170.66,68.96 L184.228,68.96 Z M276.872,37.902 L253.234,92.81 L253.128,92.81 L229.172,37.902 L227.794,37.902 L252.916,95.142 L253.446,95.142 L278.144,37.902 L276.872,37.902 Z M235.532,30.8 L252.916,73.518 L253.446,73.518 L270.406,30.8 L288.638,30.8 L288.638,33.662 L257.156,105.848 L249.1,105.848 L217.3,33.662 L217.3,30.8 L235.532,30.8 Z M311.852,96.202 L300.616,96.202 L300.616,97.262 L323.936,97.262 L323.936,96.202 L312.912,96.202 L312.912,39.704 L323.088,39.704 L323.088,38.644 L301.57,38.644 L301.57,39.704 L311.852,39.704 L311.852,96.202 Z M321.71,88.358 L331.144,88.358 L331.144,105 L293.514,105 L293.514,88.358 L302.948,88.358 L302.948,47.336 L294.256,47.336 L294.256,30.8 L330.402,30.8 L330.402,47.336 L321.71,47.336 L321.71,88.358 Z M395.486,30.8 L395.486,33.662 L365.382,88.04 L395.804,88.04 L395.804,105 L336.55,105 L336.55,102.138 L366.548,47.76 L339.306,47.76 L339.306,30.8 L395.486,30.8 Z M345.666,39.81 L380.646,39.81 L350.224,97.05 L387.854,97.05 L387.854,96.096 L351.814,96.096 L382.236,38.75 L345.666,38.75 L345.666,39.81 Z" id="DEPVIZ" fill="#2D6FE2"></path>
            <g id="Group-3" transform="translate(351.000000, 57.000000)" fill-rule="nonzero">
                <circle id="Oval-2" fill="#2D6FE2" cx="132" cy="39" r="39"></circle>
                <circle id="Oval-2-Copy" stroke="#FFFFFF" cx="131.5" cy="39.5" r="29.5"></circle>
                <rect id="Rectangle" fill="#2D6FE2" x="8" y="31" width="91" height="17"></rect>
                <path d="M0.5,39.5 L101.5,39.5" id="Line" stroke="#FFFFFF" stroke-linecap="square"></path>
            </g>
            <g id="Group-2" transform="translate(501.000000, 0.000000)" fill-rule="nonzero">
                <circle id="Oval-2-Copy-3" fill="#2D6FE2" cx="49.5" cy="25.5" r="25.5"></circle>
                <circle id="Oval-2-Copy-2" stroke="#FFFFFF" cx="49.5" cy="25.5" r="16.5"></circle>
                <rect id="Rectangle-Copy" fill="#2D6FE2" transform="translate(21.799395, 55.435219) rotate(-46.000000) translate(-21.799395, -55.435219) " x="0.416809071" y="46.9352194" width="42.7651719" height="17"></rect>
                <path d="M3,75.1056757 L38.5,38.5" id="Line-Copy" stroke="#FFFFFF" stroke-linecap="square"></path>
            </g>
            <g id="Group" transform="translate(505.000000, 114.000000)" fill-rule="nonzero">
                <circle id="Oval-2-Copy-5" fill="#2D6FE2" cx="86" cy="72" r="55"></circle>
                <circle id="Oval-2-Copy-4" stroke="#FFFFFF" cx="85.5" cy="71.5" r="41.5"></circle>
                <rect id="Rectangle-Copy-2" fill="#2D6FE2" transform="translate(27.571816, 25.571786) rotate(41.000000) translate(-27.571816, -25.571786) " x="-1.20441272" y="17.0717862" width="57.5524568" height="17"></rect>
                <path d="M0.499300287,2 L51.5,46.5" id="Line-Copy-2" stroke="#FFFFFF" stroke-linecap="square"></path>
            </g>
        </g>
    </g>
</svg>