<?xml version="1.0" encoding="UTF-8" standalone="no"?>
<!DOCTYPE svg PUBLIC "-//W3C//DTD SVG 1.1//EN"
 "http://www.w3.org/Graphics/SVG/1.1/DTD/svg11.dtd">
<!-- Generated by graphviz version 2.40.1 (20161225.0304)
 -->
<!-- Title: G Pages: 1 -->
<svg width="702pt" height="363pt"
 viewBox="14.40 14.40 687.40 348.40" xmlns="http://www.w3.org/2000/svg" xmlns:xlink="http://www.w3.org/1999/xlink">
<g id="graph0" class="graph" transform="scale(1 1) rotate(0) translate(18.4 344.4)">
<title>G</title>
<polygon fill="#ffffff" stroke="transparent" points="-4,4 -4,-330 669,-330 669,4 -4,4"/>
<g id="clust1" class="cluster">
<title>cluster_mouldepviz</title>
<polygon fill="none" stroke="#000000" stroke-dasharray="5,2" points="8,-8 8,-318 657,-318 657,-8 8,-8"/>
<text text-anchor="middle" x="332.5" y="-302.8" font-family="Times,serif" font-size="14.00" fill="#000000">moul/depviz</text>
</g>
<!-- moul/depviz#11 -->
<g id="node1" class="node">
<title>moul/depviz#11</title>
<path fill="#c0c0c0" stroke="#c0c0c0" d="M522,-219C522,-219 645,-219 645,-219 651,-219 657,-225 657,-231 657,-231 657,-283 657,-283 657,-289 651,-295 645,-295 645,-295 522,-295 522,-295 516,-295 510,-289 510,-283 510,-283 510,-231 510,-231 510,-225 516,-219 522,-219"/>
<polygon fill="none" stroke="#c0c0c0" points="521.5,-226 521.5,-288 646.5,-288 646.5,-226 521.5,-226"/>
<text text-anchor="start" x="531.1035" y="-273.8" font-family="Times,serif" font-size="14.00" fill="#000000">&quot;moul/depviz#11&quot;:</text>
<text text-anchor="start" x="529.5688" y="-259.8" font-family="Times,serif" font-size="14.00" fill="#000000">depviz is pluggable</text>
<text text-anchor="start" x="524.1138" y="-245.8" font-family="Times,serif" font-size="14.00" fill="#000000">with other workflows</text>
<text text-anchor="start" x="558.1362" y="-231.8" font-family="Times,serif" font-size="14.00" fill="#000000">/ systems</text>
<polygon fill="none" stroke="#c0c0c0" points="518,-223 518,-291 649,-291 649,-223 518,-223"/>
</g>
<!-- moul/depviz#4 -->
<g id="node2" class="node">
<title>moul/depviz#4</title>
<path fill="#ffc0cb" stroke="#ffc0cb" d="M359.5,-233C359.5,-233 462.5,-233 462.5,-233 468.5,-233 474.5,-239 474.5,-245 474.5,-245 474.5,-269 474.5,-269 474.5,-275 468.5,-281 462.5,-281 462.5,-281 359.5,-281 359.5,-281 353.5,-281 347.5,-275 347.5,-269 347.5,-269 347.5,-245 347.5,-245 347.5,-239 353.5,-233 359.5,-233"/>
<polygon fill="none" stroke="#ffc0cb" points="359,-240 359,-274 464,-274 464,-240 359,-240"/>
<text text-anchor="start" x="361.8472" y="-259.8" font-family="Times,serif" font-size="14.00" fill="#000000">&quot;moul/depviz#4&quot;:</text>
<text text-anchor="start" x="364.0552" y="-245.8" font-family="Times,serif" font-size="14.00" fill="#000000">Export to OPML</text>
<polygon fill="none" stroke="#ffc0cb" points="355.5,-237 355.5,-277 466.5,-277 466.5,-237 355.5,-237"/>
</g>
<!-- moul/depviz#11&#45;&gt;moul/depviz#4 -->
<g id="edge1" class="edge">
<title>moul/depviz#11&#45;&gt;moul/depviz#4</title>
<path fill="none" stroke="#ffc0cb" d="M509.8441,-257C498.1229,-257 486.0845,-257 474.6201,-257"/>
</g>
<!-- moul/depviz#10 -->
<g id="node3" class="node">
<title>moul/depviz#10</title>
<path fill="#c0c0c0" stroke="#c0c0c0" d="M528.5,-149C528.5,-149 638.5,-149 638.5,-149 644.5,-149 650.5,-155 650.5,-161 650.5,-161 650.5,-199 650.5,-199 650.5,-205 644.5,-211 638.5,-211 638.5,-211 528.5,-211 528.5,-211 522.5,-211 516.5,-205 516.5,-199 516.5,-199 516.5,-161 516.5,-161 516.5,-155 522.5,-149 528.5,-149"/>
<polygon fill="none" stroke="#c0c0c0" points="527.5,-156 527.5,-204 639.5,-204 639.5,-156 527.5,-156"/>
<text text-anchor="start" x="530.3472" y="-189.8" font-family="Times,serif" font-size="14.00" fill="#000000">&quot;moul/depviz#10&quot;:</text>
<text text-anchor="start" x="537.0396" y="-175.8" font-family="Times,serif" font-size="14.00" fill="#000000">depviz is easy to</text>
<text text-anchor="start" x="559.7861" y="-161.8" font-family="Times,serif" font-size="14.00" fill="#000000">discover</text>
<polygon fill="none" stroke="#c0c0c0" points="524.5,-153 524.5,-207 642.5,-207 642.5,-153 524.5,-153"/>
</g>
<!-- moul/depviz#3 -->
<g id="node4" class="node">
<title>moul/depviz#3</title>
<path fill="#ffc0cb" stroke="#ffc0cb" d="M346,-156C346,-156 476,-156 476,-156 482,-156 488,-162 488,-168 488,-168 488,-192 488,-192 488,-198 482,-204 476,-204 476,-204 346,-204 346,-204 340,-204 334,-198 334,-192 334,-192 334,-168 334,-168 334,-162 340,-156 346,-156"/>
<polygon fill="none" stroke="#ffc0cb" points="345,-163 345,-197 477,-197 477,-163 345,-163"/>
<text text-anchor="start" x="347.9248" y="-182.8" font-family="Times,serif" font-size="14.00" fill="#000000">&quot;moul/depviz#3&quot;: Add</text>
<text text-anchor="start" x="384.5654" y="-168.8" font-family="Times,serif" font-size="14.00" fill="#000000">examples</text>
<polygon fill="none" stroke="#ffc0cb" points="342,-160 342,-200 480,-200 480,-160 342,-160"/>
</g>
<!-- moul/depviz#10&#45;&gt;moul/depviz#3 -->
<g id="edge2" class="edge">
<title>moul/depviz#10&#45;&gt;moul/depviz#3</title>
<path fill="none" stroke="#ffc0cb" d="M516.3131,-180C507.0423,-180 497.4622,-180 488.0308,-180"/>
</g>
<!-- moul/depviz#9 -->
<g id="node5" class="node">
<title>moul/depviz#9</title>
<path fill="#c0c0c0" stroke="#c0c0c0" d="M532,-79C532,-79 635,-79 635,-79 641,-79 647,-85 647,-91 647,-91 647,-129 647,-129 647,-135 641,-141 635,-141 635,-141 532,-141 532,-141 526,-141 520,-135 520,-129 520,-129 520,-91 520,-91 520,-85 526,-79 532,-79"/>
<polygon fill="none" stroke="#c0c0c0" points="531.5,-86 531.5,-134 636.5,-134 636.5,-86 531.5,-86"/>
<text text-anchor="start" x="534.3472" y="-119.8" font-family="Times,serif" font-size="14.00" fill="#000000">&quot;moul/depviz#9&quot;:</text>
<text text-anchor="start" x="537.5396" y="-105.8" font-family="Times,serif" font-size="14.00" fill="#000000">depviz is easy to</text>
<text text-anchor="start" x="570.7861" y="-91.8" font-family="Times,serif" font-size="14.00" fill="#000000">hack</text>
<polygon fill="none" stroke="#c0c0c0" points="528,-83 528,-137 639,-137 639,-83 528,-83"/>
</g>
<!-- moul/depviz#2 -->
<g id="node6" class="node">
<title>moul/depviz#2</title>
<path fill="#ffc0cb" stroke="#ffc0cb" d="M359.5,-86C359.5,-86 462.5,-86 462.5,-86 468.5,-86 474.5,-92 474.5,-98 474.5,-98 474.5,-122 474.5,-122 474.5,-128 468.5,-134 462.5,-134 462.5,-134 359.5,-134 359.5,-134 353.5,-134 347.5,-128 347.5,-122 347.5,-122 347.5,-98 347.5,-98 347.5,-92 353.5,-86 359.5,-86"/>
<polygon fill="none" stroke="#ffc0cb" points="359,-93 359,-127 464,-127 464,-93 359,-93"/>
<text text-anchor="start" x="361.8472" y="-112.8" font-family="Times,serif" font-size="14.00" fill="#000000">&quot;moul/depviz#2&quot;:</text>
<text text-anchor="start" x="386.8052" y="-98.8" font-family="Times,serif" font-size="14.00" fill="#000000">Setup CI</text>
<polygon fill="none" stroke="#ffc0cb" points="355.5,-90 355.5,-130 466.5,-130 466.5,-90 355.5,-90"/>
</g>
<!-- moul/depviz#9&#45;&gt;moul/depviz#2 -->
<g id="edge3" class="edge">
<title>moul/depviz#9&#45;&gt;moul/depviz#2</title>
<path fill="none" stroke="#ffc0cb" d="M519.7575,-110C505.0734,-110 489.4535,-110 474.7684,-110"/>
</g>
<!-- moul/depviz#8 -->
<g id="node7" class="node">
<title>moul/depviz#8</title>
<path fill="#c0c0c0" stroke="#c0c0c0" d="M197,-12C197,-12 300,-12 300,-12 306,-12 312,-18 312,-24 312,-24 312,-62 312,-62 312,-68 306,-74 300,-74 300,-74 197,-74 197,-74 191,-74 185,-68 185,-62 185,-62 185,-24 185,-24 185,-18 191,-12 197,-12"/>
<polygon fill="none" stroke="#c0c0c0" points="196.5,-19 196.5,-67 301.5,-67 301.5,-19 196.5,-19"/>
<text text-anchor="start" x="199.3472" y="-52.8" font-family="Times,serif" font-size="14.00" fill="#000000">&quot;moul/depviz#8&quot;:</text>
<text text-anchor="start" x="202.5396" y="-38.8" font-family="Times,serif" font-size="14.00" fill="#000000">depviz is easy to</text>
<text text-anchor="start" x="239.6689" y="-24.8" font-family="Times,serif" font-size="14.00" fill="#000000">use</text>
<polygon fill="none" stroke="#c0c0c0" points="193,-16 193,-70 304,-70 304,-16 193,-16"/>
</g>
<!-- moul/depviz#5 -->
<g id="node8" class="node">
<title>moul/depviz#5</title>
<path fill="#ffc0cb" stroke="#ffc0cb" d="M20.5,-9C20.5,-9 150.5,-9 150.5,-9 156.5,-9 162.5,-15 162.5,-21 162.5,-21 162.5,-45 162.5,-45 162.5,-51 156.5,-57 150.5,-57 150.5,-57 20.5,-57 20.5,-57 14.5,-57 8.5,-51 8.5,-45 8.5,-45 8.5,-21 8.5,-21 8.5,-15 14.5,-9 20.5,-9"/>
<polygon fill="none" stroke="#ffc0cb" points="19.5,-16 19.5,-50 151.5,-50 151.5,-16 19.5,-16"/>
<text text-anchor="start" x="22.4248" y="-35.8" font-family="Times,serif" font-size="14.00" fill="#000000">&quot;moul/depviz#5&quot;: Add</text>
<text text-anchor="start" x="46.0464" y="-21.8" font-family="Times,serif" font-size="14.00" fill="#000000">Docker image</text>
<polygon fill="none" stroke="#ffc0cb" points="16.5,-13 16.5,-53 154.5,-53 154.5,-13 16.5,-13"/>
</g>
<!-- moul/depviz#8&#45;&gt;moul/depviz#5 -->
<g id="edge4" class="edge">
<title>moul/depviz#8&#45;&gt;moul/depviz#5</title>
<path fill="none" stroke="#ffc0cb" d="M184.5459,-39.0764C177.3215,-38.6332 169.904,-38.1782 162.5353,-37.7261"/>
</g>
<!-- moul/depviz#7 -->
<g id="node9" class="node">
<title>moul/depviz#7</title>
<path fill="#ffc0cb" stroke="#ffc0cb" d="M31,-65C31,-65 140,-65 140,-65 146,-65 152,-71 152,-77 152,-77 152,-143 152,-143 152,-149 146,-155 140,-155 140,-155 31,-155 31,-155 25,-155 19,-149 19,-143 19,-143 19,-77 19,-77 19,-71 25,-65 31,-65"/>
<polygon fill="none" stroke="#ffc0cb" points="30.5,-72 30.5,-148 141.5,-148 141.5,-72 30.5,-72"/>
<text text-anchor="start" x="36.3472" y="-133.8" font-family="Times,serif" font-size="14.00" fill="#000000">&quot;moul/depviz#7&quot;:</text>
<text text-anchor="start" x="33.3257" y="-119.8" font-family="Times,serif" font-size="14.00" fill="#000000">Refactor CLI to be</text>
<text text-anchor="start" x="51.4033" y="-105.8" font-family="Times,serif" font-size="14.00" fill="#000000">easier to run</text>
<text text-anchor="start" x="40.7017" y="-91.8" font-family="Times,serif" font-size="14.00" fill="#000000">projects without</text>
<text text-anchor="start" x="35.2534" y="-77.8" font-family="Times,serif" font-size="14.00" fill="#000000">configuration files</text>
<polygon fill="none" stroke="#ffc0cb" points="27,-69 27,-151 144,-151 144,-69 27,-69"/>
</g>
<!-- moul/depviz#8&#45;&gt;moul/depviz#7 -->
<g id="edge5" class="edge">
<title>moul/depviz#8&#45;&gt;moul/depviz#7</title>
<path fill="none" stroke="#ffc0cb" d="M184.5459,-69.2879C173.9323,-73.6505 162.9019,-78.1845 152.2218,-82.5745"/>
</g>
<!-- moul/depviz#6 -->
<g id="node10" class="node">
<title>moul/depviz#6</title>
<path fill="#ffc0cb" stroke="#ffc0cb" d="M20,-163C20,-163 151,-163 151,-163 157,-163 163,-169 163,-175 163,-175 163,-199 163,-199 163,-205 157,-211 151,-211 151,-211 20,-211 20,-211 14,-211 8,-205 8,-199 8,-199 8,-175 8,-175 8,-169 14,-163 20,-163"/>
<polygon fill="none" stroke="#ffc0cb" points="19.5,-170 19.5,-204 152.5,-204 152.5,-170 19.5,-170"/>
<text text-anchor="start" x="22.0635" y="-189.8" font-family="Times,serif" font-size="14.00" fill="#000000">&quot;moul/depviz#6&quot;: Web</text>
<text text-anchor="start" x="65.3931" y="-175.8" font-family="Times,serif" font-size="14.00" fill="#000000">version</text>
<polygon fill="none" stroke="#ffc0cb" points="16,-167 16,-207 155,-207 155,-167 16,-167"/>
</g>
<!-- moul/depviz#8&#45;&gt;moul/depviz#6 -->
<g id="edge6" class="edge">
<title>moul/depviz#8&#45;&gt;moul/depviz#6</title>
<path fill="none" stroke="#ffc0cb" d="M232.4278,-74.1317C217.5818,-100.1062 193.275,-136.4043 163,-159 161.1656,-160.3691 159.2578,-161.6764 157.2929,-162.9244"/>
</g>
<!-- moul/depviz#13 -->
<g id="node11" class="node">
<title>moul/depviz#13</title>
<path fill="#c0c0c0" stroke="#c0c0c0" d="M524.5,-9C524.5,-9 642.5,-9 642.5,-9 648.5,-9 654.5,-15 654.5,-21 654.5,-21 654.5,-59 654.5,-59 654.5,-65 648.5,-71 642.5,-71 642.5,-71 524.5,-71 524.5,-71 518.5,-71 512.5,-65 512.5,-59 512.5,-59 512.5,-21 512.5,-21 512.5,-15 518.5,-9 524.5,-9"/>
<polygon fill="none" stroke="#c0c0c0" points="523.5,-16 523.5,-64 643.5,-64 643.5,-16 523.5,-16"/>
<text text-anchor="start" x="526.2661" y="-49.8" font-family="Times,serif" font-size="14.00" fill="#000000">&quot;moul/depviz#13&quot;: I</text>
<text text-anchor="start" x="535.1016" y="-35.8" font-family="Times,serif" font-size="14.00" fill="#000000">can use depviz to</text>
<text text-anchor="start" x="528.0981" y="-21.8" font-family="Times,serif" font-size="14.00" fill="#000000">plan all my projects</text>
<polygon fill="none" stroke="#c0c0c0" points="520.5,-13 520.5,-67 646.5,-67 646.5,-13 520.5,-13"/>
</g>
<!-- moul/depviz#12 -->
<g id="node12" class="node">
<title>moul/depviz#12</title>
<path fill="#c0c0c0" stroke="#c0c0c0" d="M349.5,-12C349.5,-12 472.5,-12 472.5,-12 478.5,-12 484.5,-18 484.5,-24 484.5,-24 484.5,-62 484.5,-62 484.5,-68 478.5,-74 472.5,-74 472.5,-74 349.5,-74 349.5,-74 343.5,-74 337.5,-68 337.5,-62 337.5,-62 337.5,-24 337.5,-24 337.5,-18 343.5,-12 349.5,-12"/>
<polygon fill="none" stroke="#c0c0c0" points="349,-19 349,-67 474,-67 474,-19 349,-19"/>
<text text-anchor="start" x="354.2661" y="-52.8" font-family="Times,serif" font-size="14.00" fill="#000000">&quot;moul/depviz#12&quot;: I</text>
<text text-anchor="start" x="363.1016" y="-38.8" font-family="Times,serif" font-size="14.00" fill="#000000">can use depviz to</text>
<text text-anchor="start" x="351.6309" y="-24.8" font-family="Times,serif" font-size="14.00" fill="#000000">manage my company</text>
<polygon fill="none" stroke="#c0c0c0" points="345.5,-16 345.5,-70 476.5,-70 476.5,-16 345.5,-16"/>
</g>
<!-- moul/depviz#13&#45;&gt;moul/depviz#12 -->
<g id="edge7" class="edge">
<title>moul/depviz#13&#45;&gt;moul/depviz#12</title>
<path fill="none" stroke="#add8e6" d="M512.3417,-41.2375C503.1539,-41.3973 493.7302,-41.5612 484.5053,-41.7216"/>
</g>
<!-- moul/depviz#12&#45;&gt;moul/depviz#8 -->
<g id="edge8" class="edge">
<title>moul/depviz#12&#45;&gt;moul/depviz#8</title>
<path fill="none" stroke="#add8e6" d="M337.3573,-43C328.9597,-43 320.4528,-43 312.1996,-43"/>
</g>
</g>
</svg>
