<?xml version="1.0" encoding="UTF-8" standalone="no"?>
<!DOCTYPE svg PUBLIC "-//W3C//DTD SVG 1.1//EN"
 "http://www.w3.org/Graphics/SVG/1.1/DTD/svg11.dtd">
<!-- Generated by graphviz version 2.40.1 (20161225.0304)
 -->
<!-- Title: G Pages: 1 -->
<svg width="1029pt" height="662pt"
 viewBox="14.40 14.40 1014.78 647.18" xmlns="http://www.w3.org/2000/svg" xmlns:xlink="http://www.w3.org/1999/xlink">
<g id="graph0" class="graph" transform="scale(1 1) rotate(0) translate(18.4 643.1817)">
<title>G</title>
<polygon fill="#ffffff" stroke="transparent" points="-4,4 -4,-628.7817 996.3839,-628.7817 996.3839,4 -4,4"/>
<!-- moul/depviz#13 -->
<g id="node1" class="node">
<title>moul/depviz#13</title>
<ellipse fill="#ffa500" stroke="#ffa500" stroke-width="2" cx="888.4392" cy="-370.7817" rx="100.3184" ry="67.7647"/>
<polygon fill="none" stroke="#ffa500" points="828.4392,-363.7817 828.4392,-411.7817 948.4392,-411.7817 948.4392,-363.7817 828.4392,-363.7817"/>
<text text-anchor="start" x="831.2053" y="-397.5817" font-family="Times,serif" font-size="14.00" fill="#000000">&quot;moul/depviz#13&quot;: I</text>
<text text-anchor="start" x="840.0408" y="-383.5817" font-family="Times,serif" font-size="14.00" fill="#000000">can use depviz to</text>
<text text-anchor="start" x="833.0374" y="-369.5817" font-family="Times,serif" font-size="14.00" fill="#000000">plan all my projects</text>
<polygon fill="none" stroke="#ffa500" points="828.4392,-329.7817 828.4392,-361.7817 948.4392,-361.7817 948.4392,-329.7817 828.4392,-329.7817"/>
<polygon fill="#cc00d9" stroke="transparent" points="834.4392,-335.7817 834.4392,-355.7817 942.4392,-355.7817 942.4392,-335.7817 834.4392,-335.7817"/>
<polygon fill="none" stroke="#ffa500" points="834.4392,-335.7817 834.4392,-355.7817 942.4392,-355.7817 942.4392,-335.7817 834.4392,-335.7817"/>
<text text-anchor="start" x="876.7805" y="-341.5817" font-family="Times,serif" font-size="14.00" fill="#000000">epic</text>
<polygon fill="none" stroke="#ffa500" points="831.4392,-332.7817 831.4392,-358.7817 945.4392,-358.7817 945.4392,-332.7817 831.4392,-332.7817"/>
<polygon fill="none" stroke="#ffa500" points="825.4392,-326.7817 825.4392,-414.7817 951.4392,-414.7817 951.4392,-326.7817 825.4392,-326.7817"/>
</g>
<!-- moul/depviz#12 -->
<g id="node2" class="node">
<title>moul/depviz#12</title>
<ellipse fill="#ffa500" stroke="#ffa500" stroke-width="2" cx="658.5498" cy="-370.7817" rx="103.8894" ry="67.7647"/>
<polygon fill="none" stroke="#ffa500" points="596.5498,-363.7817 596.5498,-411.7817 721.5498,-411.7817 721.5498,-363.7817 596.5498,-363.7817"/>
<text text-anchor="start" x="601.8159" y="-397.5817" font-family="Times,serif" font-size="14.00" fill="#000000">&quot;moul/depviz#12&quot;: I</text>
<text text-anchor="start" x="610.6514" y="-383.5817" font-family="Times,serif" font-size="14.00" fill="#000000">can use depviz to</text>
<text text-anchor="start" x="599.1807" y="-369.5817" font-family="Times,serif" font-size="14.00" fill="#000000">manage my company</text>
<polygon fill="none" stroke="#ffa500" points="596.5498,-329.7817 596.5498,-361.7817 721.5498,-361.7817 721.5498,-329.7817 596.5498,-329.7817"/>
<polygon fill="#cc00d9" stroke="transparent" points="602.5498,-335.7817 602.5498,-355.7817 715.5498,-355.7817 715.5498,-335.7817 602.5498,-335.7817"/>
<polygon fill="none" stroke="#ffa500" points="602.5498,-335.7817 602.5498,-355.7817 715.5498,-355.7817 715.5498,-335.7817 602.5498,-335.7817"/>
<text text-anchor="start" x="647.3911" y="-341.5817" font-family="Times,serif" font-size="14.00" fill="#000000">epic</text>
<polygon fill="none" stroke="#ffa500" points="599.5498,-332.7817 599.5498,-358.7817 718.5498,-358.7817 718.5498,-332.7817 599.5498,-332.7817"/>
<polygon fill="none" stroke="#ffa500" points="593.0498,-326.7817 593.0498,-414.7817 724.0498,-414.7817 724.0498,-326.7817 593.0498,-326.7817"/>
</g>
<!-- moul/depviz#13&#45;&gt;moul/depviz#12 -->
<g id="edge1" class="edge">
<title>moul/depviz#13&#45;&gt;moul/depviz#12</title>
<path fill="none" stroke="#ffa500" stroke-dasharray="5,2" d="M787.9408,-370.7817C779.6042,-370.7817 771.1647,-370.7817 762.8013,-370.7817"/>
</g>
<!-- moul/depviz#8 -->
<g id="node5" class="node">
<title>moul/depviz#8</title>
<ellipse fill="#ffa500" stroke="#ffa500" stroke-width="2" cx="442.8026" cy="-370.7817" rx="89.6056" ry="67.7647"/>
<polygon fill="none" stroke="#ffa500" points="390.8026,-363.7817 390.8026,-411.7817 495.8026,-411.7817 495.8026,-363.7817 390.8026,-363.7817"/>
<text text-anchor="start" x="393.6497" y="-397.5817" font-family="Times,serif" font-size="14.00" fill="#000000">&quot;moul/depviz#8&quot;:</text>
<text text-anchor="start" x="396.8421" y="-383.5817" font-family="Times,serif" font-size="14.00" fill="#000000">depviz is easy to</text>
<text text-anchor="start" x="433.9715" y="-369.5817" font-family="Times,serif" font-size="14.00" fill="#000000">use</text>
<polygon fill="none" stroke="#ffa500" points="390.8026,-329.7817 390.8026,-361.7817 495.8026,-361.7817 495.8026,-329.7817 390.8026,-329.7817"/>
<polygon fill="#cc00d9" stroke="transparent" points="396.8026,-335.7817 396.8026,-355.7817 489.8026,-355.7817 489.8026,-335.7817 396.8026,-335.7817"/>
<polygon fill="none" stroke="#ffa500" points="396.8026,-335.7817 396.8026,-355.7817 489.8026,-355.7817 489.8026,-335.7817 396.8026,-335.7817"/>
<text text-anchor="start" x="431.6439" y="-341.5817" font-family="Times,serif" font-size="14.00" fill="#000000">epic</text>
<polygon fill="none" stroke="#ffa500" points="393.8026,-332.7817 393.8026,-358.7817 492.8026,-358.7817 492.8026,-332.7817 393.8026,-332.7817"/>
<polygon fill="none" stroke="#ffa500" points="387.3026,-326.7817 387.3026,-414.7817 498.3026,-414.7817 498.3026,-326.7817 387.3026,-326.7817"/>
</g>
<!-- moul/depviz#12&#45;&gt;moul/depviz#8 -->
<g id="edge8" class="edge">
<title>moul/depviz#12&#45;&gt;moul/depviz#8</title>
<path fill="none" stroke="#ffa500" stroke-dasharray="5,2" d="M554.4679,-370.7817C547.2483,-370.7817 540.0061,-370.7817 532.8707,-370.7817"/>
</g>
<!-- moul/depviz#9 -->
<g id="node3" class="node">
<title>moul/depviz#9</title>
<ellipse fill="#ffa500" stroke="#ffa500" stroke-width="2" cx="442.8026" cy="-182.7817" rx="89.6056" ry="67.7647"/>
<polygon fill="none" stroke="#ffa500" points="390.8026,-175.7817 390.8026,-223.7817 495.8026,-223.7817 495.8026,-175.7817 390.8026,-175.7817"/>
<text text-anchor="start" x="393.6497" y="-209.5817" font-family="Times,serif" font-size="14.00" fill="#000000">&quot;moul/depviz#9&quot;:</text>
<text text-anchor="start" x="396.8421" y="-195.5817" font-family="Times,serif" font-size="14.00" fill="#000000">depviz is easy to</text>
<text text-anchor="start" x="430.0887" y="-181.5817" font-family="Times,serif" font-size="14.00" fill="#000000">hack</text>
<polygon fill="none" stroke="#ffa500" points="390.8026,-141.7817 390.8026,-173.7817 495.8026,-173.7817 495.8026,-141.7817 390.8026,-141.7817"/>
<polygon fill="#cc00d9" stroke="transparent" points="396.8026,-147.7817 396.8026,-167.7817 489.8026,-167.7817 489.8026,-147.7817 396.8026,-147.7817"/>
<polygon fill="none" stroke="#ffa500" points="396.8026,-147.7817 396.8026,-167.7817 489.8026,-167.7817 489.8026,-147.7817 396.8026,-147.7817"/>
<text text-anchor="start" x="431.6439" y="-153.5817" font-family="Times,serif" font-size="14.00" fill="#000000">epic</text>
<polygon fill="none" stroke="#ffa500" points="393.8026,-144.7817 393.8026,-170.7817 492.8026,-170.7817 492.8026,-144.7817 393.8026,-144.7817"/>
<polygon fill="none" stroke="#ffa500" points="387.3026,-138.7817 387.3026,-226.7817 498.3026,-226.7817 498.3026,-138.7817 387.3026,-138.7817"/>
</g>
<!-- moul/depviz#2 -->
<g id="node4" class="node">
<title>moul/depviz#2</title>
<path fill="#add8e6" stroke="#add8e6" d="M202,-128.7817C202,-128.7817 305,-128.7817 305,-128.7817 311,-128.7817 317,-134.7817 317,-140.7817 317,-140.7817 317,-198.7817 317,-198.7817 317,-204.7817 311,-210.7817 305,-210.7817 305,-210.7817 202,-210.7817 202,-210.7817 196,-210.7817 190,-204.7817 190,-198.7817 190,-198.7817 190,-140.7817 190,-140.7817 190,-134.7817 196,-128.7817 202,-128.7817"/>
<polygon fill="none" stroke="#add8e6" points="201.5,-169.7817 201.5,-203.7817 306.5,-203.7817 306.5,-169.7817 201.5,-169.7817"/>
<text text-anchor="start" x="204.3472" y="-189.5817" font-family="Times,serif" font-size="14.00" fill="#000000">&quot;moul/depviz#2&quot;:</text>
<text text-anchor="start" x="229.3052" y="-175.5817" font-family="Times,serif" font-size="14.00" fill="#000000">Setup CI</text>
<polygon fill="none" stroke="#add8e6" points="201.5,-135.7817 201.5,-167.7817 306.5,-167.7817 306.5,-135.7817 201.5,-135.7817"/>
<polygon fill="#a2eeef" stroke="transparent" points="207.5,-141.7817 207.5,-161.7817 300.5,-161.7817 300.5,-141.7817 207.5,-141.7817"/>
<polygon fill="none" stroke="#add8e6" points="207.5,-141.7817 207.5,-161.7817 300.5,-161.7817 300.5,-141.7817 207.5,-141.7817"/>
<text text-anchor="start" x="217.0757" y="-147.5817" font-family="Times,serif" font-size="14.00" fill="#000000">enhancement</text>
<polygon fill="none" stroke="#add8e6" points="204.5,-138.7817 204.5,-164.7817 303.5,-164.7817 303.5,-138.7817 204.5,-138.7817"/>
<polygon fill="none" stroke="#add8e6" points="198,-132.7817 198,-206.7817 309,-206.7817 309,-132.7817 198,-132.7817"/>
</g>
<!-- moul/depviz#9&#45;&gt;moul/depviz#2 -->
<g id="edge2" class="edge">
<title>moul/depviz#9&#45;&gt;moul/depviz#2</title>
<path fill="none" stroke="#ffa500" stroke-dasharray="5,2" d="M353.1406,-176.6244C341.0039,-175.7909 328.7576,-174.9499 317.2027,-174.1564"/>
</g>
<!-- moul/depviz#5 -->
<g id="node6" class="node">
<title>moul/depviz#5</title>
<path fill="#ffc0cb" stroke="#ffc0cb" d="M12,-128.7817C12,-128.7817 142,-128.7817 142,-128.7817 148,-128.7817 154,-134.7817 154,-140.7817 154,-140.7817 154,-198.7817 154,-198.7817 154,-204.7817 148,-210.7817 142,-210.7817 142,-210.7817 12,-210.7817 12,-210.7817 6,-210.7817 0,-204.7817 0,-198.7817 0,-198.7817 0,-140.7817 0,-140.7817 0,-134.7817 6,-128.7817 12,-128.7817"/>
<polygon fill="none" stroke="#ffc0cb" points="11,-169.7817 11,-203.7817 143,-203.7817 143,-169.7817 11,-169.7817"/>
<text text-anchor="start" x="13.9248" y="-189.5817" font-family="Times,serif" font-size="14.00" fill="#000000">&quot;moul/depviz#5&quot;: Add</text>
<text text-anchor="start" x="37.5464" y="-175.5817" font-family="Times,serif" font-size="14.00" fill="#000000">Docker image</text>
<polygon fill="none" stroke="#ffc0cb" points="11,-135.7817 11,-167.7817 143,-167.7817 143,-135.7817 11,-135.7817"/>
<polygon fill="#a2eeef" stroke="transparent" points="17,-141.7817 17,-161.7817 137,-161.7817 137,-141.7817 17,-141.7817"/>
<polygon fill="none" stroke="#ffc0cb" points="17,-141.7817 17,-161.7817 137,-161.7817 137,-141.7817 17,-141.7817"/>
<text text-anchor="start" x="40.0757" y="-147.5817" font-family="Times,serif" font-size="14.00" fill="#000000">enhancement</text>
<polygon fill="none" stroke="#ffc0cb" points="14,-138.7817 14,-164.7817 140,-164.7817 140,-138.7817 14,-138.7817"/>
<polygon fill="none" stroke="#ffc0cb" points="8,-132.7817 8,-206.7817 146,-206.7817 146,-132.7817 8,-132.7817"/>
</g>
<!-- moul/depviz#2&#45;&gt;moul/depviz#5 -->
<g id="edge7" class="edge">
<title>moul/depviz#2&#45;&gt;moul/depviz#5</title>
<path fill="none" stroke="#ffc0cb" d="M189.7794,-169.7817C178.2265,-169.7817 166.0644,-169.7817 154.1748,-169.7817"/>
</g>
<!-- moul/depviz#8&#45;&gt;moul/depviz#5 -->
<g id="edge3" class="edge">
<title>moul/depviz#8&#45;&gt;moul/depviz#5</title>
<path fill="none" stroke="#ffa500" stroke-dasharray="5,2" d="M375.1049,-415.5924C317.6142,-447.4741 235.2427,-477.9994 176,-436.7817 137.9034,-410.2764 102.4373,-279.0368 86.2345,-210.9434"/>
</g>
<!-- moul/depviz#7 -->
<g id="node7" class="node">
<title>moul/depviz#7</title>
<path fill="#ffc0cb" stroke="#ffc0cb" d="M199,-308.7817C199,-308.7817 308,-308.7817 308,-308.7817 314,-308.7817 320,-314.7817 320,-320.7817 320,-320.7817 320,-420.7817 320,-420.7817 320,-426.7817 314,-432.7817 308,-432.7817 308,-432.7817 199,-432.7817 199,-432.7817 193,-432.7817 187,-426.7817 187,-420.7817 187,-420.7817 187,-320.7817 187,-320.7817 187,-314.7817 193,-308.7817 199,-308.7817"/>
<polygon fill="none" stroke="#ffc0cb" points="198.5,-349.7817 198.5,-425.7817 309.5,-425.7817 309.5,-349.7817 198.5,-349.7817"/>
<text text-anchor="start" x="204.3472" y="-411.5817" font-family="Times,serif" font-size="14.00" fill="#000000">&quot;moul/depviz#7&quot;:</text>
<text text-anchor="start" x="201.3257" y="-397.5817" font-family="Times,serif" font-size="14.00" fill="#000000">Refactor CLI to be</text>
<text text-anchor="start" x="219.4033" y="-383.5817" font-family="Times,serif" font-size="14.00" fill="#000000">easier to run</text>
<text text-anchor="start" x="208.7017" y="-369.5817" font-family="Times,serif" font-size="14.00" fill="#000000">projects without</text>
<text text-anchor="start" x="203.2534" y="-355.5817" font-family="Times,serif" font-size="14.00" fill="#000000">configuration files</text>
<polygon fill="none" stroke="#ffc0cb" points="198.5,-315.7817 198.5,-347.7817 309.5,-347.7817 309.5,-315.7817 198.5,-315.7817"/>
<polygon fill="#a2eeef" stroke="transparent" points="204.5,-321.7817 204.5,-341.7817 303.5,-341.7817 303.5,-321.7817 204.5,-321.7817"/>
<polygon fill="none" stroke="#ffc0cb" points="204.5,-321.7817 204.5,-341.7817 303.5,-341.7817 303.5,-321.7817 204.5,-321.7817"/>
<text text-anchor="start" x="217.0757" y="-327.5817" font-family="Times,serif" font-size="14.00" fill="#000000">enhancement</text>
<polygon fill="none" stroke="#ffc0cb" points="201.5,-318.7817 201.5,-344.7817 306.5,-344.7817 306.5,-318.7817 201.5,-318.7817"/>
<polygon fill="none" stroke="#ffc0cb" points="195,-312.7817 195,-428.7817 312,-428.7817 312,-312.7817 195,-312.7817"/>
</g>
<!-- moul/depviz#8&#45;&gt;moul/depviz#7 -->
<g id="edge4" class="edge">
<title>moul/depviz#8&#45;&gt;moul/depviz#7</title>
<path fill="none" stroke="#ffa500" stroke-dasharray="5,2" d="M352.8636,-370.7817C341.7976,-370.7817 330.6455,-370.7817 320.0143,-370.7817"/>
</g>
<!-- moul/depviz#6 -->
<g id="node8" class="node">
<title>moul/depviz#6</title>
<path fill="#ffc0cb" stroke="#ffc0cb" d="M188,-218.7817C188,-218.7817 319,-218.7817 319,-218.7817 325,-218.7817 331,-224.7817 331,-230.7817 331,-230.7817 331,-288.7817 331,-288.7817 331,-294.7817 325,-300.7817 319,-300.7817 319,-300.7817 188,-300.7817 188,-300.7817 182,-300.7817 176,-294.7817 176,-288.7817 176,-288.7817 176,-230.7817 176,-230.7817 176,-224.7817 182,-218.7817 188,-218.7817"/>
<polygon fill="none" stroke="#ffc0cb" points="187.5,-259.7817 187.5,-293.7817 320.5,-293.7817 320.5,-259.7817 187.5,-259.7817"/>
<text text-anchor="start" x="190.0635" y="-279.5817" font-family="Times,serif" font-size="14.00" fill="#000000">&quot;moul/depviz#6&quot;: Web</text>
<text text-anchor="start" x="233.3931" y="-265.5817" font-family="Times,serif" font-size="14.00" fill="#000000">version</text>
<polygon fill="none" stroke="#ffc0cb" points="187.5,-225.7817 187.5,-257.7817 320.5,-257.7817 320.5,-225.7817 187.5,-225.7817"/>
<polygon fill="#a2eeef" stroke="transparent" points="193.5,-231.7817 193.5,-251.7817 314.5,-251.7817 314.5,-231.7817 193.5,-231.7817"/>
<polygon fill="none" stroke="#ffc0cb" points="193.5,-231.7817 193.5,-251.7817 314.5,-251.7817 314.5,-231.7817 193.5,-231.7817"/>
<text text-anchor="start" x="217.0757" y="-237.5817" font-family="Times,serif" font-size="14.00" fill="#000000">enhancement</text>
<polygon fill="none" stroke="#ffc0cb" points="190.5,-228.7817 190.5,-254.7817 317.5,-254.7817 317.5,-228.7817 190.5,-228.7817"/>
<polygon fill="none" stroke="#ffc0cb" points="184,-222.7817 184,-296.7817 323,-296.7817 323,-222.7817 184,-222.7817"/>
</g>
<!-- moul/depviz#8&#45;&gt;moul/depviz#6 -->
<g id="edge5" class="edge">
<title>moul/depviz#8&#45;&gt;moul/depviz#6</title>
<path fill="none" stroke="#ffa500" stroke-dasharray="5,2" d="M371.8746,-328.8073C358.3154,-320.8125 344.2269,-312.5258 331,-304.7817 328.8517,-303.524 326.6693,-302.2477 324.4653,-300.96"/>
</g>
<!-- moul/depviz#10 -->
<g id="node9" class="node">
<title>moul/depviz#10</title>
<ellipse fill="#ffa500" stroke="#ffa500" stroke-width="2" cx="888.4392" cy="-513.7817" rx="94.5053" ry="67.7647"/>
<polygon fill="none" stroke="#ffa500" points="832.4392,-506.7817 832.4392,-554.7817 944.4392,-554.7817 944.4392,-506.7817 832.4392,-506.7817"/>
<text text-anchor="start" x="835.2864" y="-540.5817" font-family="Times,serif" font-size="14.00" fill="#000000">&quot;moul/depviz#10&quot;:</text>
<text text-anchor="start" x="841.9788" y="-526.5817" font-family="Times,serif" font-size="14.00" fill="#000000">depviz is easy to</text>
<text text-anchor="start" x="864.7253" y="-512.5817" font-family="Times,serif" font-size="14.00" fill="#000000">discover</text>
<polygon fill="none" stroke="#ffa500" points="832.4392,-472.7817 832.4392,-504.7817 944.4392,-504.7817 944.4392,-472.7817 832.4392,-472.7817"/>
<polygon fill="#cc00d9" stroke="transparent" points="838.4392,-478.7817 838.4392,-498.7817 938.4392,-498.7817 938.4392,-478.7817 838.4392,-478.7817"/>
<polygon fill="none" stroke="#ffa500" points="838.4392,-478.7817 838.4392,-498.7817 938.4392,-498.7817 938.4392,-478.7817 838.4392,-478.7817"/>
<text text-anchor="start" x="876.7805" y="-484.5817" font-family="Times,serif" font-size="14.00" fill="#000000">epic</text>
<polygon fill="none" stroke="#ffa500" points="835.4392,-475.7817 835.4392,-501.7817 941.4392,-501.7817 941.4392,-475.7817 835.4392,-475.7817"/>
<polygon fill="none" stroke="#ffa500" points="829.4392,-469.7817 829.4392,-557.7817 947.4392,-557.7817 947.4392,-469.7817 829.4392,-469.7817"/>
</g>
<!-- moul/depviz#3 -->
<g id="node10" class="node">
<title>moul/depviz#3</title>
<path fill="#cccccc" fill-opacity="0.200000" stroke="#cccccc" stroke-opacity="0.200000" d="M593.5498,-489.7817C593.5498,-489.7817 723.5498,-489.7817 723.5498,-489.7817 729.5498,-489.7817 735.5498,-495.7817 735.5498,-501.7817 735.5498,-501.7817 735.5498,-525.7817 735.5498,-525.7817 735.5498,-531.7817 729.5498,-537.7817 723.5498,-537.7817 723.5498,-537.7817 593.5498,-537.7817 593.5498,-537.7817 587.5498,-537.7817 581.5498,-531.7817 581.5498,-525.7817 581.5498,-525.7817 581.5498,-501.7817 581.5498,-501.7817 581.5498,-495.7817 587.5498,-489.7817 593.5498,-489.7817"/>
<polygon fill="none" stroke="#cccccc" stroke-opacity="0.200000" points="592.5498,-496.7817 592.5498,-530.7817 724.5498,-530.7817 724.5498,-496.7817 592.5498,-496.7817"/>
<text text-anchor="start" x="595.4746" y="-516.5817" font-family="Times,serif" font-size="14.00" fill="#000000">&quot;moul/depviz#3&quot;: Add</text>
<text text-anchor="start" x="632.1152" y="-502.5817" font-family="Times,serif" font-size="14.00" fill="#000000">examples</text>
<polygon fill="none" stroke="#cccccc" stroke-opacity="0.200000" points="589.5498,-493.7817 589.5498,-533.7817 727.5498,-533.7817 727.5498,-493.7817 589.5498,-493.7817"/>
</g>
<!-- moul/depviz#10&#45;&gt;moul/depviz#3 -->
<g id="edge6" class="edge">
<title>moul/depviz#10&#45;&gt;moul/depviz#3</title>
<path fill="none" stroke="#ffa500" stroke-dasharray="5,2" d="M793.6071,-513.7817C774.3126,-513.7817 754.2377,-513.7817 735.6492,-513.7817"/>
</g>
<!-- moul/depviz#11 -->
<g id="node11" class="node">
<title>moul/depviz#11</title>
<ellipse fill="#ffa500" stroke="#ffa500" stroke-width="2" cx="888.4392" cy="-77.7817" rx="103.8894" ry="77.5641"/>
<polygon fill="none" stroke="#ffa500" points="826.4392,-63.7817 826.4392,-125.7817 951.4392,-125.7817 951.4392,-63.7817 826.4392,-63.7817"/>
<text text-anchor="start" x="836.0427" y="-111.5817" font-family="Times,serif" font-size="14.00" fill="#000000">&quot;moul/depviz#11&quot;:</text>
<text text-anchor="start" x="834.5081" y="-97.5817" font-family="Times,serif" font-size="14.00" fill="#000000">depviz is pluggable</text>
<text text-anchor="start" x="829.053" y="-83.5817" font-family="Times,serif" font-size="14.00" fill="#000000">with other workflows</text>
<text text-anchor="start" x="863.0754" y="-69.5817" font-family="Times,serif" font-size="14.00" fill="#000000">/ systems</text>
<polygon fill="none" stroke="#ffa500" points="826.4392,-29.7817 826.4392,-61.7817 951.4392,-61.7817 951.4392,-29.7817 826.4392,-29.7817"/>
<polygon fill="#cc00d9" stroke="transparent" points="832.4392,-35.7817 832.4392,-55.7817 945.4392,-55.7817 945.4392,-35.7817 832.4392,-35.7817"/>
<polygon fill="none" stroke="#ffa500" points="832.4392,-35.7817 832.4392,-55.7817 945.4392,-55.7817 945.4392,-35.7817 832.4392,-35.7817"/>
<text text-anchor="start" x="877.2805" y="-41.5817" font-family="Times,serif" font-size="14.00" fill="#000000">epic</text>
<polygon fill="none" stroke="#ffa500" points="829.4392,-32.7817 829.4392,-58.7817 948.4392,-58.7817 948.4392,-32.7817 829.4392,-32.7817"/>
<polygon fill="none" stroke="#ffa500" points="822.9392,-26.7817 822.9392,-128.7817 953.9392,-128.7817 953.9392,-26.7817 822.9392,-26.7817"/>
</g>
<!-- moul/depviz#11&#45;&gt;moul/depviz#5 -->
<g id="edge9" class="edge">
<title>moul/depviz#11&#45;&gt;moul/depviz#5</title>
<path fill="none" stroke="#ffa500" stroke-dasharray="5,2" d="M786.4687,-93.262C778.3686,-94.2148 770.3035,-95.0731 762.4945,-95.7817 502.58,-119.3699 428.8712,-60.2209 176,-124.7817 168.7743,-126.6266 161.4214,-128.9734 154.1527,-131.6234"/>
</g>
<!-- moul/depviz#4 -->
<g id="node12" class="node">
<title>moul/depviz#4</title>
<path fill="#ffc0cb" stroke="#ffc0cb" d="M607.0498,-9.7817C607.0498,-9.7817 710.0498,-9.7817 710.0498,-9.7817 716.0498,-9.7817 722.0498,-15.7817 722.0498,-21.7817 722.0498,-21.7817 722.0498,-79.7817 722.0498,-79.7817 722.0498,-85.7817 716.0498,-91.7817 710.0498,-91.7817 710.0498,-91.7817 607.0498,-91.7817 607.0498,-91.7817 601.0498,-91.7817 595.0498,-85.7817 595.0498,-79.7817 595.0498,-79.7817 595.0498,-21.7817 595.0498,-21.7817 595.0498,-15.7817 601.0498,-9.7817 607.0498,-9.7817"/>
<polygon fill="none" stroke="#ffc0cb" points="606.5498,-50.7817 606.5498,-84.7817 711.5498,-84.7817 711.5498,-50.7817 606.5498,-50.7817"/>
<text text-anchor="start" x="609.397" y="-70.5817" font-family="Times,serif" font-size="14.00" fill="#000000">&quot;moul/depviz#4&quot;:</text>
<text text-anchor="start" x="611.605" y="-56.5817" font-family="Times,serif" font-size="14.00" fill="#000000">Export to OPML</text>
<polygon fill="none" stroke="#ffc0cb" points="606.5498,-16.7817 606.5498,-48.7817 711.5498,-48.7817 711.5498,-16.7817 606.5498,-16.7817"/>
<polygon fill="#a2eeef" stroke="transparent" points="612.5498,-22.7817 612.5498,-42.7817 705.5498,-42.7817 705.5498,-22.7817 612.5498,-22.7817"/>
<polygon fill="none" stroke="#ffc0cb" points="612.5498,-22.7817 612.5498,-42.7817 705.5498,-42.7817 705.5498,-22.7817 612.5498,-22.7817"/>
<text text-anchor="start" x="622.1255" y="-28.5817" font-family="Times,serif" font-size="14.00" fill="#000000">enhancement</text>
<polygon fill="none" stroke="#ffc0cb" points="609.5498,-19.7817 609.5498,-45.7817 708.5498,-45.7817 708.5498,-19.7817 609.5498,-19.7817"/>
<polygon fill="none" stroke="#ffc0cb" points="603.0498,-13.7817 603.0498,-87.7817 714.0498,-87.7817 714.0498,-13.7817 603.0498,-13.7817"/>
</g>
<!-- moul/depviz#11&#45;&gt;moul/depviz#4 -->
<g id="edge10" class="edge">
<title>moul/depviz#11&#45;&gt;moul/depviz#4</title>
<path fill="none" stroke="#ffa500" stroke-dasharray="5,2" d="M785.5976,-65.7032C763.9592,-63.1618 741.7422,-60.5525 722.06,-58.2409"/>
</g>
<!-- placeholder_1 -->
<g id="node13" class="node">
<title>placeholder_1</title>
<text text-anchor="middle" x="888.4392" y="-602.5817" font-family="Times,serif" font-size="14.00" fill="#000000">weight=1</text>
</g>
<!-- placeholder_2 -->
<g id="node14" class="node">
<title>placeholder_2</title>
<text text-anchor="middle" x="658.5498" y="-602.5817" font-family="Times,serif" font-size="14.00" fill="#000000">weight=2</text>
</g>
<!-- placeholder_1&#45;&gt;placeholder_2 -->
<!-- placeholder_3 -->
<g id="node15" class="node">
<title>placeholder_3</title>
<text text-anchor="middle" x="442.8026" y="-602.5817" font-family="Times,serif" font-size="14.00" fill="#000000">weight=3</text>
</g>
<!-- placeholder_2&#45;&gt;placeholder_3 -->
<!-- placeholder_4 -->
<g id="node16" class="node">
<title>placeholder_4</title>
<text text-anchor="middle" x="253.5" y="-602.5817" font-family="Times,serif" font-size="14.00" fill="#000000">weight=4</text>
</g>
<!-- placeholder_3&#45;&gt;placeholder_4 -->
<!-- placeholder_9 -->
<g id="node17" class="node">
<title>placeholder_9</title>
<text text-anchor="middle" x="77" y="-602.5817" font-family="Times,serif" font-size="14.00" fill="#000000">weight=9</text>
</g>
<!-- placeholder_4&#45;&gt;placeholder_9 -->
</g>
</svg>
