<?xml version="1.0" encoding="UTF-8" standalone="no"?>
<!DOCTYPE svg PUBLIC "-//W3C//DTD SVG 1.1//EN"
 "http://www.w3.org/Graphics/SVG/1.1/DTD/svg11.dtd">
<!-- Generated by graphviz version 2.40.1 (20161225.0304)
 -->
<!-- Title: G Pages: 1 -->
<svg width="1952pt" height="921pt"
 viewBox="14.40 14.40 1937.31 906.90" xmlns="http://www.w3.org/2000/svg" xmlns:xlink="http://www.w3.org/1999/xlink">
<g id="graph0" class="graph" transform="scale(1 1) rotate(0) translate(18.4 902.9)">
<title>G</title>
<polygon fill="#ffffff" stroke="transparent" points="-4,4 -4,-888.5 1918.9079,-888.5 1918.9079,4 -4,4"/>
<!-- moul/depviz#8 -->
<g id="node1" class="node">
<title>moul/depviz#8</title>
<g id="a_node1"><a xlink:href="https://github.com/moul/depviz/issues/8" xlink:title="&lt;TABLE&gt;">
<ellipse fill="#ffa500" stroke="#ffa500" stroke-width="2" cx="763.8528" cy="-227.5" rx="84.7059" ry="67.7647"/>
<polygon fill="none" stroke="#ffa500" points="714.8528,-220.5 714.8528,-268.5 812.8528,-268.5 812.8528,-220.5 714.8528,-220.5"/>
<text text-anchor="start" x="719.9148" y="-254.3" font-family="Times,serif" font-size="14.00" fill="#000000">moul/depviz#8:</text>
<text text-anchor="start" x="717.3924" y="-240.3" font-family="Times,serif" font-size="14.00" fill="#000000">depviz is easy to</text>
<text text-anchor="start" x="754.5218" y="-226.3" font-family="Times,serif" font-size="14.00" fill="#000000">use</text>
<polygon fill="none" stroke="#ffa500" points="714.8528,-186.5 714.8528,-218.5 812.8528,-218.5 812.8528,-186.5 714.8528,-186.5"/>
<polygon fill="#cc00d9" stroke="transparent" points="720.8528,-192.5 720.8528,-212.5 806.8528,-212.5 806.8528,-192.5 720.8528,-192.5"/>
<polygon fill="none" stroke="#ffa500" points="720.8528,-192.5 720.8528,-212.5 806.8528,-212.5 806.8528,-192.5 720.8528,-192.5"/>
<text text-anchor="start" x="752.1941" y="-198.3" font-family="Times,serif" font-size="14.00" fill="#000000">epic</text>
<polygon fill="none" stroke="#ffa500" points="717.8528,-189.5 717.8528,-215.5 809.8528,-215.5 809.8528,-189.5 717.8528,-189.5"/>
<polygon fill="none" stroke="#ffa500" points="711.8528,-183.5 711.8528,-271.5 815.8528,-271.5 815.8528,-183.5 711.8528,-183.5"/>
</a>
</g>
</g>
<!-- moul/depviz#6 -->
<g id="node2" class="node">
<title>moul/depviz#6</title>
<g id="a_node2"><a xlink:href="https://github.com/moul/depviz/issues/6" xlink:title="&lt;table&gt;&lt;tr&gt;&lt;td&gt;moul/depviz#6: Web&lt;br/&gt;version&lt;/td&gt;&lt;/tr&gt;&lt;tr&gt;&lt;td&gt;&lt;table&gt;&lt;tr&gt;&lt;td bgcolor=&quot;#a2eeef&quot;&gt;enhancement&lt;/td&gt;&lt;/tr&gt;&lt;/table&gt;&lt;/td&gt;&lt;/tr&gt;&lt;/table&gt;">
<path fill="#ffc0cb" stroke="#ffc0cb" d="M522.5,-391.5C522.5,-391.5 642.5,-391.5 642.5,-391.5 648.5,-391.5 654.5,-397.5 654.5,-403.5 654.5,-403.5 654.5,-461.5 654.5,-461.5 654.5,-467.5 648.5,-473.5 642.5,-473.5 642.5,-473.5 522.5,-473.5 522.5,-473.5 516.5,-473.5 510.5,-467.5 510.5,-461.5 510.5,-461.5 510.5,-403.5 510.5,-403.5 510.5,-397.5 516.5,-391.5 522.5,-391.5"/>
<polygon fill="none" stroke="#ffc0cb" points="521.5,-432.5 521.5,-466.5 643.5,-466.5 643.5,-432.5 521.5,-432.5"/>
<text text-anchor="start" x="524.2783" y="-452.3" font-family="Times,serif" font-size="14.00" fill="#000000">moul/depviz#6: Web</text>
<text text-anchor="start" x="561.8931" y="-438.3" font-family="Times,serif" font-size="14.00" fill="#000000">version</text>
<polygon fill="none" stroke="#ffc0cb" points="521.5,-398.5 521.5,-430.5 643.5,-430.5 643.5,-398.5 521.5,-398.5"/>
<polygon fill="#a2eeef" stroke="transparent" points="527.5,-404.5 527.5,-424.5 637.5,-424.5 637.5,-404.5 527.5,-404.5"/>
<polygon fill="none" stroke="#ffc0cb" points="527.5,-404.5 527.5,-424.5 637.5,-424.5 637.5,-404.5 527.5,-404.5"/>
<text text-anchor="start" x="545.5757" y="-410.3" font-family="Times,serif" font-size="14.00" fill="#000000">enhancement</text>
<polygon fill="none" stroke="#ffc0cb" points="524.5,-401.5 524.5,-427.5 640.5,-427.5 640.5,-401.5 524.5,-401.5"/>
<polygon fill="none" stroke="#ffc0cb" points="518.5,-395.5 518.5,-469.5 646.5,-469.5 646.5,-395.5 518.5,-395.5"/>
</a>
</g>
</g>
<!-- moul/depviz#8&#45;&gt;moul/depviz#6 -->
<g id="edge1" class="edge">
<title>moul/depviz#8&#45;&gt;moul/depviz#6</title>
<path fill="none" stroke="#ffa500" stroke-dasharray="5,2" d="M716.2739,-283.9153C703.3377,-300.6018 689.9037,-319.2904 679,-337.5 666.7362,-357.9811 672.7377,-368.5501 657,-386.5 655.597,-388.1002 654.1247,-389.6629 652.5948,-391.1875"/>
</g>
<!-- moul/depviz#7 -->
<g id="node3" class="node">
<title>moul/depviz#7</title>
<g id="a_node3"><a xlink:href="https://github.com/moul/depviz/issues/7" xlink:title="&lt;table&gt;&lt;tr&gt;&lt;td&gt;moul/depviz#7:&lt;br/&gt;Refactor CLI to be&lt;br/&gt;easier to run&lt;br/&gt;projects without&lt;br/&gt;configuration files&lt;/td&gt;&lt;/tr&gt;&lt;tr&gt;&lt;td&gt;&lt;table&gt;&lt;tr&gt;&lt;td bgcolor=&quot;#a2eeef&quot;&gt;enhancement&lt;/td&gt;&lt;td bgcolor=&quot;#b60205&quot;&gt;p0&lt;/td&gt;&lt;/tr&gt;&lt;/table&gt;&lt;/td&gt;&lt;/tr&gt;&lt;/table&gt;">
<path fill="#ffc0cb" stroke="#ffc0cb" d="M527,-259.5C527,-259.5 638,-259.5 638,-259.5 644,-259.5 650,-265.5 650,-271.5 650,-271.5 650,-371.5 650,-371.5 650,-377.5 644,-383.5 638,-383.5 638,-383.5 527,-383.5 527,-383.5 521,-383.5 515,-377.5 515,-371.5 515,-371.5 515,-271.5 515,-271.5 515,-265.5 521,-259.5 527,-259.5"/>
<polygon fill="none" stroke="#ffc0cb" points="526.5,-300.5 526.5,-376.5 639.5,-376.5 639.5,-300.5 526.5,-300.5"/>
<text text-anchor="start" x="539.062" y="-362.3" font-family="Times,serif" font-size="14.00" fill="#000000">moul/depviz#7:</text>
<text text-anchor="start" x="530.3257" y="-348.3" font-family="Times,serif" font-size="14.00" fill="#000000">Refactor CLI to be</text>
<text text-anchor="start" x="548.4033" y="-334.3" font-family="Times,serif" font-size="14.00" fill="#000000">easier to run</text>
<text text-anchor="start" x="537.7017" y="-320.3" font-family="Times,serif" font-size="14.00" fill="#000000">projects without</text>
<text text-anchor="start" x="532.2534" y="-306.3" font-family="Times,serif" font-size="14.00" fill="#000000">configuration files</text>
<polygon fill="none" stroke="#ffc0cb" points="526.5,-266.5 526.5,-298.5 639.5,-298.5 639.5,-266.5 526.5,-266.5"/>
<polygon fill="#a2eeef" stroke="transparent" points="532.5,-272.5 532.5,-292.5 611.5,-292.5 611.5,-272.5 532.5,-272.5"/>
<polygon fill="none" stroke="#ffc0cb" points="532.5,-272.5 532.5,-292.5 611.5,-292.5 611.5,-272.5 532.5,-272.5"/>
<text text-anchor="start" x="535.0757" y="-278.3" font-family="Times,serif" font-size="14.00" fill="#000000">enhancement</text>
<polygon fill="#b60205" stroke="transparent" points="613.5,-272.5 613.5,-292.5 633.5,-292.5 633.5,-272.5 613.5,-272.5"/>
<polygon fill="none" stroke="#ffc0cb" points="613.5,-272.5 613.5,-292.5 633.5,-292.5 633.5,-272.5 613.5,-272.5"/>
<text text-anchor="start" x="616.5" y="-278.3" font-family="Times,serif" font-size="14.00" fill="#000000">p0</text>
<polygon fill="none" stroke="#ffc0cb" points="529.5,-269.5 529.5,-295.5 636.5,-295.5 636.5,-269.5 529.5,-269.5"/>
<polygon fill="none" stroke="#ffc0cb" points="523,-263.5 523,-379.5 642,-379.5 642,-263.5 523,-263.5"/>
</a>
</g>
</g>
<!-- moul/depviz#8&#45;&gt;moul/depviz#7 -->
<g id="edge2" class="edge">
<title>moul/depviz#8&#45;&gt;moul/depviz#7</title>
<path fill="none" stroke="#ffa500" stroke-dasharray="5,2" d="M692.4377,-264.5164C678.4618,-271.7604 663.8459,-279.3363 650.0024,-286.5117"/>
</g>
<!-- moul/depviz#24 -->
<g id="node4" class="node">
<title>moul/depviz#24</title>
<g id="a_node4"><a xlink:href="https://github.com/moul/depviz/issues/24" xlink:title="&lt;table&gt;&lt;tr&gt;&lt;td&gt;moul/depviz#24: Add&lt;br/&gt;a issue&#45;focus mode&lt;/td&gt;&lt;/tr&gt;&lt;/table&gt;">
<path fill="#ffc0cb" stroke="#ffc0cb" d="M520,-203.5C520,-203.5 645,-203.5 645,-203.5 651,-203.5 657,-209.5 657,-215.5 657,-215.5 657,-239.5 657,-239.5 657,-245.5 651,-251.5 645,-251.5 645,-251.5 520,-251.5 520,-251.5 514,-251.5 508,-245.5 508,-239.5 508,-239.5 508,-215.5 508,-215.5 508,-209.5 514,-203.5 520,-203.5"/>
<polygon fill="none" stroke="#ffc0cb" points="519.5,-210.5 519.5,-244.5 646.5,-244.5 646.5,-210.5 519.5,-210.5"/>
<text text-anchor="start" x="522.1396" y="-230.3" font-family="Times,serif" font-size="14.00" fill="#000000">moul/depviz#24: Add</text>
<text text-anchor="start" x="529.3481" y="-216.3" font-family="Times,serif" font-size="14.00" fill="#000000">a issue&#45;focus mode</text>
<polygon fill="none" stroke="#ffc0cb" points="516,-207.5 516,-247.5 649,-247.5 649,-207.5 516,-207.5"/>
</a>
</g>
</g>
<!-- moul/depviz#8&#45;&gt;moul/depviz#24 -->
<g id="edge3" class="edge">
<title>moul/depviz#8&#45;&gt;moul/depviz#24</title>
<path fill="none" stroke="#ffa500" stroke-dasharray="5,2" d="M678.752,-227.5C671.5738,-227.5 664.3489,-227.5 657.258,-227.5"/>
</g>
<!-- moul/depviz#5 -->
<g id="node5" class="node">
<title>moul/depviz#5</title>
<g id="a_node5"><a xlink:href="https://github.com/moul/depviz/issues/5" xlink:title="&lt;table&gt;&lt;tr&gt;&lt;td&gt;moul/depviz#5: Add&lt;br/&gt;Docker image&lt;/td&gt;&lt;/tr&gt;&lt;tr&gt;&lt;td&gt;&lt;table&gt;&lt;tr&gt;&lt;td bgcolor=&quot;#a2eeef&quot;&gt;enhancement&lt;/td&gt;&lt;/tr&gt;&lt;/table&gt;&lt;/td&gt;&lt;/tr&gt;&lt;/table&gt;">
<path fill="#cccccc" fill-opacity="0.200000" stroke="#cccccc" stroke-opacity="0.200000" d="M12,-471.5C12,-471.5 130,-471.5 130,-471.5 136,-471.5 142,-477.5 142,-483.5 142,-483.5 142,-541.5 142,-541.5 142,-547.5 136,-553.5 130,-553.5 130,-553.5 12,-553.5 12,-553.5 6,-553.5 0,-547.5 0,-541.5 0,-541.5 0,-483.5 0,-483.5 0,-477.5 6,-471.5 12,-471.5"/>
<polygon fill="none" stroke="#cccccc" stroke-opacity="0.200000" points="11,-512.5 11,-546.5 131,-546.5 131,-512.5 11,-512.5"/>
<text text-anchor="start" x="13.6396" y="-532.3" font-family="Times,serif" font-size="14.00" fill="#000000">moul/depviz#5: Add</text>
<text text-anchor="start" x="31.5464" y="-518.3" font-family="Times,serif" font-size="14.00" fill="#000000">Docker image</text>
<polygon fill="none" stroke="#cccccc" stroke-opacity="0.200000" points="11,-478.5 11,-510.5 131,-510.5 131,-478.5 11,-478.5"/>
<polygon fill="#a2eeef" stroke="transparent" points="17,-484.5 17,-504.5 125,-504.5 125,-484.5 17,-484.5"/>
<polygon fill="none" stroke="#cccccc" stroke-opacity="0.200000" points="17,-484.5 17,-504.5 125,-504.5 125,-484.5 17,-484.5"/>
<text text-anchor="start" x="34.0757" y="-490.3" font-family="Times,serif" font-size="14.00" fill="#000000">enhancement</text>
<polygon fill="none" stroke="#cccccc" stroke-opacity="0.200000" points="14,-481.5 14,-507.5 128,-507.5 128,-481.5 14,-481.5"/>
<polygon fill="none" stroke="#cccccc" stroke-opacity="0.200000" points="8,-475.5 8,-549.5 134,-549.5 134,-475.5 8,-475.5"/>
</a>
</g>
</g>
<!-- moul/depviz#8&#45;&gt;moul/depviz#5 -->
<g id="edge4" class="edge">
<title>moul/depviz#8&#45;&gt;moul/depviz#5</title>
<path fill="none" stroke="#ffa500" stroke-dasharray="5,2" d="M684.9028,-202.2841C633.4434,-189.8487 565.4339,-181.0534 508,-199.5 339.4057,-253.6492 180.6542,-399.4867 109.779,-471.3425"/>
</g>
<!-- moul/depviz#25 -->
<g id="node6" class="node">
<title>moul/depviz#25</title>
<g id="a_node6"><a xlink:href="https://github.com/moul/depviz/issues/25" xlink:title="&lt;table&gt;&lt;tr&gt;&lt;td&gt;moul/depviz#25: add&lt;br/&gt;clickable links in&lt;br/&gt;generated graph&lt;/td&gt;&lt;/tr&gt;&lt;/table&gt;">
<path fill="#cccccc" fill-opacity="0.200000" stroke="#cccccc" stroke-opacity="0.200000" d="M521.5,-117.5C521.5,-117.5 643.5,-117.5 643.5,-117.5 649.5,-117.5 655.5,-123.5 655.5,-129.5 655.5,-129.5 655.5,-167.5 655.5,-167.5 655.5,-173.5 649.5,-179.5 643.5,-179.5 643.5,-179.5 521.5,-179.5 521.5,-179.5 515.5,-179.5 509.5,-173.5 509.5,-167.5 509.5,-167.5 509.5,-129.5 509.5,-129.5 509.5,-123.5 515.5,-117.5 521.5,-117.5"/>
<polygon fill="none" stroke="#cccccc" stroke-opacity="0.200000" points="520.5,-124.5 520.5,-172.5 644.5,-172.5 644.5,-124.5 520.5,-124.5"/>
<text text-anchor="start" x="523.2051" y="-158.3" font-family="Times,serif" font-size="14.00" fill="#000000">moul/depviz#25: add</text>
<text text-anchor="start" x="534.6792" y="-144.3" font-family="Times,serif" font-size="14.00" fill="#000000">clickable links in</text>
<text text-anchor="start" x="537.6084" y="-130.3" font-family="Times,serif" font-size="14.00" fill="#000000">generated graph</text>
<polygon fill="none" stroke="#cccccc" stroke-opacity="0.200000" points="517.5,-121.5 517.5,-175.5 647.5,-175.5 647.5,-121.5 517.5,-121.5"/>
</a>
</g>
</g>
<!-- moul/depviz#8&#45;&gt;moul/depviz#25 -->
<g id="edge5" class="edge">
<title>moul/depviz#8&#45;&gt;moul/depviz#25</title>
<path fill="none" stroke="#ffa500" stroke-dasharray="5,2" d="M689.3046,-195.0257C677.5813,-189.9188 665.4863,-184.6501 653.8379,-179.5758"/>
</g>
<!-- moul/depviz#12 -->
<g id="node7" class="node">
<title>moul/depviz#12</title>
<g id="a_node7"><a xlink:href="https://github.com/moul/depviz/issues/12" xlink:title="&lt;TABLE&gt;">
<ellipse fill="#ffa500" stroke="#ffa500" stroke-width="2" cx="974.6503" cy="-104.5" rx="103.8894" ry="67.7647"/>
<polygon fill="none" stroke="#ffa500" points="912.6503,-97.5 912.6503,-145.5 1037.6503,-145.5 1037.6503,-97.5 912.6503,-97.5"/>
<text text-anchor="start" x="923.6313" y="-131.3" font-family="Times,serif" font-size="14.00" fill="#000000">moul/depviz#12: I</text>
<text text-anchor="start" x="926.7519" y="-117.3" font-family="Times,serif" font-size="14.00" fill="#000000">can use depviz to</text>
<text text-anchor="start" x="915.2812" y="-103.3" font-family="Times,serif" font-size="14.00" fill="#000000">manage my company</text>
<polygon fill="none" stroke="#ffa500" points="912.6503,-63.5 912.6503,-95.5 1037.6503,-95.5 1037.6503,-63.5 912.6503,-63.5"/>
<polygon fill="#cc00d9" stroke="transparent" points="918.6503,-69.5 918.6503,-89.5 1031.6503,-89.5 1031.6503,-69.5 918.6503,-69.5"/>
<polygon fill="none" stroke="#ffa500" points="918.6503,-69.5 918.6503,-89.5 1031.6503,-89.5 1031.6503,-69.5 918.6503,-69.5"/>
<text text-anchor="start" x="963.4916" y="-75.3" font-family="Times,serif" font-size="14.00" fill="#000000">epic</text>
<polygon fill="none" stroke="#ffa500" points="915.6503,-66.5 915.6503,-92.5 1034.6503,-92.5 1034.6503,-66.5 915.6503,-66.5"/>
<polygon fill="none" stroke="#ffa500" points="909.1503,-60.5 909.1503,-148.5 1040.1503,-148.5 1040.1503,-60.5 909.1503,-60.5"/>
</a>
</g>
</g>
<!-- moul/depviz#12&#45;&gt;moul/depviz#8 -->
<g id="edge7" class="edge">
<title>moul/depviz#12&#45;&gt;moul/depviz#8</title>
<path fill="none" stroke="#ffa500" stroke-dasharray="5,2" d="M897.0552,-149.7767C875.9244,-162.1064 853.1879,-175.3731 832.5864,-187.3941"/>
</g>
<!-- moul/depviz#21 -->
<g id="node8" class="node">
<title>moul/depviz#21</title>
<g id="a_node8"><a xlink:href="https://github.com/moul/depviz/issues/21" xlink:title="&lt;table&gt;&lt;tr&gt;&lt;td&gt;moul/depviz#21: Show&lt;br/&gt;epic&amp;#39;s completion&lt;br/&gt;rate&lt;/td&gt;&lt;/tr&gt;&lt;tr&gt;&lt;td&gt;&lt;table&gt;&lt;tr&gt;&lt;td bgcolor=&quot;#a2eeef&quot;&gt;enhancement&lt;/td&gt;&lt;/tr&gt;&lt;/table&gt;&lt;/td&gt;&lt;/tr&gt;&lt;/table&gt;">
<path fill="#ffc0cb" stroke="#ffc0cb" d="M696.8528,-56.5C696.8528,-56.5 830.8528,-56.5 830.8528,-56.5 836.8528,-56.5 842.8528,-62.5 842.8528,-68.5 842.8528,-68.5 842.8528,-140.5 842.8528,-140.5 842.8528,-146.5 836.8528,-152.5 830.8528,-152.5 830.8528,-152.5 696.8528,-152.5 696.8528,-152.5 690.8528,-152.5 684.8528,-146.5 684.8528,-140.5 684.8528,-140.5 684.8528,-68.5 684.8528,-68.5 684.8528,-62.5 690.8528,-56.5 696.8528,-56.5"/>
<polygon fill="none" stroke="#ffc0cb" points="695.8528,-97.5 695.8528,-145.5 831.8528,-145.5 831.8528,-97.5 695.8528,-97.5"/>
<text text-anchor="start" x="698.7166" y="-131.3" font-family="Times,serif" font-size="14.00" fill="#000000">moul/depviz#21: Show</text>
<text text-anchor="start" x="714.9656" y="-117.3" font-family="Times,serif" font-size="14.00" fill="#000000">epic&#39;s completion</text>
<text text-anchor="start" x="753.3631" y="-103.3" font-family="Times,serif" font-size="14.00" fill="#000000">rate</text>
<polygon fill="none" stroke="#ffc0cb" points="695.8528,-63.5 695.8528,-95.5 831.8528,-95.5 831.8528,-63.5 695.8528,-63.5"/>
<polygon fill="#a2eeef" stroke="transparent" points="701.8528,-69.5 701.8528,-89.5 825.8528,-89.5 825.8528,-69.5 701.8528,-69.5"/>
<polygon fill="none" stroke="#ffc0cb" points="701.8528,-69.5 701.8528,-89.5 825.8528,-89.5 825.8528,-69.5 701.8528,-69.5"/>
<text text-anchor="start" x="726.9285" y="-75.3" font-family="Times,serif" font-size="14.00" fill="#000000">enhancement</text>
<polygon fill="none" stroke="#ffc0cb" points="698.8528,-66.5 698.8528,-92.5 828.8528,-92.5 828.8528,-66.5 698.8528,-66.5"/>
<polygon fill="none" stroke="#ffc0cb" points="692.8528,-60.5 692.8528,-148.5 834.8528,-148.5 834.8528,-60.5 692.8528,-60.5"/>
</a>
</g>
</g>
<!-- moul/depviz#12&#45;&gt;moul/depviz#21 -->
<g id="edge6" class="edge">
<title>moul/depviz#12&#45;&gt;moul/depviz#21</title>
<path fill="none" stroke="#ffa500" stroke-dasharray="5,2" d="M870.4867,-104.5C861.255,-104.5 852.0108,-104.5 843.0372,-104.5"/>
</g>
<!-- moul/depviz#32 -->
<g id="node9" class="node">
<title>moul/depviz#32</title>
<g id="a_node9"><a xlink:href="https://github.com/moul/depviz/issues/32" xlink:title="&lt;table&gt;&lt;tr&gt;&lt;td&gt;moul/depviz#32:&lt;br/&gt;Support GitLab&lt;/td&gt;&lt;/tr&gt;&lt;/table&gt;">
<path fill="#ffc0cb" stroke="#ffc0cb" d="M714.8528,-.5C714.8528,-.5 812.8528,-.5 812.8528,-.5 818.8528,-.5 824.8528,-6.5 824.8528,-12.5 824.8528,-12.5 824.8528,-36.5 824.8528,-36.5 824.8528,-42.5 818.8528,-48.5 812.8528,-48.5 812.8528,-48.5 714.8528,-48.5 714.8528,-48.5 708.8528,-48.5 702.8528,-42.5 702.8528,-36.5 702.8528,-36.5 702.8528,-12.5 702.8528,-12.5 702.8528,-6.5 708.8528,-.5 714.8528,-.5"/>
<polygon fill="none" stroke="#ffc0cb" points="713.8528,-7.5 713.8528,-41.5 813.8528,-41.5 813.8528,-7.5 713.8528,-7.5"/>
<text text-anchor="start" x="716.4148" y="-27.3" font-family="Times,serif" font-size="14.00" fill="#000000">moul/depviz#32:</text>
<text text-anchor="start" x="720.1062" y="-13.3" font-family="Times,serif" font-size="14.00" fill="#000000">Support GitLab</text>
<polygon fill="none" stroke="#ffc0cb" points="710.8528,-4.5 710.8528,-44.5 816.8528,-44.5 816.8528,-4.5 710.8528,-4.5"/>
</a>
</g>
</g>
<!-- moul/depviz#12&#45;&gt;moul/depviz#32 -->
<g id="edge8" class="edge">
<title>moul/depviz#12&#45;&gt;moul/depviz#32</title>
<path fill="none" stroke="#ffa500" stroke-dasharray="5,2" d="M887.2332,-67.4481C874.3718,-62.2766 861.2371,-57.1476 848.7056,-52.5 841.1424,-49.695 833.1507,-46.8743 825.2167,-44.1599"/>
</g>
<!-- moul/depviz#10 -->
<g id="node10" class="node">
<title>moul/depviz#10</title>
<g id="a_node10"><a xlink:href="https://github.com/moul/depviz/issues/10" xlink:title="&lt;TABLE&gt;">
<ellipse fill="#ffa500" stroke="#ffa500" stroke-width="2" cx="1592.3875" cy="-505.5" rx="86.0347" ry="67.7647"/>
<polygon fill="none" stroke="#ffa500" points="1542.3875,-498.5 1542.3875,-546.5 1642.3875,-546.5 1642.3875,-498.5 1542.3875,-498.5"/>
<text text-anchor="start" x="1544.9495" y="-532.3" font-family="Times,serif" font-size="14.00" fill="#000000">moul/depviz#10:</text>
<text text-anchor="start" x="1545.927" y="-518.3" font-family="Times,serif" font-size="14.00" fill="#000000">depviz is easy to</text>
<text text-anchor="start" x="1568.6736" y="-504.3" font-family="Times,serif" font-size="14.00" fill="#000000">discover</text>
<polygon fill="none" stroke="#ffa500" points="1542.3875,-464.5 1542.3875,-496.5 1642.3875,-496.5 1642.3875,-464.5 1542.3875,-464.5"/>
<polygon fill="#cc00d9" stroke="transparent" points="1548.3875,-470.5 1548.3875,-490.5 1636.3875,-490.5 1636.3875,-470.5 1548.3875,-470.5"/>
<polygon fill="none" stroke="#ffa500" points="1548.3875,-470.5 1548.3875,-490.5 1636.3875,-490.5 1636.3875,-470.5 1548.3875,-470.5"/>
<text text-anchor="start" x="1580.7288" y="-476.3" font-family="Times,serif" font-size="14.00" fill="#000000">epic</text>
<polygon fill="none" stroke="#ffa500" points="1545.3875,-467.5 1545.3875,-493.5 1639.3875,-493.5 1639.3875,-467.5 1545.3875,-467.5"/>
<polygon fill="none" stroke="#ffa500" points="1539.3875,-461.5 1539.3875,-549.5 1645.3875,-549.5 1645.3875,-461.5 1539.3875,-461.5"/>
</a>
</g>
</g>
<!-- moul/depviz#3 -->
<g id="node11" class="node">
<title>moul/depviz#3</title>
<g id="a_node11"><a xlink:href="https://github.com/moul/depviz/issues/3" xlink:title="&lt;table&gt;&lt;tr&gt;&lt;td&gt;moul/depviz#3: Add&lt;br/&gt;examples&lt;/td&gt;&lt;/tr&gt;&lt;/table&gt;">
<path fill="#cccccc" fill-opacity="0.200000" stroke="#cccccc" stroke-opacity="0.200000" d="M1338.7565,-544.5C1338.7565,-544.5 1456.7565,-544.5 1456.7565,-544.5 1462.7565,-544.5 1468.7565,-550.5 1468.7565,-556.5 1468.7565,-556.5 1468.7565,-580.5 1468.7565,-580.5 1468.7565,-586.5 1462.7565,-592.5 1456.7565,-592.5 1456.7565,-592.5 1338.7565,-592.5 1338.7565,-592.5 1332.7565,-592.5 1326.7565,-586.5 1326.7565,-580.5 1326.7565,-580.5 1326.7565,-556.5 1326.7565,-556.5 1326.7565,-550.5 1332.7565,-544.5 1338.7565,-544.5"/>
<polygon fill="none" stroke="#cccccc" stroke-opacity="0.200000" points="1337.7565,-551.5 1337.7565,-585.5 1457.7565,-585.5 1457.7565,-551.5 1337.7565,-551.5"/>
<text text-anchor="start" x="1340.3961" y="-571.3" font-family="Times,serif" font-size="14.00" fill="#000000">moul/depviz#3: Add</text>
<text text-anchor="start" x="1371.3219" y="-557.3" font-family="Times,serif" font-size="14.00" fill="#000000">examples</text>
<polygon fill="none" stroke="#cccccc" stroke-opacity="0.200000" points="1334.7565,-548.5 1334.7565,-588.5 1460.7565,-588.5 1460.7565,-548.5 1334.7565,-548.5"/>
</a>
</g>
</g>
<!-- moul/depviz#10&#45;&gt;moul/depviz#3 -->
<g id="edge9" class="edge">
<title>moul/depviz#10&#45;&gt;moul/depviz#3</title>
<path fill="none" stroke="#ffa500" stroke-dasharray="5,2" d="M1512.381,-531.3972C1498.0169,-536.0467 1483.133,-540.8645 1469.0358,-545.4276"/>
</g>
<!-- moul/depviz#18 -->
<g id="node12" class="node">
<title>moul/depviz#18</title>
<g id="a_node12"><a xlink:href="https://github.com/moul/depviz/issues/18" xlink:title="&lt;table&gt;&lt;tr&gt;&lt;td&gt;moul/depviz#18: Add&lt;br/&gt;badges in README&lt;/td&gt;&lt;/tr&gt;&lt;tr&gt;&lt;td&gt;&lt;table&gt;&lt;tr&gt;&lt;td bgcolor=&quot;#a2eeef&quot;&gt;enhancement&lt;/td&gt;&lt;/tr&gt;&lt;/table&gt;&lt;/td&gt;&lt;/tr&gt;&lt;/table&gt;">
<path fill="#cccccc" fill-opacity="0.200000" stroke="#cccccc" stroke-opacity="0.200000" d="M349,-497.5C349,-497.5 474,-497.5 474,-497.5 480,-497.5 486,-503.5 486,-509.5 486,-509.5 486,-567.5 486,-567.5 486,-573.5 480,-579.5 474,-579.5 474,-579.5 349,-579.5 349,-579.5 343,-579.5 337,-573.5 337,-567.5 337,-567.5 337,-509.5 337,-509.5 337,-503.5 343,-497.5 349,-497.5"/>
<polygon fill="none" stroke="#cccccc" stroke-opacity="0.200000" points="348.5,-538.5 348.5,-572.5 475.5,-572.5 475.5,-538.5 348.5,-538.5"/>
<text text-anchor="start" x="351.1396" y="-558.3" font-family="Times,serif" font-size="14.00" fill="#000000">moul/depviz#18: Add</text>
<text text-anchor="start" x="354.062" y="-544.3" font-family="Times,serif" font-size="14.00" fill="#000000">badges in README</text>
<polygon fill="none" stroke="#cccccc" stroke-opacity="0.200000" points="348.5,-504.5 348.5,-536.5 475.5,-536.5 475.5,-504.5 348.5,-504.5"/>
<polygon fill="#a2eeef" stroke="transparent" points="354.5,-510.5 354.5,-530.5 469.5,-530.5 469.5,-510.5 354.5,-510.5"/>
<polygon fill="none" stroke="#cccccc" stroke-opacity="0.200000" points="354.5,-510.5 354.5,-530.5 469.5,-530.5 469.5,-510.5 354.5,-510.5"/>
<text text-anchor="start" x="375.0757" y="-516.3" font-family="Times,serif" font-size="14.00" fill="#000000">enhancement</text>
<polygon fill="none" stroke="#cccccc" stroke-opacity="0.200000" points="351.5,-507.5 351.5,-533.5 472.5,-533.5 472.5,-507.5 351.5,-507.5"/>
<polygon fill="none" stroke="#cccccc" stroke-opacity="0.200000" points="345,-501.5 345,-575.5 478,-575.5 478,-501.5 345,-501.5"/>
</a>
</g>
</g>
<!-- moul/depviz#10&#45;&gt;moul/depviz#18 -->
<g id="edge10" class="edge">
<title>moul/depviz#10&#45;&gt;moul/depviz#18</title>
<path fill="none" stroke="#ffa500" stroke-dasharray="5,2" d="M1508.0462,-520.8114C1497.8672,-522.2648 1487.5952,-523.5483 1477.7565,-524.5 1354.0251,-536.4687 1322.4847,-532.5 1198.1758,-532.5 1198.1758,-532.5 1198.1758,-532.5 763.8528,-532.5 667.9512,-532.5 557.3886,-534.7495 486.074,-536.4937"/>
</g>
<!-- moul/depviz#19 -->
<g id="node13" class="node">
<title>moul/depviz#19</title>
<g id="a_node13"><a xlink:href="https://github.com/moul/depviz/issues/19" xlink:title="&lt;table&gt;&lt;tr&gt;&lt;td&gt;moul/depviz#19: Add&lt;br/&gt;a logo in the README&lt;/td&gt;&lt;/tr&gt;&lt;tr&gt;&lt;td&gt;&lt;table&gt;&lt;tr&gt;&lt;td bgcolor=&quot;#a2eeef&quot;&gt;enhancement&lt;/td&gt;&lt;/tr&gt;&lt;/table&gt;&lt;/td&gt;&lt;/tr&gt;&lt;/table&gt;">
<path fill="#cccccc" fill-opacity="0.200000" stroke="#cccccc" stroke-opacity="0.200000" d="M1329.7565,-438.5C1329.7565,-438.5 1465.7565,-438.5 1465.7565,-438.5 1471.7565,-438.5 1477.7565,-444.5 1477.7565,-450.5 1477.7565,-450.5 1477.7565,-508.5 1477.7565,-508.5 1477.7565,-514.5 1471.7565,-520.5 1465.7565,-520.5 1465.7565,-520.5 1329.7565,-520.5 1329.7565,-520.5 1323.7565,-520.5 1317.7565,-514.5 1317.7565,-508.5 1317.7565,-508.5 1317.7565,-450.5 1317.7565,-450.5 1317.7565,-444.5 1323.7565,-438.5 1329.7565,-438.5"/>
<polygon fill="none" stroke="#cccccc" stroke-opacity="0.200000" points="1328.7565,-479.5 1328.7565,-513.5 1466.7565,-513.5 1466.7565,-479.5 1328.7565,-479.5"/>
<text text-anchor="start" x="1336.8961" y="-499.3" font-family="Times,serif" font-size="14.00" fill="#000000">moul/depviz#19: Add</text>
<text text-anchor="start" x="1331.653" y="-485.3" font-family="Times,serif" font-size="14.00" fill="#000000">a logo in the README</text>
<polygon fill="none" stroke="#cccccc" stroke-opacity="0.200000" points="1328.7565,-445.5 1328.7565,-477.5 1466.7565,-477.5 1466.7565,-445.5 1328.7565,-445.5"/>
<polygon fill="#a2eeef" stroke="transparent" points="1334.7565,-451.5 1334.7565,-471.5 1460.7565,-471.5 1460.7565,-451.5 1334.7565,-451.5"/>
<polygon fill="none" stroke="#cccccc" stroke-opacity="0.200000" points="1334.7565,-451.5 1334.7565,-471.5 1460.7565,-471.5 1460.7565,-451.5 1334.7565,-451.5"/>
<text text-anchor="start" x="1360.8322" y="-457.3" font-family="Times,serif" font-size="14.00" fill="#000000">enhancement</text>
<polygon fill="none" stroke="#cccccc" stroke-opacity="0.200000" points="1331.7565,-448.5 1331.7565,-474.5 1463.7565,-474.5 1463.7565,-448.5 1331.7565,-448.5"/>
<polygon fill="none" stroke="#cccccc" stroke-opacity="0.200000" points="1325.7565,-442.5 1325.7565,-516.5 1469.7565,-516.5 1469.7565,-442.5 1325.7565,-442.5"/>
</a>
</g>
</g>
<!-- moul/depviz#10&#45;&gt;moul/depviz#19 -->
<g id="edge11" class="edge">
<title>moul/depviz#10&#45;&gt;moul/depviz#19</title>
<path fill="none" stroke="#ffa500" stroke-dasharray="5,2" d="M1507.3026,-494.1338C1497.5851,-492.8357 1487.7023,-491.5155 1478.0501,-490.2261"/>
</g>
<!-- moul/depviz#2 -->
<g id="node20" class="node">
<title>moul/depviz#2</title>
<g id="a_node20"><a xlink:href="https://github.com/moul/depviz/issues/2" xlink:title="&lt;table&gt;&lt;tr&gt;&lt;td&gt;moul/depviz#2: Setup&lt;br/&gt;CI&lt;/td&gt;&lt;/tr&gt;&lt;tr&gt;&lt;td&gt;&lt;table&gt;&lt;tr&gt;&lt;td bgcolor=&quot;#a2eeef&quot;&gt;enhancement&lt;/td&gt;&lt;/tr&gt;&lt;/table&gt;&lt;/td&gt;&lt;/tr&gt;&lt;/table&gt;">
<path fill="#cccccc" fill-opacity="0.200000" stroke="#cccccc" stroke-opacity="0.200000" d="M176,-471.5C176,-471.5 303,-471.5 303,-471.5 309,-471.5 315,-477.5 315,-483.5 315,-483.5 315,-541.5 315,-541.5 315,-547.5 309,-553.5 303,-553.5 303,-553.5 176,-553.5 176,-553.5 170,-553.5 164,-547.5 164,-541.5 164,-541.5 164,-483.5 164,-483.5 164,-477.5 170,-471.5 176,-471.5"/>
<polygon fill="none" stroke="#cccccc" stroke-opacity="0.200000" points="175.5,-512.5 175.5,-546.5 304.5,-546.5 304.5,-512.5 175.5,-512.5"/>
<text text-anchor="start" x="178.3672" y="-532.3" font-family="Times,serif" font-size="14.00" fill="#000000">moul/depviz#2: Setup</text>
<text text-anchor="start" x="233" y="-518.3" font-family="Times,serif" font-size="14.00" fill="#000000">CI</text>
<polygon fill="none" stroke="#cccccc" stroke-opacity="0.200000" points="175.5,-478.5 175.5,-510.5 304.5,-510.5 304.5,-478.5 175.5,-478.5"/>
<polygon fill="#a2eeef" stroke="transparent" points="181.5,-484.5 181.5,-504.5 298.5,-504.5 298.5,-484.5 181.5,-484.5"/>
<polygon fill="none" stroke="#cccccc" stroke-opacity="0.200000" points="181.5,-484.5 181.5,-504.5 298.5,-504.5 298.5,-484.5 181.5,-484.5"/>
<text text-anchor="start" x="203.0757" y="-490.3" font-family="Times,serif" font-size="14.00" fill="#000000">enhancement</text>
<polygon fill="none" stroke="#cccccc" stroke-opacity="0.200000" points="178.5,-481.5 178.5,-507.5 301.5,-507.5 301.5,-481.5 178.5,-481.5"/>
<polygon fill="none" stroke="#cccccc" stroke-opacity="0.200000" points="172,-475.5 172,-549.5 307,-549.5 307,-475.5 172,-475.5"/>
</a>
</g>
</g>
<!-- moul/depviz#18&#45;&gt;moul/depviz#2 -->
<g id="edge18" class="edge">
<title>moul/depviz#18&#45;&gt;moul/depviz#2</title>
<path fill="none" stroke="#c0c0c0" stroke-dasharray="1,5" d="M336.8087,-527.2095C329.6466,-526.1268 322.3779,-525.0281 315.2062,-523.944"/>
</g>
<!-- moul/depviz#36 -->
<g id="node14" class="node">
<title>moul/depviz#36</title>
<g id="a_node14"><a xlink:href="https://github.com/moul/depviz/issues/36" xlink:title="&lt;TABLE&gt;">
<ellipse fill="#ffa500" stroke="#ffa500" stroke-width="2" cx="1592.3875" cy="-753.5" rx="92.7622" ry="67.7647"/>
<polygon fill="none" stroke="#ffa500" points="1538.3875,-746.5 1538.3875,-794.5 1647.3875,-794.5 1647.3875,-746.5 1538.3875,-746.5"/>
<text text-anchor="start" x="1545.4495" y="-780.3" font-family="Times,serif" font-size="14.00" fill="#000000">moul/depviz#36:</text>
<text text-anchor="start" x="1540.9378" y="-766.3" font-family="Times,serif" font-size="14.00" fill="#000000">DepViz has &quot;cool&quot;</text>
<text text-anchor="start" x="1570.7356" y="-752.3" font-family="Times,serif" font-size="14.00" fill="#000000">features</text>
<polygon fill="none" stroke="#ffa500" points="1538.3875,-712.5 1538.3875,-744.5 1647.3875,-744.5 1647.3875,-712.5 1538.3875,-712.5"/>
<polygon fill="#cc00d9" stroke="transparent" points="1544.3875,-718.5 1544.3875,-738.5 1641.3875,-738.5 1641.3875,-718.5 1544.3875,-718.5"/>
<polygon fill="none" stroke="#ffa500" points="1544.3875,-718.5 1544.3875,-738.5 1641.3875,-738.5 1641.3875,-718.5 1544.3875,-718.5"/>
<text text-anchor="start" x="1581.2288" y="-724.3" font-family="Times,serif" font-size="14.00" fill="#000000">epic</text>
<polygon fill="none" stroke="#ffa500" points="1541.3875,-715.5 1541.3875,-741.5 1644.3875,-741.5 1644.3875,-715.5 1541.3875,-715.5"/>
<polygon fill="none" stroke="#ffa500" points="1534.8875,-709.5 1534.8875,-797.5 1649.8875,-797.5 1649.8875,-709.5 1534.8875,-709.5"/>
</a>
</g>
</g>
<!-- moul/depviz#34 -->
<g id="node15" class="node">
<title>moul/depviz#34</title>
<g id="a_node15"><a xlink:href="https://github.com/moul/depviz/issues/34" xlink:title="&lt;table&gt;&lt;tr&gt;&lt;td&gt;moul/depviz#34: Add&lt;br/&gt;a warn when two&lt;br/&gt;issues &amp;#34;fixes&amp;#34; the&lt;br/&gt;same one&lt;/td&gt;&lt;/tr&gt;&lt;/table&gt;">
<path fill="#ffc0cb" stroke="#ffc0cb" d="M1335.2565,-753.5C1335.2565,-753.5 1460.2565,-753.5 1460.2565,-753.5 1466.2565,-753.5 1472.2565,-759.5 1472.2565,-765.5 1472.2565,-765.5 1472.2565,-817.5 1472.2565,-817.5 1472.2565,-823.5 1466.2565,-829.5 1460.2565,-829.5 1460.2565,-829.5 1335.2565,-829.5 1335.2565,-829.5 1329.2565,-829.5 1323.2565,-823.5 1323.2565,-817.5 1323.2565,-817.5 1323.2565,-765.5 1323.2565,-765.5 1323.2565,-759.5 1329.2565,-753.5 1335.2565,-753.5"/>
<polygon fill="none" stroke="#ffc0cb" points="1334.7565,-760.5 1334.7565,-822.5 1461.7565,-822.5 1461.7565,-760.5 1334.7565,-760.5"/>
<text text-anchor="start" x="1337.3961" y="-808.3" font-family="Times,serif" font-size="14.00" fill="#000000">moul/depviz#34: Add</text>
<text text-anchor="start" x="1350.2443" y="-794.3" font-family="Times,serif" font-size="14.00" fill="#000000">a warn when two</text>
<text text-anchor="start" x="1350.5416" y="-780.3" font-family="Times,serif" font-size="14.00" fill="#000000">issues &quot;fixes&quot; the</text>
<text text-anchor="start" x="1372.0167" y="-766.3" font-family="Times,serif" font-size="14.00" fill="#000000">same one</text>
<polygon fill="none" stroke="#ffc0cb" points="1331.2565,-757.5 1331.2565,-825.5 1464.2565,-825.5 1464.2565,-757.5 1331.2565,-757.5"/>
</a>
</g>
</g>
<!-- moul/depviz#36&#45;&gt;moul/depviz#34 -->
<g id="edge12" class="edge">
<title>moul/depviz#36&#45;&gt;moul/depviz#34</title>
<path fill="none" stroke="#ffa500" stroke-dasharray="5,2" d="M1502.7627,-770.9985C1492.5863,-772.9853 1482.2971,-774.9942 1472.3439,-776.9375"/>
</g>
<!-- moul/depviz#35 -->
<g id="node16" class="node">
<title>moul/depviz#35</title>
<g id="a_node16"><a xlink:href="https://github.com/moul/depviz/issues/35" xlink:title="&lt;table&gt;&lt;tr&gt;&lt;td&gt;moul/depviz#35:&lt;br/&gt;Support PRs&lt;/td&gt;&lt;/tr&gt;&lt;/table&gt;">
<path fill="#ffc0cb" stroke="#ffc0cb" d="M1348.7565,-697.5C1348.7565,-697.5 1446.7565,-697.5 1446.7565,-697.5 1452.7565,-697.5 1458.7565,-703.5 1458.7565,-709.5 1458.7565,-709.5 1458.7565,-733.5 1458.7565,-733.5 1458.7565,-739.5 1452.7565,-745.5 1446.7565,-745.5 1446.7565,-745.5 1348.7565,-745.5 1348.7565,-745.5 1342.7565,-745.5 1336.7565,-739.5 1336.7565,-733.5 1336.7565,-733.5 1336.7565,-709.5 1336.7565,-709.5 1336.7565,-703.5 1342.7565,-697.5 1348.7565,-697.5"/>
<polygon fill="none" stroke="#ffc0cb" points="1347.7565,-704.5 1347.7565,-738.5 1447.7565,-738.5 1447.7565,-704.5 1347.7565,-704.5"/>
<text text-anchor="start" x="1350.3185" y="-724.3" font-family="Times,serif" font-size="14.00" fill="#000000">moul/depviz#35:</text>
<text text-anchor="start" x="1362.5514" y="-710.3" font-family="Times,serif" font-size="14.00" fill="#000000">Support PRs</text>
<polygon fill="none" stroke="#ffc0cb" points="1344.7565,-701.5 1344.7565,-741.5 1450.7565,-741.5 1450.7565,-701.5 1344.7565,-701.5"/>
</a>
</g>
</g>
<!-- moul/depviz#36&#45;&gt;moul/depviz#35 -->
<g id="edge13" class="edge">
<title>moul/depviz#36&#45;&gt;moul/depviz#35</title>
<path fill="none" stroke="#ffa500" stroke-dasharray="5,2" d="M1501.9095,-738.6242C1487.3167,-736.2249 1472.5178,-733.7918 1458.8341,-731.542"/>
</g>
<!-- moul/depviz#13 -->
<g id="node17" class="node">
<title>moul/depviz#13</title>
<g id="a_node17"><a xlink:href="https://github.com/moul/depviz/issues/13" xlink:title="&lt;TABLE&gt;">
<ellipse fill="#ffa500" stroke="#ffa500" stroke-width="2" cx="1198.1758" cy="-104.5" rx="97.6615" ry="67.7647"/>
<polygon fill="none" stroke="#ffa500" points="1140.1758,-97.5 1140.1758,-145.5 1256.1758,-145.5 1256.1758,-97.5 1140.1758,-97.5"/>
<text text-anchor="start" x="1146.6567" y="-131.3" font-family="Times,serif" font-size="14.00" fill="#000000">moul/depviz#13: I</text>
<text text-anchor="start" x="1149.7773" y="-117.3" font-family="Times,serif" font-size="14.00" fill="#000000">can use depviz to</text>
<text text-anchor="start" x="1142.7739" y="-103.3" font-family="Times,serif" font-size="14.00" fill="#000000">plan all my projects</text>
<polygon fill="none" stroke="#ffa500" points="1140.1758,-63.5 1140.1758,-95.5 1256.1758,-95.5 1256.1758,-63.5 1140.1758,-63.5"/>
<polygon fill="#cc00d9" stroke="transparent" points="1146.1758,-69.5 1146.1758,-89.5 1250.1758,-89.5 1250.1758,-69.5 1146.1758,-69.5"/>
<polygon fill="none" stroke="#ffa500" points="1146.1758,-69.5 1146.1758,-89.5 1250.1758,-89.5 1250.1758,-69.5 1146.1758,-69.5"/>
<text text-anchor="start" x="1186.5171" y="-75.3" font-family="Times,serif" font-size="14.00" fill="#000000">epic</text>
<polygon fill="none" stroke="#ffa500" points="1143.1758,-66.5 1143.1758,-92.5 1253.1758,-92.5 1253.1758,-66.5 1143.1758,-66.5"/>
<polygon fill="none" stroke="#ffa500" points="1137.1758,-60.5 1137.1758,-148.5 1259.1758,-148.5 1259.1758,-60.5 1137.1758,-60.5"/>
</a>
</g>
</g>
<!-- moul/depviz#13&#45;&gt;moul/depviz#12 -->
<g id="edge14" class="edge">
<title>moul/depviz#13&#45;&gt;moul/depviz#12</title>
<path fill="none" stroke="#ffa500" stroke-dasharray="5,2" d="M1100.4594,-104.5C1093.2934,-104.5 1086.0492,-104.5 1078.847,-104.5"/>
</g>
<!-- moul/depviz#11 -->
<g id="node18" class="node">
<title>moul/depviz#11</title>
<g id="a_node18"><a xlink:href="https://github.com/moul/depviz/issues/11" xlink:title="&lt;TABLE&gt;">
<ellipse fill="#ffa500" stroke="#ffa500" stroke-width="2" cx="1810.9632" cy="-648.5" rx="103.8894" ry="77.5641"/>
<polygon fill="none" stroke="#ffa500" points="1748.9632,-634.5 1748.9632,-696.5 1873.9632,-696.5 1873.9632,-634.5 1748.9632,-634.5"/>
<text text-anchor="start" x="1764.2815" y="-682.3" font-family="Times,serif" font-size="14.00" fill="#000000">moul/depviz#11:</text>
<text text-anchor="start" x="1757.032" y="-668.3" font-family="Times,serif" font-size="14.00" fill="#000000">depviz is pluggable</text>
<text text-anchor="start" x="1751.5769" y="-654.3" font-family="Times,serif" font-size="14.00" fill="#000000">with other workflows</text>
<text text-anchor="start" x="1785.5994" y="-640.3" font-family="Times,serif" font-size="14.00" fill="#000000">/ systems</text>
<polygon fill="none" stroke="#ffa500" points="1748.9632,-600.5 1748.9632,-632.5 1873.9632,-632.5 1873.9632,-600.5 1748.9632,-600.5"/>
<polygon fill="#cc00d9" stroke="transparent" points="1754.9632,-606.5 1754.9632,-626.5 1867.9632,-626.5 1867.9632,-606.5 1754.9632,-606.5"/>
<polygon fill="none" stroke="#ffa500" points="1754.9632,-606.5 1754.9632,-626.5 1867.9632,-626.5 1867.9632,-606.5 1754.9632,-606.5"/>
<text text-anchor="start" x="1799.8045" y="-612.3" font-family="Times,serif" font-size="14.00" fill="#000000">epic</text>
<polygon fill="none" stroke="#ffa500" points="1751.9632,-603.5 1751.9632,-629.5 1870.9632,-629.5 1870.9632,-603.5 1751.9632,-603.5"/>
<polygon fill="none" stroke="#ffa500" points="1745.4632,-597.5 1745.4632,-699.5 1876.4632,-699.5 1876.4632,-597.5 1745.4632,-597.5"/>
</a>
</g>
</g>
<!-- moul/depviz#11&#45;&gt;moul/depviz#5 -->
<g id="edge15" class="edge">
<title>moul/depviz#11&#45;&gt;moul/depviz#5</title>
<path fill="none" stroke="#ffa500" stroke-dasharray="5,2" d="M1709.0012,-664.0777C1700.8992,-665.0084 1692.8313,-665.8351 1685.0185,-666.5 1557.757,-677.3306 1525.478,-674.5 1397.7565,-674.5 1397.7565,-674.5 1397.7565,-674.5 411.5,-674.5 299.0654,-674.5 184.2345,-601.583 120.8301,-553.5889"/>
</g>
<!-- moul/depviz#4 -->
<g id="node19" class="node">
<title>moul/depviz#4</title>
<g id="a_node19"><a xlink:href="https://github.com/moul/depviz/issues/4" xlink:title="&lt;table&gt;&lt;tr&gt;&lt;td&gt;moul/depviz#4:&lt;br/&gt;Export to OPML&lt;/td&gt;&lt;/tr&gt;&lt;tr&gt;&lt;td&gt;&lt;table&gt;&lt;tr&gt;&lt;td bgcolor=&quot;#a2eeef&quot;&gt;enhancement&lt;/td&gt;&lt;/tr&gt;&lt;/table&gt;&lt;/td&gt;&lt;/tr&gt;&lt;/table&gt;">
<path fill="#ffc0cb" stroke="#ffc0cb" d="M1543.3875,-580.5C1543.3875,-580.5 1641.3875,-580.5 1641.3875,-580.5 1647.3875,-580.5 1653.3875,-586.5 1653.3875,-592.5 1653.3875,-592.5 1653.3875,-650.5 1653.3875,-650.5 1653.3875,-656.5 1647.3875,-662.5 1641.3875,-662.5 1641.3875,-662.5 1543.3875,-662.5 1543.3875,-662.5 1537.3875,-662.5 1531.3875,-656.5 1531.3875,-650.5 1531.3875,-650.5 1531.3875,-592.5 1531.3875,-592.5 1531.3875,-586.5 1537.3875,-580.5 1543.3875,-580.5"/>
<polygon fill="none" stroke="#ffc0cb" points="1542.3875,-621.5 1542.3875,-655.5 1642.3875,-655.5 1642.3875,-621.5 1542.3875,-621.5"/>
<text text-anchor="start" x="1548.4495" y="-641.3" font-family="Times,serif" font-size="14.00" fill="#000000">moul/depviz#4:</text>
<text text-anchor="start" x="1544.9427" y="-627.3" font-family="Times,serif" font-size="14.00" fill="#000000">Export to OPML</text>
<polygon fill="none" stroke="#ffc0cb" points="1542.3875,-587.5 1542.3875,-619.5 1642.3875,-619.5 1642.3875,-587.5 1542.3875,-587.5"/>
<polygon fill="#a2eeef" stroke="transparent" points="1548.3875,-593.5 1548.3875,-613.5 1636.3875,-613.5 1636.3875,-593.5 1548.3875,-593.5"/>
<polygon fill="none" stroke="#ffc0cb" points="1548.3875,-593.5 1548.3875,-613.5 1636.3875,-613.5 1636.3875,-593.5 1548.3875,-593.5"/>
<text text-anchor="start" x="1555.4632" y="-599.3" font-family="Times,serif" font-size="14.00" fill="#000000">enhancement</text>
<polygon fill="none" stroke="#ffc0cb" points="1545.3875,-590.5 1545.3875,-616.5 1639.3875,-616.5 1639.3875,-590.5 1545.3875,-590.5"/>
<polygon fill="none" stroke="#ffc0cb" points="1539.3875,-584.5 1539.3875,-658.5 1645.3875,-658.5 1645.3875,-584.5 1539.3875,-584.5"/>
</a>
</g>
</g>
<!-- moul/depviz#11&#45;&gt;moul/depviz#4 -->
<g id="edge16" class="edge">
<title>moul/depviz#11&#45;&gt;moul/depviz#4</title>
<path fill="none" stroke="#ffa500" stroke-dasharray="5,2" d="M1708.3953,-635.8301C1689.6504,-633.5146 1670.6408,-631.1664 1653.5835,-629.0594"/>
</g>
<!-- moul/depviz#2&#45;&gt;moul/depviz#5 -->
<g id="edge17" class="edge">
<title>moul/depviz#2&#45;&gt;moul/depviz#5</title>
<path fill="none" stroke="#c0c0c0" stroke-dasharray="1,5" d="M163.6298,-512.5C156.4669,-512.5 149.2224,-512.5 142.1062,-512.5"/>
</g>
<!-- moul/depviz#9 -->
<g id="node21" class="node">
<title>moul/depviz#9</title>
<g id="a_node21"><a xlink:href="https://github.com/moul/depviz/issues/9" xlink:title="&lt;TABLE&gt;">
<ellipse fill="#ffa500" stroke="#ffa500" stroke-width="2" cx="974.6503" cy="-444.5" rx="84.7059" ry="67.7647"/>
<polygon fill="none" stroke="#ffa500" points="925.6503,-437.5 925.6503,-485.5 1023.6503,-485.5 1023.6503,-437.5 925.6503,-437.5"/>
<text text-anchor="start" x="930.7123" y="-471.3" font-family="Times,serif" font-size="14.00" fill="#000000">moul/depviz#9:</text>
<text text-anchor="start" x="928.1899" y="-457.3" font-family="Times,serif" font-size="14.00" fill="#000000">depviz is easy to</text>
<text text-anchor="start" x="961.4365" y="-443.3" font-family="Times,serif" font-size="14.00" fill="#000000">hack</text>
<polygon fill="none" stroke="#ffa500" points="925.6503,-403.5 925.6503,-435.5 1023.6503,-435.5 1023.6503,-403.5 925.6503,-403.5"/>
<polygon fill="#cc00d9" stroke="transparent" points="931.6503,-409.5 931.6503,-429.5 1017.6503,-429.5 1017.6503,-409.5 931.6503,-409.5"/>
<polygon fill="none" stroke="#ffa500" points="931.6503,-409.5 931.6503,-429.5 1017.6503,-429.5 1017.6503,-409.5 931.6503,-409.5"/>
<text text-anchor="start" x="962.9916" y="-415.3" font-family="Times,serif" font-size="14.00" fill="#000000">epic</text>
<polygon fill="none" stroke="#ffa500" points="928.6503,-406.5 928.6503,-432.5 1020.6503,-432.5 1020.6503,-406.5 928.6503,-406.5"/>
<polygon fill="none" stroke="#ffa500" points="922.6503,-400.5 922.6503,-488.5 1026.6503,-488.5 1026.6503,-400.5 922.6503,-400.5"/>
</a>
</g>
</g>
<!-- moul/depviz#9&#45;&gt;moul/depviz#18 -->
<g id="edge21" class="edge">
<title>moul/depviz#9&#45;&gt;moul/depviz#18</title>
<path fill="none" stroke="#ffa500" stroke-dasharray="5,2" d="M898.9576,-475.4938C882.6062,-481.2403 865.2544,-486.6395 848.7056,-490.5 700.3732,-525.1028 659.3804,-510.6524 508,-527.5 500.8776,-528.2927 493.4605,-529.1253 486.0427,-529.9628"/>
</g>
<!-- moul/depviz#9&#45;&gt;moul/depviz#2 -->
<g id="edge19" class="edge">
<title>moul/depviz#9&#45;&gt;moul/depviz#2</title>
<path fill="none" stroke="#ffa500" stroke-dasharray="5,2" d="M894.917,-468.2718C879.6988,-471.9868 863.8056,-475.3142 848.7056,-477.5 623.5169,-510.0976 563.1138,-468.1012 337,-493.5 329.8878,-494.2989 322.5193,-495.3381 315.1645,-496.5187"/>
</g>
<!-- moul/depviz#33 -->
<g id="node22" class="node">
<title>moul/depviz#33</title>
<g id="a_node22"><a xlink:href="https://github.com/moul/depviz/issues/33" xlink:title="&lt;table&gt;&lt;tr&gt;&lt;td&gt;moul/depviz#33: Use&lt;br/&gt;a database to store&lt;br/&gt;issues in a smarter&lt;br/&gt;way&lt;/td&gt;&lt;/tr&gt;&lt;/table&gt;">
<path fill="#ffc0cb" stroke="#ffc0cb" d="M701.8528,-397.5C701.8528,-397.5 825.8528,-397.5 825.8528,-397.5 831.8528,-397.5 837.8528,-403.5 837.8528,-409.5 837.8528,-409.5 837.8528,-461.5 837.8528,-461.5 837.8528,-467.5 831.8528,-473.5 825.8528,-473.5 825.8528,-473.5 701.8528,-473.5 701.8528,-473.5 695.8528,-473.5 689.8528,-467.5 689.8528,-461.5 689.8528,-461.5 689.8528,-409.5 689.8528,-409.5 689.8528,-403.5 695.8528,-397.5 701.8528,-397.5"/>
<polygon fill="none" stroke="#ffc0cb" points="700.8528,-404.5 700.8528,-466.5 826.8528,-466.5 826.8528,-404.5 700.8528,-404.5"/>
<text text-anchor="start" x="703.7786" y="-452.3" font-family="Times,serif" font-size="14.00" fill="#000000">moul/depviz#33: Use</text>
<text text-anchor="start" x="712.3474" y="-438.3" font-family="Times,serif" font-size="14.00" fill="#000000">a database to store</text>
<text text-anchor="start" x="712.3372" y="-424.3" font-family="Times,serif" font-size="14.00" fill="#000000">issues in a smarter</text>
<text text-anchor="start" x="752.1907" y="-410.3" font-family="Times,serif" font-size="14.00" fill="#000000">way</text>
<polygon fill="none" stroke="#ffc0cb" points="697.8528,-401.5 697.8528,-469.5 829.8528,-469.5 829.8528,-401.5 697.8528,-401.5"/>
</a>
</g>
</g>
<!-- moul/depviz#9&#45;&gt;moul/depviz#33 -->
<g id="edge20" class="edge">
<title>moul/depviz#9&#45;&gt;moul/depviz#33</title>
<path fill="none" stroke="#ffa500" stroke-dasharray="5,2" d="M889.8221,-440.8783C872.6614,-440.1456 854.7438,-439.3806 837.9857,-438.6651"/>
</g>
<!-- moul/depviz#22 -->
<g id="node23" class="node">
<title>moul/depviz#22</title>
<g id="a_node23"><a xlink:href="https://github.com/moul/depviz/issues/22" xlink:title="&lt;table&gt;&lt;tr&gt;&lt;td&gt;moul/depviz#22: Add&lt;br/&gt;a license&lt;/td&gt;&lt;/tr&gt;&lt;/table&gt;">
<path fill="#cccccc" fill-opacity="0.200000" stroke="#cccccc" stroke-opacity="0.200000" d="M701.3528,-341.5C701.3528,-341.5 826.3528,-341.5 826.3528,-341.5 832.3528,-341.5 838.3528,-347.5 838.3528,-353.5 838.3528,-353.5 838.3528,-377.5 838.3528,-377.5 838.3528,-383.5 832.3528,-389.5 826.3528,-389.5 826.3528,-389.5 701.3528,-389.5 701.3528,-389.5 695.3528,-389.5 689.3528,-383.5 689.3528,-377.5 689.3528,-377.5 689.3528,-353.5 689.3528,-353.5 689.3528,-347.5 695.3528,-341.5 701.3528,-341.5"/>
<polygon fill="none" stroke="#cccccc" stroke-opacity="0.200000" points="700.8528,-348.5 700.8528,-382.5 827.8528,-382.5 827.8528,-348.5 700.8528,-348.5"/>
<text text-anchor="start" x="703.4925" y="-368.3" font-family="Times,serif" font-size="14.00" fill="#000000">moul/depviz#22: Add</text>
<text text-anchor="start" x="740.0613" y="-354.3" font-family="Times,serif" font-size="14.00" fill="#000000">a license</text>
<polygon fill="none" stroke="#cccccc" stroke-opacity="0.200000" points="697.3528,-345.5 697.3528,-385.5 830.3528,-385.5 830.3528,-345.5 697.3528,-345.5"/>
</a>
</g>
</g>
<!-- moul/depviz#9&#45;&gt;moul/depviz#22 -->
<g id="edge22" class="edge">
<title>moul/depviz#9&#45;&gt;moul/depviz#22</title>
<path fill="none" stroke="#ffa500" stroke-dasharray="5,2" d="M899.3758,-413.0746C882.7664,-406.4051 865.2042,-399.5551 848.7056,-393.5 845.2105,-392.2173 841.625,-390.929 837.9967,-389.6474"/>
</g>
<!-- placeholder_1 -->
<g id="node24" class="node">
<title>placeholder_1</title>
<text text-anchor="middle" x="1810.9632" y="-862.3" font-family="Times,serif" font-size="14.00" fill="#000000">weight=1</text>
</g>
<!-- placeholder_2 -->
<g id="node25" class="node">
<title>placeholder_2</title>
<text text-anchor="middle" x="1592.3875" y="-862.3" font-family="Times,serif" font-size="14.00" fill="#000000">weight=2</text>
</g>
<!-- placeholder_1&#45;&gt;placeholder_2 -->
<!-- placeholder_3 -->
<g id="node26" class="node">
<title>placeholder_3</title>
<text text-anchor="middle" x="1397.7565" y="-862.3" font-family="Times,serif" font-size="14.00" fill="#000000">weight=3</text>
</g>
<!-- placeholder_2&#45;&gt;placeholder_3 -->
<!-- placeholder_4 -->
<g id="node27" class="node">
<title>placeholder_4</title>
<text text-anchor="middle" x="1198.1758" y="-862.3" font-family="Times,serif" font-size="14.00" fill="#000000">weight=4</text>
</g>
<!-- placeholder_3&#45;&gt;placeholder_4 -->
<!-- placeholder_5 -->
<g id="node28" class="node">
<title>placeholder_5</title>
<text text-anchor="middle" x="974.6503" y="-862.3" font-family="Times,serif" font-size="14.00" fill="#000000">weight=5</text>
</g>
<!-- placeholder_4&#45;&gt;placeholder_5 -->
<!-- placeholder_6 -->
<g id="node29" class="node">
<title>placeholder_6</title>
<text text-anchor="middle" x="763.8528" y="-862.3" font-family="Times,serif" font-size="14.00" fill="#000000">weight=6</text>
</g>
<!-- placeholder_5&#45;&gt;placeholder_6 -->
<!-- placeholder_7 -->
<g id="node30" class="node">
<title>placeholder_7</title>
<text text-anchor="middle" x="582.5" y="-862.3" font-family="Times,serif" font-size="14.00" fill="#000000">weight=7</text>
</g>
<!-- placeholder_6&#45;&gt;placeholder_7 -->
<!-- placeholder_8 -->
<g id="node31" class="node">
<title>placeholder_8</title>
<text text-anchor="middle" x="411.5" y="-862.3" font-family="Times,serif" font-size="14.00" fill="#000000">weight=8</text>
</g>
<!-- placeholder_7&#45;&gt;placeholder_8 -->
<!-- placeholder_14 -->
<g id="node32" class="node">
<title>placeholder_14</title>
<text text-anchor="middle" x="239.5" y="-862.3" font-family="Times,serif" font-size="14.00" fill="#000000">weight=14</text>
</g>
<!-- placeholder_8&#45;&gt;placeholder_14 -->
<!-- placeholder_22 -->
<g id="node33" class="node">
<title>placeholder_22</title>
<text text-anchor="middle" x="71" y="-862.3" font-family="Times,serif" font-size="14.00" fill="#000000">weight=22</text>
</g>
<!-- placeholder_14&#45;&gt;placeholder_22 -->
</g>
</svg>
