<?xml version="1.0" encoding="UTF-8" standalone="no"?>
<!DOCTYPE svg PUBLIC "-//W3C//DTD SVG 1.1//EN"
 "http://www.w3.org/Graphics/SVG/1.1/DTD/svg11.dtd">
<!-- Generated by graphviz version 2.40.1 (20161225.0304)
 -->
<!-- Title: G Pages: 1 -->
<svg width="853pt" height="665pt"
 viewBox="14.40 14.40 838.78 650.18" xmlns="http://www.w3.org/2000/svg" xmlns:xlink="http://www.w3.org/1999/xlink">
<g id="graph0" class="graph" transform="scale(1 1) rotate(0) translate(18.4 646.1817)">
<title>G</title>
<polygon fill="#ffffff" stroke="transparent" points="-4,4 -4,-631.7817 820.3839,-631.7817 820.3839,4 -4,4"/>
<!-- moul/depviz#11 -->
<g id="node1" class="node">
<title>moul/depviz#11</title>
<ellipse fill="#ffa500" stroke="#ffa500" stroke-width="2" cx="712.4392" cy="-77.7817" rx="103.8894" ry="77.5641"/>
<polygon fill="none" stroke="#ffa500" points="650.4392,-63.7817 650.4392,-125.7817 775.4392,-125.7817 775.4392,-63.7817 650.4392,-63.7817"/>
<text text-anchor="start" x="660.0427" y="-111.5817" font-family="Times,serif" font-size="14.00" fill="#000000">&quot;moul/depviz#11&quot;:</text>
<text text-anchor="start" x="658.5081" y="-97.5817" font-family="Times,serif" font-size="14.00" fill="#000000">depviz is pluggable</text>
<text text-anchor="start" x="653.053" y="-83.5817" font-family="Times,serif" font-size="14.00" fill="#000000">with other workflows</text>
<text text-anchor="start" x="687.0754" y="-69.5817" font-family="Times,serif" font-size="14.00" fill="#000000">/ systems</text>
<polygon fill="none" stroke="#ffa500" points="650.4392,-29.7817 650.4392,-61.7817 775.4392,-61.7817 775.4392,-29.7817 650.4392,-29.7817"/>
<polygon fill="#cc00d9" stroke="transparent" points="656.4392,-35.7817 656.4392,-55.7817 769.4392,-55.7817 769.4392,-35.7817 656.4392,-35.7817"/>
<polygon fill="none" stroke="#ffa500" points="656.4392,-35.7817 656.4392,-55.7817 769.4392,-55.7817 769.4392,-35.7817 656.4392,-35.7817"/>
<text text-anchor="start" x="701.2805" y="-41.5817" font-family="Times,serif" font-size="14.00" fill="#000000">epic</text>
<polygon fill="none" stroke="#ffa500" points="653.4392,-32.7817 653.4392,-58.7817 772.4392,-58.7817 772.4392,-32.7817 653.4392,-32.7817"/>
<polygon fill="none" stroke="#ffa500" points="646.9392,-26.7817 646.9392,-128.7817 777.9392,-128.7817 777.9392,-26.7817 646.9392,-26.7817"/>
</g>
<!-- moul/depviz#4 -->
<g id="node2" class="node">
<title>moul/depviz#4</title>
<path fill="#ffc0cb" stroke="#ffc0cb" d="M431.0498,-36.7817C431.0498,-36.7817 534.0498,-36.7817 534.0498,-36.7817 540.0498,-36.7817 546.0498,-42.7817 546.0498,-48.7817 546.0498,-48.7817 546.0498,-106.7817 546.0498,-106.7817 546.0498,-112.7817 540.0498,-118.7817 534.0498,-118.7817 534.0498,-118.7817 431.0498,-118.7817 431.0498,-118.7817 425.0498,-118.7817 419.0498,-112.7817 419.0498,-106.7817 419.0498,-106.7817 419.0498,-48.7817 419.0498,-48.7817 419.0498,-42.7817 425.0498,-36.7817 431.0498,-36.7817"/>
<polygon fill="none" stroke="#ffc0cb" points="430.5498,-77.7817 430.5498,-111.7817 535.5498,-111.7817 535.5498,-77.7817 430.5498,-77.7817"/>
<text text-anchor="start" x="433.397" y="-97.5817" font-family="Times,serif" font-size="14.00" fill="#000000">&quot;moul/depviz#4&quot;:</text>
<text text-anchor="start" x="435.605" y="-83.5817" font-family="Times,serif" font-size="14.00" fill="#000000">Export to OPML</text>
<polygon fill="none" stroke="#ffc0cb" points="430.5498,-43.7817 430.5498,-75.7817 535.5498,-75.7817 535.5498,-43.7817 430.5498,-43.7817"/>
<polygon fill="#a2eeef" stroke="transparent" points="436.5498,-49.7817 436.5498,-69.7817 529.5498,-69.7817 529.5498,-49.7817 436.5498,-49.7817"/>
<polygon fill="none" stroke="#ffc0cb" points="436.5498,-49.7817 436.5498,-69.7817 529.5498,-69.7817 529.5498,-49.7817 436.5498,-49.7817"/>
<text text-anchor="start" x="446.1255" y="-55.5817" font-family="Times,serif" font-size="14.00" fill="#000000">enhancement</text>
<polygon fill="none" stroke="#ffc0cb" points="433.5498,-46.7817 433.5498,-72.7817 532.5498,-72.7817 532.5498,-46.7817 433.5498,-46.7817"/>
<polygon fill="none" stroke="#ffc0cb" points="427.0498,-40.7817 427.0498,-114.7817 538.0498,-114.7817 538.0498,-40.7817 427.0498,-40.7817"/>
</g>
<!-- moul/depviz#11&#45;&gt;moul/depviz#4 -->
<g id="edge1" class="edge">
<title>moul/depviz#11&#45;&gt;moul/depviz#4</title>
<path fill="none" stroke="#ffa500" stroke-dasharray="5,2" d="M608.2566,-77.7817C587.1101,-77.7817 565.4735,-77.7817 546.2434,-77.7817"/>
</g>
<!-- moul/depviz#8 -->
<g id="node3" class="node">
<title>moul/depviz#8</title>
<ellipse fill="#ffa500" stroke="#ffa500" stroke-width="2" cx="266.8026" cy="-230.7817" rx="89.6056" ry="67.7647"/>
<polygon fill="none" stroke="#ffa500" points="214.8026,-223.7817 214.8026,-271.7817 319.8026,-271.7817 319.8026,-223.7817 214.8026,-223.7817"/>
<text text-anchor="start" x="217.6497" y="-257.5817" font-family="Times,serif" font-size="14.00" fill="#000000">&quot;moul/depviz#8&quot;:</text>
<text text-anchor="start" x="220.8421" y="-243.5817" font-family="Times,serif" font-size="14.00" fill="#000000">depviz is easy to</text>
<text text-anchor="start" x="257.9715" y="-229.5817" font-family="Times,serif" font-size="14.00" fill="#000000">use</text>
<polygon fill="none" stroke="#ffa500" points="214.8026,-189.7817 214.8026,-221.7817 319.8026,-221.7817 319.8026,-189.7817 214.8026,-189.7817"/>
<polygon fill="#cc00d9" stroke="transparent" points="220.8026,-195.7817 220.8026,-215.7817 313.8026,-215.7817 313.8026,-195.7817 220.8026,-195.7817"/>
<polygon fill="none" stroke="#ffa500" points="220.8026,-195.7817 220.8026,-215.7817 313.8026,-215.7817 313.8026,-195.7817 220.8026,-195.7817"/>
<text text-anchor="start" x="255.6439" y="-201.5817" font-family="Times,serif" font-size="14.00" fill="#000000">epic</text>
<polygon fill="none" stroke="#ffa500" points="217.8026,-192.7817 217.8026,-218.7817 316.8026,-218.7817 316.8026,-192.7817 217.8026,-192.7817"/>
<polygon fill="none" stroke="#ffa500" points="211.3026,-186.7817 211.3026,-274.7817 322.3026,-274.7817 322.3026,-186.7817 211.3026,-186.7817"/>
</g>
<!-- moul/depviz#5 -->
<g id="node4" class="node">
<title>moul/depviz#5</title>
<path fill="#ffc0cb" stroke="#ffc0cb" d="M12.5,-300.7817C12.5,-300.7817 142.5,-300.7817 142.5,-300.7817 148.5,-300.7817 154.5,-306.7817 154.5,-312.7817 154.5,-312.7817 154.5,-370.7817 154.5,-370.7817 154.5,-376.7817 148.5,-382.7817 142.5,-382.7817 142.5,-382.7817 12.5,-382.7817 12.5,-382.7817 6.5,-382.7817 .5,-376.7817 .5,-370.7817 .5,-370.7817 .5,-312.7817 .5,-312.7817 .5,-306.7817 6.5,-300.7817 12.5,-300.7817"/>
<polygon fill="none" stroke="#ffc0cb" points="11.5,-341.7817 11.5,-375.7817 143.5,-375.7817 143.5,-341.7817 11.5,-341.7817"/>
<text text-anchor="start" x="14.4248" y="-361.5817" font-family="Times,serif" font-size="14.00" fill="#000000">&quot;moul/depviz#5&quot;: Add</text>
<text text-anchor="start" x="38.0464" y="-347.5817" font-family="Times,serif" font-size="14.00" fill="#000000">Docker image</text>
<polygon fill="none" stroke="#ffc0cb" points="11.5,-307.7817 11.5,-339.7817 143.5,-339.7817 143.5,-307.7817 11.5,-307.7817"/>
<polygon fill="#a2eeef" stroke="transparent" points="17.5,-313.7817 17.5,-333.7817 137.5,-333.7817 137.5,-313.7817 17.5,-313.7817"/>
<polygon fill="none" stroke="#ffc0cb" points="17.5,-313.7817 17.5,-333.7817 137.5,-333.7817 137.5,-313.7817 17.5,-313.7817"/>
<text text-anchor="start" x="40.5757" y="-319.5817" font-family="Times,serif" font-size="14.00" fill="#000000">enhancement</text>
<polygon fill="none" stroke="#ffc0cb" points="14.5,-310.7817 14.5,-336.7817 140.5,-336.7817 140.5,-310.7817 14.5,-310.7817"/>
<polygon fill="none" stroke="#ffc0cb" points="8.5,-304.7817 8.5,-378.7817 146.5,-378.7817 146.5,-304.7817 8.5,-304.7817"/>
</g>
<!-- moul/depviz#8&#45;&gt;moul/depviz#5 -->
<g id="edge2" class="edge">
<title>moul/depviz#8&#45;&gt;moul/depviz#5</title>
<path fill="none" stroke="#ffa500" stroke-dasharray="5,2" d="M195.7747,-272.4299C180.0378,-281.6574 163.3701,-291.4307 147.6678,-300.638"/>
</g>
<!-- moul/depviz#7 -->
<g id="node5" class="node">
<title>moul/depviz#7</title>
<path fill="#ffc0cb" stroke="#ffc0cb" d="M23,-168.7817C23,-168.7817 132,-168.7817 132,-168.7817 138,-168.7817 144,-174.7817 144,-180.7817 144,-180.7817 144,-280.7817 144,-280.7817 144,-286.7817 138,-292.7817 132,-292.7817 132,-292.7817 23,-292.7817 23,-292.7817 17,-292.7817 11,-286.7817 11,-280.7817 11,-280.7817 11,-180.7817 11,-180.7817 11,-174.7817 17,-168.7817 23,-168.7817"/>
<polygon fill="none" stroke="#ffc0cb" points="22.5,-209.7817 22.5,-285.7817 133.5,-285.7817 133.5,-209.7817 22.5,-209.7817"/>
<text text-anchor="start" x="28.3472" y="-271.5817" font-family="Times,serif" font-size="14.00" fill="#000000">&quot;moul/depviz#7&quot;:</text>
<text text-anchor="start" x="25.3257" y="-257.5817" font-family="Times,serif" font-size="14.00" fill="#000000">Refactor CLI to be</text>
<text text-anchor="start" x="43.4033" y="-243.5817" font-family="Times,serif" font-size="14.00" fill="#000000">easier to run</text>
<text text-anchor="start" x="32.7017" y="-229.5817" font-family="Times,serif" font-size="14.00" fill="#000000">projects without</text>
<text text-anchor="start" x="27.2534" y="-215.5817" font-family="Times,serif" font-size="14.00" fill="#000000">configuration files</text>
<polygon fill="none" stroke="#ffc0cb" points="22.5,-175.7817 22.5,-207.7817 133.5,-207.7817 133.5,-175.7817 22.5,-175.7817"/>
<polygon fill="#a2eeef" stroke="transparent" points="28.5,-181.7817 28.5,-201.7817 127.5,-201.7817 127.5,-181.7817 28.5,-181.7817"/>
<polygon fill="none" stroke="#ffc0cb" points="28.5,-181.7817 28.5,-201.7817 127.5,-201.7817 127.5,-181.7817 28.5,-181.7817"/>
<text text-anchor="start" x="41.0757" y="-187.5817" font-family="Times,serif" font-size="14.00" fill="#000000">enhancement</text>
<polygon fill="none" stroke="#ffc0cb" points="25.5,-178.7817 25.5,-204.7817 130.5,-204.7817 130.5,-178.7817 25.5,-178.7817"/>
<polygon fill="none" stroke="#ffc0cb" points="19,-172.7817 19,-288.7817 136,-288.7817 136,-172.7817 19,-172.7817"/>
</g>
<!-- moul/depviz#8&#45;&gt;moul/depviz#7 -->
<g id="edge3" class="edge">
<title>moul/depviz#8&#45;&gt;moul/depviz#7</title>
<path fill="none" stroke="#ffa500" stroke-dasharray="5,2" d="M176.8636,-230.7817C165.7976,-230.7817 154.6455,-230.7817 144.0143,-230.7817"/>
</g>
<!-- moul/depviz#6 -->
<g id="node6" class="node">
<title>moul/depviz#6</title>
<path fill="#ffc0cb" stroke="#ffc0cb" d="M12,-78.7817C12,-78.7817 143,-78.7817 143,-78.7817 149,-78.7817 155,-84.7817 155,-90.7817 155,-90.7817 155,-148.7817 155,-148.7817 155,-154.7817 149,-160.7817 143,-160.7817 143,-160.7817 12,-160.7817 12,-160.7817 6,-160.7817 0,-154.7817 0,-148.7817 0,-148.7817 0,-90.7817 0,-90.7817 0,-84.7817 6,-78.7817 12,-78.7817"/>
<polygon fill="none" stroke="#ffc0cb" points="11.5,-119.7817 11.5,-153.7817 144.5,-153.7817 144.5,-119.7817 11.5,-119.7817"/>
<text text-anchor="start" x="14.0635" y="-139.5817" font-family="Times,serif" font-size="14.00" fill="#000000">&quot;moul/depviz#6&quot;: Web</text>
<text text-anchor="start" x="57.3931" y="-125.5817" font-family="Times,serif" font-size="14.00" fill="#000000">version</text>
<polygon fill="none" stroke="#ffc0cb" points="11.5,-85.7817 11.5,-117.7817 144.5,-117.7817 144.5,-85.7817 11.5,-85.7817"/>
<polygon fill="#a2eeef" stroke="transparent" points="17.5,-91.7817 17.5,-111.7817 138.5,-111.7817 138.5,-91.7817 17.5,-91.7817"/>
<polygon fill="none" stroke="#ffc0cb" points="17.5,-91.7817 17.5,-111.7817 138.5,-111.7817 138.5,-91.7817 17.5,-91.7817"/>
<text text-anchor="start" x="41.0757" y="-97.5817" font-family="Times,serif" font-size="14.00" fill="#000000">enhancement</text>
<polygon fill="none" stroke="#ffc0cb" points="14.5,-88.7817 14.5,-114.7817 141.5,-114.7817 141.5,-88.7817 14.5,-88.7817"/>
<polygon fill="none" stroke="#ffc0cb" points="8,-82.7817 8,-156.7817 147,-156.7817 147,-82.7817 8,-82.7817"/>
</g>
<!-- moul/depviz#8&#45;&gt;moul/depviz#6 -->
<g id="edge4" class="edge">
<title>moul/depviz#8&#45;&gt;moul/depviz#6</title>
<path fill="none" stroke="#ffa500" stroke-dasharray="5,2" d="M195.8746,-188.8073C182.3154,-180.8125 168.2269,-172.5258 155,-164.7817 152.8517,-163.524 150.6693,-162.2477 148.4653,-160.96"/>
</g>
<!-- moul/depviz#12 -->
<g id="node7" class="node">
<title>moul/depviz#12</title>
<ellipse fill="#ffa500" stroke="#ffa500" stroke-width="2" cx="482.5498" cy="-230.7817" rx="103.8894" ry="67.7647"/>
<polygon fill="none" stroke="#ffa500" points="420.5498,-223.7817 420.5498,-271.7817 545.5498,-271.7817 545.5498,-223.7817 420.5498,-223.7817"/>
<text text-anchor="start" x="425.8159" y="-257.5817" font-family="Times,serif" font-size="14.00" fill="#000000">&quot;moul/depviz#12&quot;: I</text>
<text text-anchor="start" x="434.6514" y="-243.5817" font-family="Times,serif" font-size="14.00" fill="#000000">can use depviz to</text>
<text text-anchor="start" x="423.1807" y="-229.5817" font-family="Times,serif" font-size="14.00" fill="#000000">manage my company</text>
<polygon fill="none" stroke="#ffa500" points="420.5498,-189.7817 420.5498,-221.7817 545.5498,-221.7817 545.5498,-189.7817 420.5498,-189.7817"/>
<polygon fill="#cc00d9" stroke="transparent" points="426.5498,-195.7817 426.5498,-215.7817 539.5498,-215.7817 539.5498,-195.7817 426.5498,-195.7817"/>
<polygon fill="none" stroke="#ffa500" points="426.5498,-195.7817 426.5498,-215.7817 539.5498,-215.7817 539.5498,-195.7817 426.5498,-195.7817"/>
<text text-anchor="start" x="471.3911" y="-201.5817" font-family="Times,serif" font-size="14.00" fill="#000000">epic</text>
<polygon fill="none" stroke="#ffa500" points="423.5498,-192.7817 423.5498,-218.7817 542.5498,-218.7817 542.5498,-192.7817 423.5498,-192.7817"/>
<polygon fill="none" stroke="#ffa500" points="417.0498,-186.7817 417.0498,-274.7817 548.0498,-274.7817 548.0498,-186.7817 417.0498,-186.7817"/>
</g>
<!-- moul/depviz#12&#45;&gt;moul/depviz#8 -->
<g id="edge5" class="edge">
<title>moul/depviz#12&#45;&gt;moul/depviz#8</title>
<path fill="none" stroke="#ffa500" stroke-dasharray="5,2" d="M378.4679,-230.7817C371.2483,-230.7817 364.0061,-230.7817 356.8707,-230.7817"/>
</g>
<!-- moul/depviz#10 -->
<g id="node8" class="node">
<title>moul/depviz#10</title>
<ellipse fill="#ffa500" stroke="#ffa500" stroke-width="2" cx="712.4392" cy="-373.7817" rx="94.5053" ry="67.7647"/>
<polygon fill="none" stroke="#ffa500" points="656.4392,-366.7817 656.4392,-414.7817 768.4392,-414.7817 768.4392,-366.7817 656.4392,-366.7817"/>
<text text-anchor="start" x="659.2864" y="-400.5817" font-family="Times,serif" font-size="14.00" fill="#000000">&quot;moul/depviz#10&quot;:</text>
<text text-anchor="start" x="665.9788" y="-386.5817" font-family="Times,serif" font-size="14.00" fill="#000000">depviz is easy to</text>
<text text-anchor="start" x="688.7253" y="-372.5817" font-family="Times,serif" font-size="14.00" fill="#000000">discover</text>
<polygon fill="none" stroke="#ffa500" points="656.4392,-332.7817 656.4392,-364.7817 768.4392,-364.7817 768.4392,-332.7817 656.4392,-332.7817"/>
<polygon fill="#cc00d9" stroke="transparent" points="662.4392,-338.7817 662.4392,-358.7817 762.4392,-358.7817 762.4392,-338.7817 662.4392,-338.7817"/>
<polygon fill="none" stroke="#ffa500" points="662.4392,-338.7817 662.4392,-358.7817 762.4392,-358.7817 762.4392,-338.7817 662.4392,-338.7817"/>
<text text-anchor="start" x="700.7805" y="-344.5817" font-family="Times,serif" font-size="14.00" fill="#000000">epic</text>
<polygon fill="none" stroke="#ffa500" points="659.4392,-335.7817 659.4392,-361.7817 765.4392,-361.7817 765.4392,-335.7817 659.4392,-335.7817"/>
<polygon fill="none" stroke="#ffa500" points="653.4392,-329.7817 653.4392,-417.7817 771.4392,-417.7817 771.4392,-329.7817 653.4392,-329.7817"/>
</g>
<!-- moul/depviz#3 -->
<g id="node9" class="node">
<title>moul/depviz#3</title>
<path fill="#cccccc" fill-opacity="0.200000" stroke="#cccccc" stroke-opacity="0.200000" d="M417.5498,-349.7817C417.5498,-349.7817 547.5498,-349.7817 547.5498,-349.7817 553.5498,-349.7817 559.5498,-355.7817 559.5498,-361.7817 559.5498,-361.7817 559.5498,-385.7817 559.5498,-385.7817 559.5498,-391.7817 553.5498,-397.7817 547.5498,-397.7817 547.5498,-397.7817 417.5498,-397.7817 417.5498,-397.7817 411.5498,-397.7817 405.5498,-391.7817 405.5498,-385.7817 405.5498,-385.7817 405.5498,-361.7817 405.5498,-361.7817 405.5498,-355.7817 411.5498,-349.7817 417.5498,-349.7817"/>
<polygon fill="none" stroke="#cccccc" stroke-opacity="0.200000" points="416.5498,-356.7817 416.5498,-390.7817 548.5498,-390.7817 548.5498,-356.7817 416.5498,-356.7817"/>
<text text-anchor="start" x="419.4746" y="-376.5817" font-family="Times,serif" font-size="14.00" fill="#000000">&quot;moul/depviz#3&quot;: Add</text>
<text text-anchor="start" x="456.1152" y="-362.5817" font-family="Times,serif" font-size="14.00" fill="#000000">examples</text>
<polygon fill="none" stroke="#cccccc" stroke-opacity="0.200000" points="413.5498,-353.7817 413.5498,-393.7817 551.5498,-393.7817 551.5498,-353.7817 413.5498,-353.7817"/>
</g>
<!-- moul/depviz#10&#45;&gt;moul/depviz#3 -->
<g id="edge6" class="edge">
<title>moul/depviz#10&#45;&gt;moul/depviz#3</title>
<path fill="none" stroke="#ffa500" stroke-dasharray="5,2" d="M617.6071,-373.7817C598.3126,-373.7817 578.2377,-373.7817 559.6492,-373.7817"/>
</g>
<!-- moul/depviz#9 -->
<g id="node10" class="node">
<title>moul/depviz#9</title>
<ellipse fill="#ffa500" stroke="#ffa500" stroke-width="2" cx="712.4392" cy="-516.7817" rx="89.6056" ry="67.7647"/>
<polygon fill="none" stroke="#ffa500" points="660.4392,-509.7817 660.4392,-557.7817 765.4392,-557.7817 765.4392,-509.7817 660.4392,-509.7817"/>
<text text-anchor="start" x="663.2864" y="-543.5817" font-family="Times,serif" font-size="14.00" fill="#000000">&quot;moul/depviz#9&quot;:</text>
<text text-anchor="start" x="666.4788" y="-529.5817" font-family="Times,serif" font-size="14.00" fill="#000000">depviz is easy to</text>
<text text-anchor="start" x="699.7253" y="-515.5817" font-family="Times,serif" font-size="14.00" fill="#000000">hack</text>
<polygon fill="none" stroke="#ffa500" points="660.4392,-475.7817 660.4392,-507.7817 765.4392,-507.7817 765.4392,-475.7817 660.4392,-475.7817"/>
<polygon fill="#cc00d9" stroke="transparent" points="666.4392,-481.7817 666.4392,-501.7817 759.4392,-501.7817 759.4392,-481.7817 666.4392,-481.7817"/>
<polygon fill="none" stroke="#ffa500" points="666.4392,-481.7817 666.4392,-501.7817 759.4392,-501.7817 759.4392,-481.7817 666.4392,-481.7817"/>
<text text-anchor="start" x="701.2805" y="-487.5817" font-family="Times,serif" font-size="14.00" fill="#000000">epic</text>
<polygon fill="none" stroke="#ffa500" points="663.4392,-478.7817 663.4392,-504.7817 762.4392,-504.7817 762.4392,-478.7817 663.4392,-478.7817"/>
<polygon fill="none" stroke="#ffa500" points="656.9392,-472.7817 656.9392,-560.7817 767.9392,-560.7817 767.9392,-472.7817 656.9392,-472.7817"/>
</g>
<!-- moul/depviz#2 -->
<g id="node11" class="node">
<title>moul/depviz#2</title>
<path fill="#ffc0cb" stroke="#ffc0cb" d="M431.0498,-475.7817C431.0498,-475.7817 534.0498,-475.7817 534.0498,-475.7817 540.0498,-475.7817 546.0498,-481.7817 546.0498,-487.7817 546.0498,-487.7817 546.0498,-545.7817 546.0498,-545.7817 546.0498,-551.7817 540.0498,-557.7817 534.0498,-557.7817 534.0498,-557.7817 431.0498,-557.7817 431.0498,-557.7817 425.0498,-557.7817 419.0498,-551.7817 419.0498,-545.7817 419.0498,-545.7817 419.0498,-487.7817 419.0498,-487.7817 419.0498,-481.7817 425.0498,-475.7817 431.0498,-475.7817"/>
<polygon fill="none" stroke="#ffc0cb" points="430.5498,-516.7817 430.5498,-550.7817 535.5498,-550.7817 535.5498,-516.7817 430.5498,-516.7817"/>
<text text-anchor="start" x="433.397" y="-536.5817" font-family="Times,serif" font-size="14.00" fill="#000000">&quot;moul/depviz#2&quot;:</text>
<text text-anchor="start" x="458.355" y="-522.5817" font-family="Times,serif" font-size="14.00" fill="#000000">Setup CI</text>
<polygon fill="none" stroke="#ffc0cb" points="430.5498,-482.7817 430.5498,-514.7817 535.5498,-514.7817 535.5498,-482.7817 430.5498,-482.7817"/>
<polygon fill="#a2eeef" stroke="transparent" points="436.5498,-488.7817 436.5498,-508.7817 529.5498,-508.7817 529.5498,-488.7817 436.5498,-488.7817"/>
<polygon fill="none" stroke="#ffc0cb" points="436.5498,-488.7817 436.5498,-508.7817 529.5498,-508.7817 529.5498,-488.7817 436.5498,-488.7817"/>
<text text-anchor="start" x="446.1255" y="-494.5817" font-family="Times,serif" font-size="14.00" fill="#000000">enhancement</text>
<polygon fill="none" stroke="#ffc0cb" points="433.5498,-485.7817 433.5498,-511.7817 532.5498,-511.7817 532.5498,-485.7817 433.5498,-485.7817"/>
<polygon fill="none" stroke="#ffc0cb" points="427.0498,-479.7817 427.0498,-553.7817 538.0498,-553.7817 538.0498,-479.7817 427.0498,-479.7817"/>
</g>
<!-- moul/depviz#9&#45;&gt;moul/depviz#2 -->
<g id="edge7" class="edge">
<title>moul/depviz#9&#45;&gt;moul/depviz#2</title>
<path fill="none" stroke="#ffa500" stroke-dasharray="5,2" d="M622.5703,-516.7817C597.006,-516.7817 569.7022,-516.7817 546.057,-516.7817"/>
</g>
<!-- moul/depviz#13 -->
<g id="node12" class="node">
<title>moul/depviz#13</title>
<ellipse fill="#ffa500" stroke="#ffa500" stroke-width="2" cx="712.4392" cy="-230.7817" rx="100.3184" ry="67.7647"/>
<polygon fill="none" stroke="#ffa500" points="652.4392,-223.7817 652.4392,-271.7817 772.4392,-271.7817 772.4392,-223.7817 652.4392,-223.7817"/>
<text text-anchor="start" x="655.2053" y="-257.5817" font-family="Times,serif" font-size="14.00" fill="#000000">&quot;moul/depviz#13&quot;: I</text>
<text text-anchor="start" x="664.0408" y="-243.5817" font-family="Times,serif" font-size="14.00" fill="#000000">can use depviz to</text>
<text text-anchor="start" x="657.0374" y="-229.5817" font-family="Times,serif" font-size="14.00" fill="#000000">plan all my projects</text>
<polygon fill="none" stroke="#ffa500" points="652.4392,-189.7817 652.4392,-221.7817 772.4392,-221.7817 772.4392,-189.7817 652.4392,-189.7817"/>
<polygon fill="#cc00d9" stroke="transparent" points="658.4392,-195.7817 658.4392,-215.7817 766.4392,-215.7817 766.4392,-195.7817 658.4392,-195.7817"/>
<polygon fill="none" stroke="#ffa500" points="658.4392,-195.7817 658.4392,-215.7817 766.4392,-215.7817 766.4392,-195.7817 658.4392,-195.7817"/>
<text text-anchor="start" x="700.7805" y="-201.5817" font-family="Times,serif" font-size="14.00" fill="#000000">epic</text>
<polygon fill="none" stroke="#ffa500" points="655.4392,-192.7817 655.4392,-218.7817 769.4392,-218.7817 769.4392,-192.7817 655.4392,-192.7817"/>
<polygon fill="none" stroke="#ffa500" points="649.4392,-186.7817 649.4392,-274.7817 775.4392,-274.7817 775.4392,-186.7817 649.4392,-186.7817"/>
</g>
<!-- moul/depviz#13&#45;&gt;moul/depviz#12 -->
<g id="edge8" class="edge">
<title>moul/depviz#13&#45;&gt;moul/depviz#12</title>
<path fill="none" stroke="#ffa500" stroke-dasharray="5,2" d="M611.9408,-230.7817C603.6042,-230.7817 595.1647,-230.7817 586.8013,-230.7817"/>
</g>
<!-- placeholder_1 -->
<g id="node13" class="node">
<title>placeholder_1</title>
<text text-anchor="middle" x="712.4392" y="-605.5817" font-family="Times,serif" font-size="14.00" fill="#000000">weight=1</text>
</g>
<!-- placeholder_2 -->
<g id="node14" class="node">
<title>placeholder_2</title>
<text text-anchor="middle" x="482.5498" y="-605.5817" font-family="Times,serif" font-size="14.00" fill="#000000">weight=2</text>
</g>
<!-- placeholder_1&#45;&gt;placeholder_2 -->
<!-- placeholder_3 -->
<g id="node15" class="node">
<title>placeholder_3</title>
<text text-anchor="middle" x="266.8026" y="-605.5817" font-family="Times,serif" font-size="14.00" fill="#000000">weight=3</text>
</g>
<!-- placeholder_2&#45;&gt;placeholder_3 -->
<!-- placeholder_4 -->
<g id="node16" class="node">
<title>placeholder_4</title>
<text text-anchor="middle" x="77.5" y="-605.5817" font-family="Times,serif" font-size="14.00" fill="#000000">weight=4</text>
</g>
<!-- placeholder_3&#45;&gt;placeholder_4 -->
</g>
</svg>
