<?xml version="1.0" encoding="UTF-8" standalone="no"?>
<!DOCTYPE svg PUBLIC "-//W3C//DTD SVG 1.1//EN"
 "http://www.w3.org/Graphics/SVG/1.1/DTD/svg11.dtd">
<!-- Generated by graphviz version 2.40.1 (20161225.0304)
 -->
<!-- Title: G Pages: 1 -->
<svg width="1371pt" height="650pt"
 viewBox="14.40 14.40 1356.78 635.28" xmlns="http://www.w3.org/2000/svg" xmlns:xlink="http://www.w3.org/1999/xlink">
<g id="graph0" class="graph" transform="scale(1 1) rotate(0) translate(18.4 631.2823)">
<title>G</title>
<polygon fill="#ffffff" stroke="transparent" points="-4,4 -4,-616.8823 1338.3839,-616.8823 1338.3839,4 -4,4"/>
<!-- moul/depviz#13 -->
<g id="node1" class="node">
<title>moul/depviz#13</title>
<g id="a_node1"><a xlink:href="https://api.github.com/repos/moul/depviz/issues/13" xlink:title="&lt;TABLE&gt;">
<ellipse fill="#ffa500" stroke="#ffa500" stroke-width="2" cx="1230.4392" cy="-424.8823" rx="100.3184" ry="67.7647"/>
<polygon fill="none" stroke="#ffa500" points="1170.4392,-417.8823 1170.4392,-465.8823 1290.4392,-465.8823 1290.4392,-417.8823 1170.4392,-417.8823"/>
<text text-anchor="start" x="1173.2053" y="-451.6823" font-family="Times,serif" font-size="14.00" fill="#000000">&quot;moul/depviz#13&quot;: I</text>
<text text-anchor="start" x="1182.0408" y="-437.6823" font-family="Times,serif" font-size="14.00" fill="#000000">can use depviz to</text>
<text text-anchor="start" x="1175.0374" y="-423.6823" font-family="Times,serif" font-size="14.00" fill="#000000">plan all my projects</text>
<polygon fill="none" stroke="#ffa500" points="1170.4392,-383.8823 1170.4392,-415.8823 1290.4392,-415.8823 1290.4392,-383.8823 1170.4392,-383.8823"/>
<polygon fill="#cc00d9" stroke="transparent" points="1176.4392,-389.8823 1176.4392,-409.8823 1284.4392,-409.8823 1284.4392,-389.8823 1176.4392,-389.8823"/>
<polygon fill="none" stroke="#ffa500" points="1176.4392,-389.8823 1176.4392,-409.8823 1284.4392,-409.8823 1284.4392,-389.8823 1176.4392,-389.8823"/>
<text text-anchor="start" x="1218.7805" y="-395.6823" font-family="Times,serif" font-size="14.00" fill="#000000">epic</text>
<polygon fill="none" stroke="#ffa500" points="1173.4392,-386.8823 1173.4392,-412.8823 1287.4392,-412.8823 1287.4392,-386.8823 1173.4392,-386.8823"/>
<polygon fill="none" stroke="#ffa500" points="1167.4392,-380.8823 1167.4392,-468.8823 1293.4392,-468.8823 1293.4392,-380.8823 1167.4392,-380.8823"/>
</a>
</g>
</g>
<!-- moul/depviz#12 -->
<g id="node2" class="node">
<title>moul/depviz#12</title>
<g id="a_node2"><a xlink:href="https://api.github.com/repos/moul/depviz/issues/12" xlink:title="&lt;TABLE&gt;">
<ellipse fill="#ffa500" stroke="#ffa500" stroke-width="2" cx="1000.5498" cy="-424.8823" rx="103.8894" ry="67.7647"/>
<polygon fill="none" stroke="#ffa500" points="938.5498,-417.8823 938.5498,-465.8823 1063.5498,-465.8823 1063.5498,-417.8823 938.5498,-417.8823"/>
<text text-anchor="start" x="943.8159" y="-451.6823" font-family="Times,serif" font-size="14.00" fill="#000000">&quot;moul/depviz#12&quot;: I</text>
<text text-anchor="start" x="952.6514" y="-437.6823" font-family="Times,serif" font-size="14.00" fill="#000000">can use depviz to</text>
<text text-anchor="start" x="941.1807" y="-423.6823" font-family="Times,serif" font-size="14.00" fill="#000000">manage my company</text>
<polygon fill="none" stroke="#ffa500" points="938.5498,-383.8823 938.5498,-415.8823 1063.5498,-415.8823 1063.5498,-383.8823 938.5498,-383.8823"/>
<polygon fill="#cc00d9" stroke="transparent" points="944.5498,-389.8823 944.5498,-409.8823 1057.5498,-409.8823 1057.5498,-389.8823 944.5498,-389.8823"/>
<polygon fill="none" stroke="#ffa500" points="944.5498,-389.8823 944.5498,-409.8823 1057.5498,-409.8823 1057.5498,-389.8823 944.5498,-389.8823"/>
<text text-anchor="start" x="989.3911" y="-395.6823" font-family="Times,serif" font-size="14.00" fill="#000000">epic</text>
<polygon fill="none" stroke="#ffa500" points="941.5498,-386.8823 941.5498,-412.8823 1060.5498,-412.8823 1060.5498,-386.8823 941.5498,-386.8823"/>
<polygon fill="none" stroke="#ffa500" points="935.0498,-380.8823 935.0498,-468.8823 1066.0498,-468.8823 1066.0498,-380.8823 935.0498,-380.8823"/>
</a>
</g>
</g>
<!-- moul/depviz#13&#45;&gt;moul/depviz#12 -->
<g id="edge1" class="edge">
<title>moul/depviz#13&#45;&gt;moul/depviz#12</title>
<path fill="none" stroke="#ffa500" stroke-dasharray="5,2" d="M1129.9408,-424.8823C1121.6042,-424.8823 1113.1647,-424.8823 1104.8013,-424.8823"/>
</g>
<!-- moul/depviz#8 -->
<g id="node6" class="node">
<title>moul/depviz#8</title>
<g id="a_node6"><a xlink:href="https://api.github.com/repos/moul/depviz/issues/8" xlink:title="&lt;TABLE&gt;">
<ellipse fill="#ffa500" stroke="#ffa500" stroke-width="2" cx="784.8026" cy="-397.8823" rx="89.6056" ry="67.7647"/>
<polygon fill="none" stroke="#ffa500" points="732.8026,-390.8823 732.8026,-438.8823 837.8026,-438.8823 837.8026,-390.8823 732.8026,-390.8823"/>
<text text-anchor="start" x="735.6497" y="-424.6823" font-family="Times,serif" font-size="14.00" fill="#000000">&quot;moul/depviz#8&quot;:</text>
<text text-anchor="start" x="738.8421" y="-410.6823" font-family="Times,serif" font-size="14.00" fill="#000000">depviz is easy to</text>
<text text-anchor="start" x="775.9715" y="-396.6823" font-family="Times,serif" font-size="14.00" fill="#000000">use</text>
<polygon fill="none" stroke="#ffa500" points="732.8026,-356.8823 732.8026,-388.8823 837.8026,-388.8823 837.8026,-356.8823 732.8026,-356.8823"/>
<polygon fill="#cc00d9" stroke="transparent" points="738.8026,-362.8823 738.8026,-382.8823 831.8026,-382.8823 831.8026,-362.8823 738.8026,-362.8823"/>
<polygon fill="none" stroke="#ffa500" points="738.8026,-362.8823 738.8026,-382.8823 831.8026,-382.8823 831.8026,-362.8823 738.8026,-362.8823"/>
<text text-anchor="start" x="773.6439" y="-368.6823" font-family="Times,serif" font-size="14.00" fill="#000000">epic</text>
<polygon fill="none" stroke="#ffa500" points="735.8026,-359.8823 735.8026,-385.8823 834.8026,-385.8823 834.8026,-359.8823 735.8026,-359.8823"/>
<polygon fill="none" stroke="#ffa500" points="729.3026,-353.8823 729.3026,-441.8823 840.3026,-441.8823 840.3026,-353.8823 729.3026,-353.8823"/>
</a>
</g>
</g>
<!-- moul/depviz#12&#45;&gt;moul/depviz#8 -->
<g id="edge9" class="edge">
<title>moul/depviz#12&#45;&gt;moul/depviz#8</title>
<path fill="none" stroke="#ffa500" stroke-dasharray="5,2" d="M898.3625,-412.0939C890.085,-411.058 881.7628,-410.0165 873.5914,-408.9939"/>
</g>
<!-- moul/depviz#21 -->
<g id="node10" class="node">
<title>moul/depviz#21</title>
<g id="a_node10"><a xlink:href="https://api.github.com/repos/moul/depviz/issues/21" xlink:title="&lt;table&gt;&lt;tr&gt;&lt;td&gt;&amp;#34;moul/depviz#21&amp;#34;:&lt;br/&gt;Show epic&amp;#39;s&lt;br/&gt;completion rate&lt;/td&gt;&lt;/tr&gt;&lt;tr&gt;&lt;td&gt;&lt;table&gt;&lt;tr&gt;&lt;td bgcolor=&quot;#a2eeef&quot;&gt;enhancement&lt;/td&gt;&lt;/tr&gt;&lt;/table&gt;&lt;/td&gt;&lt;/tr&gt;&lt;/table&gt;">
<path fill="#ffc0cb" stroke="#ffc0cb" d="M729.8026,-472.8823C729.8026,-472.8823 839.8026,-472.8823 839.8026,-472.8823 845.8026,-472.8823 851.8026,-478.8823 851.8026,-484.8823 851.8026,-484.8823 851.8026,-556.8823 851.8026,-556.8823 851.8026,-562.8823 845.8026,-568.8823 839.8026,-568.8823 839.8026,-568.8823 729.8026,-568.8823 729.8026,-568.8823 723.8026,-568.8823 717.8026,-562.8823 717.8026,-556.8823 717.8026,-556.8823 717.8026,-484.8823 717.8026,-484.8823 717.8026,-478.8823 723.8026,-472.8823 729.8026,-472.8823"/>
<polygon fill="none" stroke="#ffc0cb" points="728.8026,-513.8823 728.8026,-561.8823 840.8026,-561.8823 840.8026,-513.8823 728.8026,-513.8823"/>
<text text-anchor="start" x="731.6497" y="-547.6823" font-family="Times,serif" font-size="14.00" fill="#000000">&quot;moul/depviz#21&quot;:</text>
<text text-anchor="start" x="751.4603" y="-533.6823" font-family="Times,serif" font-size="14.00" fill="#000000">Show epic&#39;s</text>
<text text-anchor="start" x="741.0697" y="-519.6823" font-family="Times,serif" font-size="14.00" fill="#000000">completion rate</text>
<polygon fill="none" stroke="#ffc0cb" points="728.8026,-479.8823 728.8026,-511.8823 840.8026,-511.8823 840.8026,-479.8823 728.8026,-479.8823"/>
<polygon fill="#a2eeef" stroke="transparent" points="734.8026,-485.8823 734.8026,-505.8823 834.8026,-505.8823 834.8026,-485.8823 734.8026,-485.8823"/>
<polygon fill="none" stroke="#ffc0cb" points="734.8026,-485.8823 734.8026,-505.8823 834.8026,-505.8823 834.8026,-485.8823 734.8026,-485.8823"/>
<text text-anchor="start" x="747.8782" y="-491.6823" font-family="Times,serif" font-size="14.00" fill="#000000">enhancement</text>
<polygon fill="none" stroke="#ffc0cb" points="731.8026,-482.8823 731.8026,-508.8823 837.8026,-508.8823 837.8026,-482.8823 731.8026,-482.8823"/>
<polygon fill="none" stroke="#ffc0cb" points="725.8026,-476.8823 725.8026,-564.8823 843.8026,-564.8823 843.8026,-476.8823 725.8026,-476.8823"/>
</a>
</g>
</g>
<!-- moul/depviz#12&#45;&gt;moul/depviz#21 -->
<g id="edge8" class="edge">
<title>moul/depviz#12&#45;&gt;moul/depviz#21</title>
<path fill="none" stroke="#ffa500" stroke-dasharray="5,2" d="M914.3507,-463.2379C893.576,-472.4819 871.6826,-482.2236 851.9269,-491.0143"/>
</g>
<!-- moul/depviz#11 -->
<g id="node3" class="node">
<title>moul/depviz#11</title>
<g id="a_node3"><a xlink:href="https://api.github.com/repos/moul/depviz/issues/11" xlink:title="&lt;TABLE&gt;">
<ellipse fill="#ffa500" stroke="#ffa500" stroke-width="2" cx="1230.4392" cy="-222.8823" rx="103.8894" ry="77.5641"/>
<polygon fill="none" stroke="#ffa500" points="1168.4392,-208.8823 1168.4392,-270.8823 1293.4392,-270.8823 1293.4392,-208.8823 1168.4392,-208.8823"/>
<text text-anchor="start" x="1178.0427" y="-256.6823" font-family="Times,serif" font-size="14.00" fill="#000000">&quot;moul/depviz#11&quot;:</text>
<text text-anchor="start" x="1176.5081" y="-242.6823" font-family="Times,serif" font-size="14.00" fill="#000000">depviz is pluggable</text>
<text text-anchor="start" x="1171.053" y="-228.6823" font-family="Times,serif" font-size="14.00" fill="#000000">with other workflows</text>
<text text-anchor="start" x="1205.0754" y="-214.6823" font-family="Times,serif" font-size="14.00" fill="#000000">/ systems</text>
<polygon fill="none" stroke="#ffa500" points="1168.4392,-174.8823 1168.4392,-206.8823 1293.4392,-206.8823 1293.4392,-174.8823 1168.4392,-174.8823"/>
<polygon fill="#cc00d9" stroke="transparent" points="1174.4392,-180.8823 1174.4392,-200.8823 1287.4392,-200.8823 1287.4392,-180.8823 1174.4392,-180.8823"/>
<polygon fill="none" stroke="#ffa500" points="1174.4392,-180.8823 1174.4392,-200.8823 1287.4392,-200.8823 1287.4392,-180.8823 1174.4392,-180.8823"/>
<text text-anchor="start" x="1219.2805" y="-186.6823" font-family="Times,serif" font-size="14.00" fill="#000000">epic</text>
<polygon fill="none" stroke="#ffa500" points="1171.4392,-177.8823 1171.4392,-203.8823 1290.4392,-203.8823 1290.4392,-177.8823 1171.4392,-177.8823"/>
<polygon fill="none" stroke="#ffa500" points="1164.9392,-171.8823 1164.9392,-273.8823 1295.9392,-273.8823 1295.9392,-171.8823 1164.9392,-171.8823"/>
</a>
</g>
</g>
<!-- moul/depviz#4 -->
<g id="node4" class="node">
<title>moul/depviz#4</title>
<g id="a_node4"><a xlink:href="https://api.github.com/repos/moul/depviz/issues/4" xlink:title="&lt;table&gt;&lt;tr&gt;&lt;td&gt;&amp;#34;moul/depviz#4&amp;#34;:&lt;br/&gt;Export to OPML&lt;/td&gt;&lt;/tr&gt;&lt;tr&gt;&lt;td&gt;&lt;table&gt;&lt;tr&gt;&lt;td bgcolor=&quot;#a2eeef&quot;&gt;enhancement&lt;/td&gt;&lt;/tr&gt;&lt;/table&gt;&lt;/td&gt;&lt;/tr&gt;&lt;/table&gt;">
<path fill="#ffc0cb" stroke="#ffc0cb" d="M949.0498,-132.8823C949.0498,-132.8823 1052.0498,-132.8823 1052.0498,-132.8823 1058.0498,-132.8823 1064.0498,-138.8823 1064.0498,-144.8823 1064.0498,-144.8823 1064.0498,-202.8823 1064.0498,-202.8823 1064.0498,-208.8823 1058.0498,-214.8823 1052.0498,-214.8823 1052.0498,-214.8823 949.0498,-214.8823 949.0498,-214.8823 943.0498,-214.8823 937.0498,-208.8823 937.0498,-202.8823 937.0498,-202.8823 937.0498,-144.8823 937.0498,-144.8823 937.0498,-138.8823 943.0498,-132.8823 949.0498,-132.8823"/>
<polygon fill="none" stroke="#ffc0cb" points="948.5498,-173.8823 948.5498,-207.8823 1053.5498,-207.8823 1053.5498,-173.8823 948.5498,-173.8823"/>
<text text-anchor="start" x="951.397" y="-193.6823" font-family="Times,serif" font-size="14.00" fill="#000000">&quot;moul/depviz#4&quot;:</text>
<text text-anchor="start" x="953.605" y="-179.6823" font-family="Times,serif" font-size="14.00" fill="#000000">Export to OPML</text>
<polygon fill="none" stroke="#ffc0cb" points="948.5498,-139.8823 948.5498,-171.8823 1053.5498,-171.8823 1053.5498,-139.8823 948.5498,-139.8823"/>
<polygon fill="#a2eeef" stroke="transparent" points="954.5498,-145.8823 954.5498,-165.8823 1047.5498,-165.8823 1047.5498,-145.8823 954.5498,-145.8823"/>
<polygon fill="none" stroke="#ffc0cb" points="954.5498,-145.8823 954.5498,-165.8823 1047.5498,-165.8823 1047.5498,-145.8823 954.5498,-145.8823"/>
<text text-anchor="start" x="964.1255" y="-151.6823" font-family="Times,serif" font-size="14.00" fill="#000000">enhancement</text>
<polygon fill="none" stroke="#ffc0cb" points="951.5498,-142.8823 951.5498,-168.8823 1050.5498,-168.8823 1050.5498,-142.8823 951.5498,-142.8823"/>
<polygon fill="none" stroke="#ffc0cb" points="945.0498,-136.8823 945.0498,-210.8823 1056.0498,-210.8823 1056.0498,-136.8823 945.0498,-136.8823"/>
</a>
</g>
</g>
<!-- moul/depviz#11&#45;&gt;moul/depviz#4 -->
<g id="edge2" class="edge">
<title>moul/depviz#11&#45;&gt;moul/depviz#4</title>
<path fill="none" stroke="#ffa500" stroke-dasharray="5,2" d="M1130.2751,-201.5327C1107.8907,-196.7615 1084.7458,-191.8283 1064.3125,-187.473"/>
</g>
<!-- moul/depviz#5 -->
<g id="node5" class="node">
<title>moul/depviz#5</title>
<g id="a_node5"><a xlink:href="https://api.github.com/repos/moul/depviz/issues/5" xlink:title="&lt;table&gt;&lt;tr&gt;&lt;td&gt;&amp;#34;moul/depviz#5&amp;#34;: Add&lt;br/&gt;Docker image&lt;/td&gt;&lt;/tr&gt;&lt;tr&gt;&lt;td&gt;&lt;table&gt;&lt;tr&gt;&lt;td bgcolor=&quot;#a2eeef&quot;&gt;enhancement&lt;/td&gt;&lt;/tr&gt;&lt;/table&gt;&lt;/td&gt;&lt;/tr&gt;&lt;/table&gt;">
<path fill="#cccccc" fill-opacity="0.200000" stroke="#cccccc" stroke-opacity="0.200000" d="M12,-185.8823C12,-185.8823 142,-185.8823 142,-185.8823 148,-185.8823 154,-191.8823 154,-197.8823 154,-197.8823 154,-255.8823 154,-255.8823 154,-261.8823 148,-267.8823 142,-267.8823 142,-267.8823 12,-267.8823 12,-267.8823 6,-267.8823 0,-261.8823 0,-255.8823 0,-255.8823 0,-197.8823 0,-197.8823 0,-191.8823 6,-185.8823 12,-185.8823"/>
<polygon fill="none" stroke="#cccccc" stroke-opacity="0.200000" points="11,-226.8823 11,-260.8823 143,-260.8823 143,-226.8823 11,-226.8823"/>
<text text-anchor="start" x="13.9248" y="-246.6823" font-family="Times,serif" font-size="14.00" fill="#000000">&quot;moul/depviz#5&quot;: Add</text>
<text text-anchor="start" x="37.5464" y="-232.6823" font-family="Times,serif" font-size="14.00" fill="#000000">Docker image</text>
<polygon fill="none" stroke="#cccccc" stroke-opacity="0.200000" points="11,-192.8823 11,-224.8823 143,-224.8823 143,-192.8823 11,-192.8823"/>
<polygon fill="#a2eeef" stroke="transparent" points="17,-198.8823 17,-218.8823 137,-218.8823 137,-198.8823 17,-198.8823"/>
<polygon fill="none" stroke="#cccccc" stroke-opacity="0.200000" points="17,-198.8823 17,-218.8823 137,-218.8823 137,-198.8823 17,-198.8823"/>
<text text-anchor="start" x="40.0757" y="-204.6823" font-family="Times,serif" font-size="14.00" fill="#000000">enhancement</text>
<polygon fill="none" stroke="#cccccc" stroke-opacity="0.200000" points="14,-195.8823 14,-221.8823 140,-221.8823 140,-195.8823 14,-195.8823"/>
<polygon fill="none" stroke="#cccccc" stroke-opacity="0.200000" points="8,-189.8823 8,-263.8823 146,-263.8823 146,-189.8823 8,-189.8823"/>
</a>
</g>
</g>
<!-- moul/depviz#11&#45;&gt;moul/depviz#5 -->
<g id="edge3" class="edge">
<title>moul/depviz#11&#45;&gt;moul/depviz#5</title>
<path fill="none" stroke="#ffa500" stroke-dasharray="5,2" d="M1126.4413,-224.3433C1036.1272,-225.486 901.8256,-226.8823 784.8026,-226.8823 784.8026,-226.8823 784.8026,-226.8823 410.5,-226.8823 322.6378,-226.8823 221.755,-226.8823 154.1612,-226.8823"/>
</g>
<!-- moul/depviz#8&#45;&gt;moul/depviz#5 -->
<g id="edge6" class="edge">
<title>moul/depviz#8&#45;&gt;moul/depviz#5</title>
<path fill="none" stroke="#ffa500" stroke-dasharray="5,2" d="M705.043,-429.3071C694.4104,-432.4275 683.5396,-435.0968 673,-436.8823 605.0789,-448.3887 585.1951,-452.0644 518,-436.8823 374.2828,-404.4107 222.5045,-319.2805 139.8105,-267.9297"/>
</g>
<!-- moul/depviz#7 -->
<g id="node7" class="node">
<title>moul/depviz#7</title>
<g id="a_node7"><a xlink:href="https://api.github.com/repos/moul/depviz/issues/7" xlink:title="&lt;table&gt;&lt;tr&gt;&lt;td&gt;&amp;#34;moul/depviz#7&amp;#34;:&lt;br/&gt;Refactor CLI to be&lt;br/&gt;easier to run&lt;br/&gt;projects without&lt;br/&gt;configuration files&lt;/td&gt;&lt;/tr&gt;&lt;tr&gt;&lt;td&gt;&lt;table&gt;&lt;tr&gt;&lt;td bgcolor=&quot;#a2eeef&quot;&gt;enhancement&lt;/td&gt;&lt;/tr&gt;&lt;/table&gt;&lt;/td&gt;&lt;/tr&gt;&lt;/table&gt;">
<path fill="#ffc0cb" stroke="#ffc0cb" d="M541,-308.8823C541,-308.8823 650,-308.8823 650,-308.8823 656,-308.8823 662,-314.8823 662,-320.8823 662,-320.8823 662,-420.8823 662,-420.8823 662,-426.8823 656,-432.8823 650,-432.8823 650,-432.8823 541,-432.8823 541,-432.8823 535,-432.8823 529,-426.8823 529,-420.8823 529,-420.8823 529,-320.8823 529,-320.8823 529,-314.8823 535,-308.8823 541,-308.8823"/>
<polygon fill="none" stroke="#ffc0cb" points="540.5,-349.8823 540.5,-425.8823 651.5,-425.8823 651.5,-349.8823 540.5,-349.8823"/>
<text text-anchor="start" x="546.3472" y="-411.6823" font-family="Times,serif" font-size="14.00" fill="#000000">&quot;moul/depviz#7&quot;:</text>
<text text-anchor="start" x="543.3257" y="-397.6823" font-family="Times,serif" font-size="14.00" fill="#000000">Refactor CLI to be</text>
<text text-anchor="start" x="561.4033" y="-383.6823" font-family="Times,serif" font-size="14.00" fill="#000000">easier to run</text>
<text text-anchor="start" x="550.7017" y="-369.6823" font-family="Times,serif" font-size="14.00" fill="#000000">projects without</text>
<text text-anchor="start" x="545.2534" y="-355.6823" font-family="Times,serif" font-size="14.00" fill="#000000">configuration files</text>
<polygon fill="none" stroke="#ffc0cb" points="540.5,-315.8823 540.5,-347.8823 651.5,-347.8823 651.5,-315.8823 540.5,-315.8823"/>
<polygon fill="#a2eeef" stroke="transparent" points="546.5,-321.8823 546.5,-341.8823 645.5,-341.8823 645.5,-321.8823 546.5,-321.8823"/>
<polygon fill="none" stroke="#ffc0cb" points="546.5,-321.8823 546.5,-341.8823 645.5,-341.8823 645.5,-321.8823 546.5,-321.8823"/>
<text text-anchor="start" x="559.0757" y="-327.6823" font-family="Times,serif" font-size="14.00" fill="#000000">enhancement</text>
<polygon fill="none" stroke="#ffc0cb" points="543.5,-318.8823 543.5,-344.8823 648.5,-344.8823 648.5,-318.8823 543.5,-318.8823"/>
<polygon fill="none" stroke="#ffc0cb" points="537,-312.8823 537,-428.8823 654,-428.8823 654,-312.8823 537,-312.8823"/>
</a>
</g>
</g>
<!-- moul/depviz#8&#45;&gt;moul/depviz#7 -->
<g id="edge4" class="edge">
<title>moul/depviz#8&#45;&gt;moul/depviz#7</title>
<path fill="none" stroke="#ffa500" stroke-dasharray="5,2" d="M696.5249,-385.2913C684.958,-383.6415 673.2637,-381.9736 662.137,-380.3866"/>
</g>
<!-- moul/depviz#25 -->
<g id="node8" class="node">
<title>moul/depviz#25</title>
<g id="a_node8"><a xlink:href="https://api.github.com/repos/moul/depviz/issues/25" xlink:title="&lt;table&gt;&lt;tr&gt;&lt;td&gt;&amp;#34;moul/depviz#25&amp;#34;:&lt;br/&gt;add clickable links&lt;br/&gt;in generated graph&lt;/td&gt;&lt;/tr&gt;&lt;/table&gt;">
<path fill="#cccccc" fill-opacity="0.200000" stroke="#cccccc" stroke-opacity="0.200000" d="M540.5,-238.8823C540.5,-238.8823 650.5,-238.8823 650.5,-238.8823 656.5,-238.8823 662.5,-244.8823 662.5,-250.8823 662.5,-250.8823 662.5,-288.8823 662.5,-288.8823 662.5,-294.8823 656.5,-300.8823 650.5,-300.8823 650.5,-300.8823 540.5,-300.8823 540.5,-300.8823 534.5,-300.8823 528.5,-294.8823 528.5,-288.8823 528.5,-288.8823 528.5,-250.8823 528.5,-250.8823 528.5,-244.8823 534.5,-238.8823 540.5,-238.8823"/>
<polygon fill="none" stroke="#cccccc" stroke-opacity="0.200000" points="539.5,-245.8823 539.5,-293.8823 651.5,-293.8823 651.5,-245.8823 539.5,-245.8823"/>
<text text-anchor="start" x="542.3472" y="-279.6823" font-family="Times,serif" font-size="14.00" fill="#000000">&quot;moul/depviz#25&quot;:</text>
<text text-anchor="start" x="543.0171" y="-265.6823" font-family="Times,serif" font-size="14.00" fill="#000000">add clickable links</text>
<text text-anchor="start" x="543.4136" y="-251.6823" font-family="Times,serif" font-size="14.00" fill="#000000">in generated graph</text>
<polygon fill="none" stroke="#cccccc" stroke-opacity="0.200000" points="536.5,-242.8823 536.5,-296.8823 654.5,-296.8823 654.5,-242.8823 536.5,-242.8823"/>
</a>
</g>
</g>
<!-- moul/depviz#8&#45;&gt;moul/depviz#25 -->
<g id="edge5" class="edge">
<title>moul/depviz#8&#45;&gt;moul/depviz#25</title>
<path fill="none" stroke="#ffa500" stroke-dasharray="5,2" d="M727.597,-345.2772C710.716,-331.1706 691.7288,-316.5987 673,-304.8823 669.7458,-302.8465 666.3533,-300.8632 662.884,-298.9428"/>
</g>
<!-- moul/depviz#6 -->
<g id="node9" class="node">
<title>moul/depviz#6</title>
<g id="a_node9"><a xlink:href="https://api.github.com/repos/moul/depviz/issues/6" xlink:title="&lt;table&gt;&lt;tr&gt;&lt;td&gt;&amp;#34;moul/depviz#6&amp;#34;: Web&lt;br/&gt;version&lt;/td&gt;&lt;/tr&gt;&lt;tr&gt;&lt;td&gt;&lt;table&gt;&lt;tr&gt;&lt;td bgcolor=&quot;#a2eeef&quot;&gt;enhancement&lt;/td&gt;&lt;/tr&gt;&lt;/table&gt;&lt;/td&gt;&lt;/tr&gt;&lt;/table&gt;">
<path fill="#ffc0cb" stroke="#ffc0cb" d="M530,-456.8823C530,-456.8823 661,-456.8823 661,-456.8823 667,-456.8823 673,-462.8823 673,-468.8823 673,-468.8823 673,-526.8823 673,-526.8823 673,-532.8823 667,-538.8823 661,-538.8823 661,-538.8823 530,-538.8823 530,-538.8823 524,-538.8823 518,-532.8823 518,-526.8823 518,-526.8823 518,-468.8823 518,-468.8823 518,-462.8823 524,-456.8823 530,-456.8823"/>
<polygon fill="none" stroke="#ffc0cb" points="529.5,-497.8823 529.5,-531.8823 662.5,-531.8823 662.5,-497.8823 529.5,-497.8823"/>
<text text-anchor="start" x="532.0635" y="-517.6823" font-family="Times,serif" font-size="14.00" fill="#000000">&quot;moul/depviz#6&quot;: Web</text>
<text text-anchor="start" x="575.3931" y="-503.6823" font-family="Times,serif" font-size="14.00" fill="#000000">version</text>
<polygon fill="none" stroke="#ffc0cb" points="529.5,-463.8823 529.5,-495.8823 662.5,-495.8823 662.5,-463.8823 529.5,-463.8823"/>
<polygon fill="#a2eeef" stroke="transparent" points="535.5,-469.8823 535.5,-489.8823 656.5,-489.8823 656.5,-469.8823 535.5,-469.8823"/>
<polygon fill="none" stroke="#ffc0cb" points="535.5,-469.8823 535.5,-489.8823 656.5,-489.8823 656.5,-469.8823 535.5,-469.8823"/>
<text text-anchor="start" x="559.0757" y="-475.6823" font-family="Times,serif" font-size="14.00" fill="#000000">enhancement</text>
<polygon fill="none" stroke="#ffc0cb" points="532.5,-466.8823 532.5,-492.8823 659.5,-492.8823 659.5,-466.8823 532.5,-466.8823"/>
<polygon fill="none" stroke="#ffc0cb" points="526,-460.8823 526,-534.8823 665,-534.8823 665,-460.8823 526,-460.8823"/>
</a>
</g>
</g>
<!-- moul/depviz#8&#45;&gt;moul/depviz#6 -->
<g id="edge7" class="edge">
<title>moul/depviz#8&#45;&gt;moul/depviz#6</title>
<path fill="none" stroke="#ffa500" stroke-dasharray="5,2" d="M711.0712,-436.8312C698.6135,-443.4121 685.6468,-450.2618 673.094,-456.8928"/>
</g>
<!-- moul/depviz#9 -->
<g id="node11" class="node">
<title>moul/depviz#9</title>
<g id="a_node11"><a xlink:href="https://api.github.com/repos/moul/depviz/issues/9" xlink:title="&lt;TABLE&gt;">
<ellipse fill="#ffa500" stroke="#ffa500" stroke-width="2" cx="784.8026" cy="-145.8823" rx="89.6056" ry="67.7647"/>
<polygon fill="none" stroke="#ffa500" points="732.8026,-138.8823 732.8026,-186.8823 837.8026,-186.8823 837.8026,-138.8823 732.8026,-138.8823"/>
<text text-anchor="start" x="735.6497" y="-172.6823" font-family="Times,serif" font-size="14.00" fill="#000000">&quot;moul/depviz#9&quot;:</text>
<text text-anchor="start" x="738.8421" y="-158.6823" font-family="Times,serif" font-size="14.00" fill="#000000">depviz is easy to</text>
<text text-anchor="start" x="772.0887" y="-144.6823" font-family="Times,serif" font-size="14.00" fill="#000000">hack</text>
<polygon fill="none" stroke="#ffa500" points="732.8026,-104.8823 732.8026,-136.8823 837.8026,-136.8823 837.8026,-104.8823 732.8026,-104.8823"/>
<polygon fill="#cc00d9" stroke="transparent" points="738.8026,-110.8823 738.8026,-130.8823 831.8026,-130.8823 831.8026,-110.8823 738.8026,-110.8823"/>
<polygon fill="none" stroke="#ffa500" points="738.8026,-110.8823 738.8026,-130.8823 831.8026,-130.8823 831.8026,-110.8823 738.8026,-110.8823"/>
<text text-anchor="start" x="773.6439" y="-116.6823" font-family="Times,serif" font-size="14.00" fill="#000000">epic</text>
<polygon fill="none" stroke="#ffa500" points="735.8026,-107.8823 735.8026,-133.8823 834.8026,-133.8823 834.8026,-107.8823 735.8026,-107.8823"/>
<polygon fill="none" stroke="#ffa500" points="729.3026,-101.8823 729.3026,-189.8823 840.3026,-189.8823 840.3026,-101.8823 729.3026,-101.8823"/>
</a>
</g>
</g>
<!-- moul/depviz#18 -->
<g id="node12" class="node">
<title>moul/depviz#18</title>
<g id="a_node12"><a xlink:href="https://api.github.com/repos/moul/depviz/issues/18" xlink:title="&lt;table&gt;&lt;tr&gt;&lt;td&gt;&amp;#34;moul/depviz#18&amp;#34;:&lt;br/&gt;Add badges in README&lt;/td&gt;&lt;/tr&gt;&lt;tr&gt;&lt;td&gt;&lt;table&gt;&lt;tr&gt;&lt;td bgcolor=&quot;#a2eeef&quot;&gt;enhancement&lt;/td&gt;&lt;/tr&gt;&lt;/table&gt;&lt;/td&gt;&lt;/tr&gt;&lt;/table&gt;">
<path fill="#add8e6" stroke="#add8e6" d="M337,-73.8823C337,-73.8823 484,-73.8823 484,-73.8823 490,-73.8823 496,-79.8823 496,-85.8823 496,-85.8823 496,-143.8823 496,-143.8823 496,-149.8823 490,-155.8823 484,-155.8823 484,-155.8823 337,-155.8823 337,-155.8823 331,-155.8823 325,-149.8823 325,-143.8823 325,-143.8823 325,-85.8823 325,-85.8823 325,-79.8823 331,-73.8823 337,-73.8823"/>
<polygon fill="none" stroke="#add8e6" points="336.5,-114.8823 336.5,-148.8823 485.5,-148.8823 485.5,-114.8823 336.5,-114.8823"/>
<text text-anchor="start" x="357.8472" y="-134.6823" font-family="Times,serif" font-size="14.00" fill="#000000">&quot;moul/depviz#18&quot;:</text>
<text text-anchor="start" x="339.2568" y="-120.6823" font-family="Times,serif" font-size="14.00" fill="#000000">Add badges in README</text>
<polygon fill="none" stroke="#add8e6" points="336.5,-80.8823 336.5,-112.8823 485.5,-112.8823 485.5,-80.8823 336.5,-80.8823"/>
<polygon fill="#a2eeef" stroke="transparent" points="342.5,-86.8823 342.5,-106.8823 479.5,-106.8823 479.5,-86.8823 342.5,-86.8823"/>
<polygon fill="none" stroke="#add8e6" points="342.5,-86.8823 342.5,-106.8823 479.5,-106.8823 479.5,-86.8823 342.5,-86.8823"/>
<text text-anchor="start" x="374.0757" y="-92.6823" font-family="Times,serif" font-size="14.00" fill="#000000">enhancement</text>
<polygon fill="none" stroke="#add8e6" points="339.5,-83.8823 339.5,-109.8823 482.5,-109.8823 482.5,-83.8823 339.5,-83.8823"/>
<polygon fill="none" stroke="#add8e6" points="333,-77.8823 333,-151.8823 488,-151.8823 488,-77.8823 333,-77.8823"/>
</a>
</g>
</g>
<!-- moul/depviz#9&#45;&gt;moul/depviz#18 -->
<g id="edge10" class="edge">
<title>moul/depviz#9&#45;&gt;moul/depviz#18</title>
<path fill="none" stroke="#ffa500" stroke-dasharray="5,2" d="M694.9566,-147.2218C643.0665,-146.9895 576.6568,-144.9774 518,-137.8823 510.8947,-137.0228 503.5643,-135.9216 496.2273,-134.6679"/>
</g>
<!-- moul/depviz#2 -->
<g id="node13" class="node">
<title>moul/depviz#2</title>
<g id="a_node13"><a xlink:href="https://api.github.com/repos/moul/depviz/issues/2" xlink:title="&lt;table&gt;&lt;tr&gt;&lt;td&gt;&amp;#34;moul/depviz#2&amp;#34;:&lt;br/&gt;Setup CI&lt;/td&gt;&lt;/tr&gt;&lt;tr&gt;&lt;td&gt;&lt;table&gt;&lt;tr&gt;&lt;td bgcolor=&quot;#a2eeef&quot;&gt;enhancement&lt;/td&gt;&lt;/tr&gt;&lt;/table&gt;&lt;/td&gt;&lt;/tr&gt;&lt;/table&gt;">
<path fill="#add8e6" stroke="#add8e6" d="M188,-126.8823C188,-126.8823 291,-126.8823 291,-126.8823 297,-126.8823 303,-132.8823 303,-138.8823 303,-138.8823 303,-196.8823 303,-196.8823 303,-202.8823 297,-208.8823 291,-208.8823 291,-208.8823 188,-208.8823 188,-208.8823 182,-208.8823 176,-202.8823 176,-196.8823 176,-196.8823 176,-138.8823 176,-138.8823 176,-132.8823 182,-126.8823 188,-126.8823"/>
<polygon fill="none" stroke="#add8e6" points="187.5,-167.8823 187.5,-201.8823 292.5,-201.8823 292.5,-167.8823 187.5,-167.8823"/>
<text text-anchor="start" x="190.3472" y="-187.6823" font-family="Times,serif" font-size="14.00" fill="#000000">&quot;moul/depviz#2&quot;:</text>
<text text-anchor="start" x="215.3052" y="-173.6823" font-family="Times,serif" font-size="14.00" fill="#000000">Setup CI</text>
<polygon fill="none" stroke="#add8e6" points="187.5,-133.8823 187.5,-165.8823 292.5,-165.8823 292.5,-133.8823 187.5,-133.8823"/>
<polygon fill="#a2eeef" stroke="transparent" points="193.5,-139.8823 193.5,-159.8823 286.5,-159.8823 286.5,-139.8823 193.5,-139.8823"/>
<polygon fill="none" stroke="#add8e6" points="193.5,-139.8823 193.5,-159.8823 286.5,-159.8823 286.5,-139.8823 193.5,-139.8823"/>
<text text-anchor="start" x="203.0757" y="-145.6823" font-family="Times,serif" font-size="14.00" fill="#000000">enhancement</text>
<polygon fill="none" stroke="#add8e6" points="190.5,-136.8823 190.5,-162.8823 289.5,-162.8823 289.5,-136.8823 190.5,-136.8823"/>
<polygon fill="none" stroke="#add8e6" points="184,-130.8823 184,-204.8823 295,-204.8823 295,-130.8823 184,-130.8823"/>
</a>
</g>
</g>
<!-- moul/depviz#9&#45;&gt;moul/depviz#2 -->
<g id="edge11" class="edge">
<title>moul/depviz#9&#45;&gt;moul/depviz#2</title>
<path fill="none" stroke="#ffa500" stroke-dasharray="5,2" d="M695.0585,-150.6322C638.0563,-153.5502 562.7107,-157.2252 496,-159.8823 430.2252,-162.502 354.9338,-164.7626 303.0204,-166.206"/>
</g>
<!-- moul/depviz#22 -->
<g id="node14" class="node">
<title>moul/depviz#22</title>
<g id="a_node14"><a xlink:href="https://api.github.com/repos/moul/depviz/issues/22" xlink:title="&lt;table&gt;&lt;tr&gt;&lt;td&gt;&amp;#34;moul/depviz#22&amp;#34;:&lt;br/&gt;Add a license&lt;/td&gt;&lt;/tr&gt;&lt;/table&gt;">
<path fill="#cccccc" fill-opacity="0.200000" stroke="#cccccc" stroke-opacity="0.200000" d="M540.5,-85.8823C540.5,-85.8823 650.5,-85.8823 650.5,-85.8823 656.5,-85.8823 662.5,-91.8823 662.5,-97.8823 662.5,-97.8823 662.5,-121.8823 662.5,-121.8823 662.5,-127.8823 656.5,-133.8823 650.5,-133.8823 650.5,-133.8823 540.5,-133.8823 540.5,-133.8823 534.5,-133.8823 528.5,-127.8823 528.5,-121.8823 528.5,-121.8823 528.5,-97.8823 528.5,-97.8823 528.5,-91.8823 534.5,-85.8823 540.5,-85.8823"/>
<polygon fill="none" stroke="#cccccc" stroke-opacity="0.200000" points="539.5,-92.8823 539.5,-126.8823 651.5,-126.8823 651.5,-92.8823 539.5,-92.8823"/>
<text text-anchor="start" x="542.3472" y="-112.6823" font-family="Times,serif" font-size="14.00" fill="#000000">&quot;moul/depviz#22&quot;:</text>
<text text-anchor="start" x="557.4033" y="-98.6823" font-family="Times,serif" font-size="14.00" fill="#000000">Add a license</text>
<polygon fill="none" stroke="#cccccc" stroke-opacity="0.200000" points="536.5,-89.8823 536.5,-129.8823 654.5,-129.8823 654.5,-89.8823 536.5,-89.8823"/>
</a>
</g>
</g>
<!-- moul/depviz#9&#45;&gt;moul/depviz#22 -->
<g id="edge12" class="edge">
<title>moul/depviz#9&#45;&gt;moul/depviz#22</title>
<path fill="none" stroke="#ffa500" stroke-dasharray="5,2" d="M697.6314,-129.3048C685.89,-127.0719 673.9941,-124.8096 662.6724,-122.6566"/>
</g>
<!-- moul/depviz#18&#45;&gt;moul/depviz#2 -->
<g id="edge14" class="edge">
<title>moul/depviz#18&#45;&gt;moul/depviz#2</title>
<path fill="none" stroke="#add8e6" d="M324.7495,-141.4599C317.5829,-143.6811 310.4186,-145.9016 303.4581,-148.059"/>
</g>
<!-- moul/depviz#2&#45;&gt;moul/depviz#5 -->
<g id="edge13" class="edge">
<title>moul/depviz#2&#45;&gt;moul/depviz#5</title>
<path fill="none" stroke="#ffc0cb" stroke-dasharray="1,5" d="M175.7421,-191.0313C168.6288,-193.614 161.3277,-196.2648 154.0711,-198.8995"/>
</g>
<!-- moul/depviz#10 -->
<g id="node15" class="node">
<title>moul/depviz#10</title>
<g id="a_node15"><a xlink:href="https://api.github.com/repos/moul/depviz/issues/10" xlink:title="&lt;TABLE&gt;">
<ellipse fill="#ffa500" stroke="#ffa500" stroke-width="2" cx="1230.4392" cy="-67.8823" rx="94.5053" ry="67.7647"/>
<polygon fill="none" stroke="#ffa500" points="1174.4392,-60.8823 1174.4392,-108.8823 1286.4392,-108.8823 1286.4392,-60.8823 1174.4392,-60.8823"/>
<text text-anchor="start" x="1177.2864" y="-94.6823" font-family="Times,serif" font-size="14.00" fill="#000000">&quot;moul/depviz#10&quot;:</text>
<text text-anchor="start" x="1183.9788" y="-80.6823" font-family="Times,serif" font-size="14.00" fill="#000000">depviz is easy to</text>
<text text-anchor="start" x="1206.7253" y="-66.6823" font-family="Times,serif" font-size="14.00" fill="#000000">discover</text>
<polygon fill="none" stroke="#ffa500" points="1174.4392,-26.8823 1174.4392,-58.8823 1286.4392,-58.8823 1286.4392,-26.8823 1174.4392,-26.8823"/>
<polygon fill="#cc00d9" stroke="transparent" points="1180.4392,-32.8823 1180.4392,-52.8823 1280.4392,-52.8823 1280.4392,-32.8823 1180.4392,-32.8823"/>
<polygon fill="none" stroke="#ffa500" points="1180.4392,-32.8823 1180.4392,-52.8823 1280.4392,-52.8823 1280.4392,-32.8823 1180.4392,-32.8823"/>
<text text-anchor="start" x="1218.7805" y="-38.6823" font-family="Times,serif" font-size="14.00" fill="#000000">epic</text>
<polygon fill="none" stroke="#ffa500" points="1177.4392,-29.8823 1177.4392,-55.8823 1283.4392,-55.8823 1283.4392,-29.8823 1177.4392,-29.8823"/>
<polygon fill="none" stroke="#ffa500" points="1171.4392,-23.8823 1171.4392,-111.8823 1289.4392,-111.8823 1289.4392,-23.8823 1171.4392,-23.8823"/>
</a>
</g>
</g>
<!-- moul/depviz#10&#45;&gt;moul/depviz#18 -->
<g id="edge15" class="edge">
<title>moul/depviz#10&#45;&gt;moul/depviz#18</title>
<path fill="none" stroke="#ffa500" stroke-dasharray="5,2" d="M1135.9612,-60.881C998.7327,-52.7065 736.7573,-44.6269 518,-81.8823 510.8791,-83.095 503.571,-84.6465 496.2785,-86.4135"/>
</g>
<!-- moul/depviz#3 -->
<g id="node16" class="node">
<title>moul/depviz#3</title>
<g id="a_node16"><a xlink:href="https://api.github.com/repos/moul/depviz/issues/3" xlink:title="&lt;table&gt;&lt;tr&gt;&lt;td&gt;&amp;#34;moul/depviz#3&amp;#34;: Add&lt;br/&gt;examples&lt;/td&gt;&lt;/tr&gt;&lt;/table&gt;">
<path fill="#cccccc" fill-opacity="0.200000" stroke="#cccccc" stroke-opacity="0.200000" d="M935.5498,-76.8823C935.5498,-76.8823 1065.5498,-76.8823 1065.5498,-76.8823 1071.5498,-76.8823 1077.5498,-82.8823 1077.5498,-88.8823 1077.5498,-88.8823 1077.5498,-112.8823 1077.5498,-112.8823 1077.5498,-118.8823 1071.5498,-124.8823 1065.5498,-124.8823 1065.5498,-124.8823 935.5498,-124.8823 935.5498,-124.8823 929.5498,-124.8823 923.5498,-118.8823 923.5498,-112.8823 923.5498,-112.8823 923.5498,-88.8823 923.5498,-88.8823 923.5498,-82.8823 929.5498,-76.8823 935.5498,-76.8823"/>
<polygon fill="none" stroke="#cccccc" stroke-opacity="0.200000" points="934.5498,-83.8823 934.5498,-117.8823 1066.5498,-117.8823 1066.5498,-83.8823 934.5498,-83.8823"/>
<text text-anchor="start" x="937.4746" y="-103.6823" font-family="Times,serif" font-size="14.00" fill="#000000">&quot;moul/depviz#3&quot;: Add</text>
<text text-anchor="start" x="974.1152" y="-89.6823" font-family="Times,serif" font-size="14.00" fill="#000000">examples</text>
<polygon fill="none" stroke="#cccccc" stroke-opacity="0.200000" points="931.5498,-80.8823 931.5498,-120.8823 1069.5498,-120.8823 1069.5498,-80.8823 931.5498,-80.8823"/>
</a>
</g>
</g>
<!-- moul/depviz#10&#45;&gt;moul/depviz#3 -->
<g id="edge16" class="edge">
<title>moul/depviz#10&#45;&gt;moul/depviz#3</title>
<path fill="none" stroke="#ffa500" stroke-dasharray="5,2" d="M1137.2658,-81.257C1117.4763,-84.0978 1096.7931,-87.0668 1077.6798,-89.8105"/>
</g>
<!-- placeholder_1 -->
<g id="node17" class="node">
<title>placeholder_1</title>
<text text-anchor="middle" x="1230.4392" y="-590.6823" font-family="Times,serif" font-size="14.00" fill="#000000">weight=1</text>
</g>
<!-- placeholder_2 -->
<g id="node18" class="node">
<title>placeholder_2</title>
<text text-anchor="middle" x="1000.5498" y="-590.6823" font-family="Times,serif" font-size="14.00" fill="#000000">weight=2</text>
</g>
<!-- placeholder_1&#45;&gt;placeholder_2 -->
<!-- placeholder_3 -->
<g id="node19" class="node">
<title>placeholder_3</title>
<text text-anchor="middle" x="784.8026" y="-590.6823" font-family="Times,serif" font-size="14.00" fill="#000000">weight=3</text>
</g>
<!-- placeholder_2&#45;&gt;placeholder_3 -->
<!-- placeholder_4 -->
<g id="node20" class="node">
<title>placeholder_4</title>
<text text-anchor="middle" x="595.5" y="-590.6823" font-family="Times,serif" font-size="14.00" fill="#000000">weight=4</text>
</g>
<!-- placeholder_3&#45;&gt;placeholder_4 -->
<!-- placeholder_5 -->
<g id="node21" class="node">
<title>placeholder_5</title>
<text text-anchor="middle" x="410.5" y="-590.6823" font-family="Times,serif" font-size="14.00" fill="#000000">weight=5</text>
</g>
<!-- placeholder_4&#45;&gt;placeholder_5 -->
<!-- placeholder_9 -->
<g id="node22" class="node">
<title>placeholder_9</title>
<text text-anchor="middle" x="239.5" y="-590.6823" font-family="Times,serif" font-size="14.00" fill="#000000">weight=9</text>
</g>
<!-- placeholder_5&#45;&gt;placeholder_9 -->
<!-- placeholder_14 -->
<g id="node23" class="node">
<title>placeholder_14</title>
<text text-anchor="middle" x="77" y="-590.6823" font-family="Times,serif" font-size="14.00" fill="#000000">weight=14</text>
</g>
<!-- placeholder_9&#45;&gt;placeholder_14 -->
</g>
</svg>
