<?xml version="1.0" encoding="UTF-8" standalone="no"?>
<!DOCTYPE svg PUBLIC "-//W3C//DTD SVG 1.1//EN"
 "http://www.w3.org/Graphics/SVG/1.1/DTD/svg11.dtd">
<!-- Generated by graphviz version 2.40.1 (20161225.0304)
 -->
<!-- Title: G Pages: 1 -->
<svg width="1371pt" height="617pt"
 viewBox="14.40 14.40 1356.78 602.90" xmlns="http://www.w3.org/2000/svg" xmlns:xlink="http://www.w3.org/1999/xlink">
<g id="graph0" class="graph" transform="scale(1 1) rotate(0) translate(18.4 598.9)">
<title>G</title>
<polygon fill="#ffffff" stroke="transparent" points="-4,4 -4,-584.5 1338.3839,-584.5 1338.3839,4 -4,4"/>
<!-- moul/depviz#8 -->
<g id="node1" class="node">
<title>moul/depviz#8</title>
<g id="a_node1"><a xlink:href="https://github.com/moul/depviz/issues/8" xlink:title="&lt;TABLE&gt;">
<ellipse fill="#ffa500" stroke="#ffa500" stroke-width="2" cx="784.8026" cy="-171.5" rx="89.6056" ry="67.7647"/>
<polygon fill="none" stroke="#ffa500" points="732.8026,-164.5 732.8026,-212.5 837.8026,-212.5 837.8026,-164.5 732.8026,-164.5"/>
<text text-anchor="start" x="735.6497" y="-198.3" font-family="Times,serif" font-size="14.00" fill="#000000">&quot;moul/depviz#8&quot;:</text>
<text text-anchor="start" x="738.8421" y="-184.3" font-family="Times,serif" font-size="14.00" fill="#000000">depviz is easy to</text>
<text text-anchor="start" x="775.9715" y="-170.3" font-family="Times,serif" font-size="14.00" fill="#000000">use</text>
<polygon fill="none" stroke="#ffa500" points="732.8026,-130.5 732.8026,-162.5 837.8026,-162.5 837.8026,-130.5 732.8026,-130.5"/>
<polygon fill="#cc00d9" stroke="transparent" points="738.8026,-136.5 738.8026,-156.5 831.8026,-156.5 831.8026,-136.5 738.8026,-136.5"/>
<polygon fill="none" stroke="#ffa500" points="738.8026,-136.5 738.8026,-156.5 831.8026,-156.5 831.8026,-136.5 738.8026,-136.5"/>
<text text-anchor="start" x="773.6439" y="-142.3" font-family="Times,serif" font-size="14.00" fill="#000000">epic</text>
<polygon fill="none" stroke="#ffa500" points="735.8026,-133.5 735.8026,-159.5 834.8026,-159.5 834.8026,-133.5 735.8026,-133.5"/>
<polygon fill="none" stroke="#ffa500" points="729.3026,-127.5 729.3026,-215.5 840.3026,-215.5 840.3026,-127.5 729.3026,-127.5"/>
</a>
</g>
</g>
<!-- moul/depviz#5 -->
<g id="node2" class="node">
<title>moul/depviz#5</title>
<g id="a_node2"><a xlink:href="https://github.com/moul/depviz/issues/5" xlink:title="&lt;table&gt;&lt;tr&gt;&lt;td&gt;&amp;#34;moul/depviz#5&amp;#34;: Add&lt;br/&gt;Docker image&lt;/td&gt;&lt;/tr&gt;&lt;tr&gt;&lt;td&gt;&lt;table&gt;&lt;tr&gt;&lt;td bgcolor=&quot;#a2eeef&quot;&gt;enhancement&lt;/td&gt;&lt;/tr&gt;&lt;/table&gt;&lt;/td&gt;&lt;/tr&gt;&lt;/table&gt;">
<path fill="#cccccc" fill-opacity="0.200000" stroke="#cccccc" stroke-opacity="0.200000" d="M12,-288.5C12,-288.5 142,-288.5 142,-288.5 148,-288.5 154,-294.5 154,-300.5 154,-300.5 154,-358.5 154,-358.5 154,-364.5 148,-370.5 142,-370.5 142,-370.5 12,-370.5 12,-370.5 6,-370.5 0,-364.5 0,-358.5 0,-358.5 0,-300.5 0,-300.5 0,-294.5 6,-288.5 12,-288.5"/>
<polygon fill="none" stroke="#cccccc" stroke-opacity="0.200000" points="11,-329.5 11,-363.5 143,-363.5 143,-329.5 11,-329.5"/>
<text text-anchor="start" x="13.9248" y="-349.3" font-family="Times,serif" font-size="14.00" fill="#000000">&quot;moul/depviz#5&quot;: Add</text>
<text text-anchor="start" x="37.5464" y="-335.3" font-family="Times,serif" font-size="14.00" fill="#000000">Docker image</text>
<polygon fill="none" stroke="#cccccc" stroke-opacity="0.200000" points="11,-295.5 11,-327.5 143,-327.5 143,-295.5 11,-295.5"/>
<polygon fill="#a2eeef" stroke="transparent" points="17,-301.5 17,-321.5 137,-321.5 137,-301.5 17,-301.5"/>
<polygon fill="none" stroke="#cccccc" stroke-opacity="0.200000" points="17,-301.5 17,-321.5 137,-321.5 137,-301.5 17,-301.5"/>
<text text-anchor="start" x="40.0757" y="-307.3" font-family="Times,serif" font-size="14.00" fill="#000000">enhancement</text>
<polygon fill="none" stroke="#cccccc" stroke-opacity="0.200000" points="14,-298.5 14,-324.5 140,-324.5 140,-298.5 14,-298.5"/>
<polygon fill="none" stroke="#cccccc" stroke-opacity="0.200000" points="8,-292.5 8,-366.5 146,-366.5 146,-292.5 8,-292.5"/>
</a>
</g>
</g>
<!-- moul/depviz#8&#45;&gt;moul/depviz#5 -->
<g id="edge1" class="edge">
<title>moul/depviz#8&#45;&gt;moul/depviz#5</title>
<path fill="none" stroke="#ffa500" stroke-dasharray="5,2" d="M749.7197,-234.1178C730.8154,-261.47 704.8042,-290.8353 673,-306.5 623.4282,-330.9158 231.2066,-322.1063 176,-324.5 168.8648,-324.8094 161.4413,-325.1498 154.0105,-325.5032"/>
</g>
<!-- moul/depviz#7 -->
<g id="node3" class="node">
<title>moul/depviz#7</title>
<g id="a_node3"><a xlink:href="https://github.com/moul/depviz/issues/7" xlink:title="&lt;table&gt;&lt;tr&gt;&lt;td&gt;&amp;#34;moul/depviz#7&amp;#34;:&lt;br/&gt;Refactor CLI to be&lt;br/&gt;easier to run&lt;br/&gt;projects without&lt;br/&gt;configuration files&lt;/td&gt;&lt;/tr&gt;&lt;tr&gt;&lt;td&gt;&lt;table&gt;&lt;tr&gt;&lt;td bgcolor=&quot;#a2eeef&quot;&gt;enhancement&lt;/td&gt;&lt;/tr&gt;&lt;/table&gt;&lt;/td&gt;&lt;/tr&gt;&lt;/table&gt;">
<path fill="#ffc0cb" stroke="#ffc0cb" d="M541,-178.5C541,-178.5 650,-178.5 650,-178.5 656,-178.5 662,-184.5 662,-190.5 662,-190.5 662,-290.5 662,-290.5 662,-296.5 656,-302.5 650,-302.5 650,-302.5 541,-302.5 541,-302.5 535,-302.5 529,-296.5 529,-290.5 529,-290.5 529,-190.5 529,-190.5 529,-184.5 535,-178.5 541,-178.5"/>
<polygon fill="none" stroke="#ffc0cb" points="540.5,-219.5 540.5,-295.5 651.5,-295.5 651.5,-219.5 540.5,-219.5"/>
<text text-anchor="start" x="546.3472" y="-281.3" font-family="Times,serif" font-size="14.00" fill="#000000">&quot;moul/depviz#7&quot;:</text>
<text text-anchor="start" x="543.3257" y="-267.3" font-family="Times,serif" font-size="14.00" fill="#000000">Refactor CLI to be</text>
<text text-anchor="start" x="561.4033" y="-253.3" font-family="Times,serif" font-size="14.00" fill="#000000">easier to run</text>
<text text-anchor="start" x="550.7017" y="-239.3" font-family="Times,serif" font-size="14.00" fill="#000000">projects without</text>
<text text-anchor="start" x="545.2534" y="-225.3" font-family="Times,serif" font-size="14.00" fill="#000000">configuration files</text>
<polygon fill="none" stroke="#ffc0cb" points="540.5,-185.5 540.5,-217.5 651.5,-217.5 651.5,-185.5 540.5,-185.5"/>
<polygon fill="#a2eeef" stroke="transparent" points="546.5,-191.5 546.5,-211.5 645.5,-211.5 645.5,-191.5 546.5,-191.5"/>
<polygon fill="none" stroke="#ffc0cb" points="546.5,-191.5 546.5,-211.5 645.5,-211.5 645.5,-191.5 546.5,-191.5"/>
<text text-anchor="start" x="559.0757" y="-197.3" font-family="Times,serif" font-size="14.00" fill="#000000">enhancement</text>
<polygon fill="none" stroke="#ffc0cb" points="543.5,-188.5 543.5,-214.5 648.5,-214.5 648.5,-188.5 543.5,-188.5"/>
<polygon fill="none" stroke="#ffc0cb" points="537,-182.5 537,-298.5 654,-298.5 654,-182.5 537,-182.5"/>
</a>
</g>
</g>
<!-- moul/depviz#8&#45;&gt;moul/depviz#7 -->
<g id="edge2" class="edge">
<title>moul/depviz#8&#45;&gt;moul/depviz#7</title>
<path fill="none" stroke="#ffa500" stroke-dasharray="5,2" d="M703.6974,-201.0625C689.8489,-206.1102 675.6054,-211.3019 662.1859,-216.1933"/>
</g>
<!-- moul/depviz#25 -->
<g id="node4" class="node">
<title>moul/depviz#25</title>
<g id="a_node4"><a xlink:href="https://github.com/moul/depviz/issues/25" xlink:title="&lt;table&gt;&lt;tr&gt;&lt;td&gt;&amp;#34;moul/depviz#25&amp;#34;:&lt;br/&gt;add clickable links&lt;br/&gt;in generated graph&lt;/td&gt;&lt;/tr&gt;&lt;/table&gt;">
<path fill="#cccccc" fill-opacity="0.200000" stroke="#cccccc" stroke-opacity="0.200000" d="M540.5,-108.5C540.5,-108.5 650.5,-108.5 650.5,-108.5 656.5,-108.5 662.5,-114.5 662.5,-120.5 662.5,-120.5 662.5,-158.5 662.5,-158.5 662.5,-164.5 656.5,-170.5 650.5,-170.5 650.5,-170.5 540.5,-170.5 540.5,-170.5 534.5,-170.5 528.5,-164.5 528.5,-158.5 528.5,-158.5 528.5,-120.5 528.5,-120.5 528.5,-114.5 534.5,-108.5 540.5,-108.5"/>
<polygon fill="none" stroke="#cccccc" stroke-opacity="0.200000" points="539.5,-115.5 539.5,-163.5 651.5,-163.5 651.5,-115.5 539.5,-115.5"/>
<text text-anchor="start" x="542.3472" y="-149.3" font-family="Times,serif" font-size="14.00" fill="#000000">&quot;moul/depviz#25&quot;:</text>
<text text-anchor="start" x="543.0171" y="-135.3" font-family="Times,serif" font-size="14.00" fill="#000000">add clickable links</text>
<text text-anchor="start" x="543.4136" y="-121.3" font-family="Times,serif" font-size="14.00" fill="#000000">in generated graph</text>
<polygon fill="none" stroke="#cccccc" stroke-opacity="0.200000" points="536.5,-112.5 536.5,-166.5 654.5,-166.5 654.5,-112.5 536.5,-112.5"/>
</a>
</g>
</g>
<!-- moul/depviz#8&#45;&gt;moul/depviz#25 -->
<g id="edge3" class="edge">
<title>moul/depviz#8&#45;&gt;moul/depviz#25</title>
<path fill="none" stroke="#ffa500" stroke-dasharray="5,2" d="M697.0782,-156.6709C685.4724,-154.7091 673.727,-152.7236 662.5449,-150.8334"/>
</g>
<!-- moul/depviz#6 -->
<g id="node5" class="node">
<title>moul/depviz#6</title>
<g id="a_node5"><a xlink:href="https://github.com/moul/depviz/issues/6" xlink:title="&lt;table&gt;&lt;tr&gt;&lt;td&gt;&amp;#34;moul/depviz#6&amp;#34;: Web&lt;br/&gt;version&lt;/td&gt;&lt;/tr&gt;&lt;tr&gt;&lt;td&gt;&lt;table&gt;&lt;tr&gt;&lt;td bgcolor=&quot;#a2eeef&quot;&gt;enhancement&lt;/td&gt;&lt;/tr&gt;&lt;/table&gt;&lt;/td&gt;&lt;/tr&gt;&lt;/table&gt;">
<path fill="#ffc0cb" stroke="#ffc0cb" d="M530,-18.5C530,-18.5 661,-18.5 661,-18.5 667,-18.5 673,-24.5 673,-30.5 673,-30.5 673,-88.5 673,-88.5 673,-94.5 667,-100.5 661,-100.5 661,-100.5 530,-100.5 530,-100.5 524,-100.5 518,-94.5 518,-88.5 518,-88.5 518,-30.5 518,-30.5 518,-24.5 524,-18.5 530,-18.5"/>
<polygon fill="none" stroke="#ffc0cb" points="529.5,-59.5 529.5,-93.5 662.5,-93.5 662.5,-59.5 529.5,-59.5"/>
<text text-anchor="start" x="532.0635" y="-79.3" font-family="Times,serif" font-size="14.00" fill="#000000">&quot;moul/depviz#6&quot;: Web</text>
<text text-anchor="start" x="575.3931" y="-65.3" font-family="Times,serif" font-size="14.00" fill="#000000">version</text>
<polygon fill="none" stroke="#ffc0cb" points="529.5,-25.5 529.5,-57.5 662.5,-57.5 662.5,-25.5 529.5,-25.5"/>
<polygon fill="#a2eeef" stroke="transparent" points="535.5,-31.5 535.5,-51.5 656.5,-51.5 656.5,-31.5 535.5,-31.5"/>
<polygon fill="none" stroke="#ffc0cb" points="535.5,-31.5 535.5,-51.5 656.5,-51.5 656.5,-31.5 535.5,-31.5"/>
<text text-anchor="start" x="559.0757" y="-37.3" font-family="Times,serif" font-size="14.00" fill="#000000">enhancement</text>
<polygon fill="none" stroke="#ffc0cb" points="532.5,-28.5 532.5,-54.5 659.5,-54.5 659.5,-28.5 532.5,-28.5"/>
<polygon fill="none" stroke="#ffc0cb" points="526,-22.5 526,-96.5 665,-96.5 665,-22.5 526,-22.5"/>
</a>
</g>
</g>
<!-- moul/depviz#8&#45;&gt;moul/depviz#6 -->
<g id="edge4" class="edge">
<title>moul/depviz#8&#45;&gt;moul/depviz#6</title>
<path fill="none" stroke="#ffa500" stroke-dasharray="5,2" d="M714.5152,-129.1776C700.769,-120.9575 686.4481,-112.4333 673,-104.5 670.8559,-103.2352 668.6771,-101.9526 666.4763,-100.6596"/>
</g>
<!-- moul/depviz#13 -->
<g id="node6" class="node">
<title>moul/depviz#13</title>
<g id="a_node6"><a xlink:href="https://github.com/moul/depviz/issues/13" xlink:title="&lt;TABLE&gt;">
<ellipse fill="#ffa500" stroke="#ffa500" stroke-width="2" cx="1230.4392" cy="-101.5" rx="100.3184" ry="67.7647"/>
<polygon fill="none" stroke="#ffa500" points="1170.4392,-94.5 1170.4392,-142.5 1290.4392,-142.5 1290.4392,-94.5 1170.4392,-94.5"/>
<text text-anchor="start" x="1173.2053" y="-128.3" font-family="Times,serif" font-size="14.00" fill="#000000">&quot;moul/depviz#13&quot;: I</text>
<text text-anchor="start" x="1182.0408" y="-114.3" font-family="Times,serif" font-size="14.00" fill="#000000">can use depviz to</text>
<text text-anchor="start" x="1175.0374" y="-100.3" font-family="Times,serif" font-size="14.00" fill="#000000">plan all my projects</text>
<polygon fill="none" stroke="#ffa500" points="1170.4392,-60.5 1170.4392,-92.5 1290.4392,-92.5 1290.4392,-60.5 1170.4392,-60.5"/>
<polygon fill="#cc00d9" stroke="transparent" points="1176.4392,-66.5 1176.4392,-86.5 1284.4392,-86.5 1284.4392,-66.5 1176.4392,-66.5"/>
<polygon fill="none" stroke="#ffa500" points="1176.4392,-66.5 1176.4392,-86.5 1284.4392,-86.5 1284.4392,-66.5 1176.4392,-66.5"/>
<text text-anchor="start" x="1218.7805" y="-72.3" font-family="Times,serif" font-size="14.00" fill="#000000">epic</text>
<polygon fill="none" stroke="#ffa500" points="1173.4392,-63.5 1173.4392,-89.5 1287.4392,-89.5 1287.4392,-63.5 1173.4392,-63.5"/>
<polygon fill="none" stroke="#ffa500" points="1167.4392,-57.5 1167.4392,-145.5 1293.4392,-145.5 1293.4392,-57.5 1167.4392,-57.5"/>
</a>
</g>
</g>
<!-- moul/depviz#12 -->
<g id="node7" class="node">
<title>moul/depviz#12</title>
<g id="a_node7"><a xlink:href="https://github.com/moul/depviz/issues/12" xlink:title="&lt;TABLE&gt;">
<ellipse fill="#ffa500" stroke="#ffa500" stroke-width="2" cx="1000.5498" cy="-101.5" rx="103.8894" ry="67.7647"/>
<polygon fill="none" stroke="#ffa500" points="938.5498,-94.5 938.5498,-142.5 1063.5498,-142.5 1063.5498,-94.5 938.5498,-94.5"/>
<text text-anchor="start" x="943.8159" y="-128.3" font-family="Times,serif" font-size="14.00" fill="#000000">&quot;moul/depviz#12&quot;: I</text>
<text text-anchor="start" x="952.6514" y="-114.3" font-family="Times,serif" font-size="14.00" fill="#000000">can use depviz to</text>
<text text-anchor="start" x="941.1807" y="-100.3" font-family="Times,serif" font-size="14.00" fill="#000000">manage my company</text>
<polygon fill="none" stroke="#ffa500" points="938.5498,-60.5 938.5498,-92.5 1063.5498,-92.5 1063.5498,-60.5 938.5498,-60.5"/>
<polygon fill="#cc00d9" stroke="transparent" points="944.5498,-66.5 944.5498,-86.5 1057.5498,-86.5 1057.5498,-66.5 944.5498,-66.5"/>
<polygon fill="none" stroke="#ffa500" points="944.5498,-66.5 944.5498,-86.5 1057.5498,-86.5 1057.5498,-66.5 944.5498,-66.5"/>
<text text-anchor="start" x="989.3911" y="-72.3" font-family="Times,serif" font-size="14.00" fill="#000000">epic</text>
<polygon fill="none" stroke="#ffa500" points="941.5498,-63.5 941.5498,-89.5 1060.5498,-89.5 1060.5498,-63.5 941.5498,-63.5"/>
<polygon fill="none" stroke="#ffa500" points="935.0498,-57.5 935.0498,-145.5 1066.0498,-145.5 1066.0498,-57.5 935.0498,-57.5"/>
</a>
</g>
</g>
<!-- moul/depviz#13&#45;&gt;moul/depviz#12 -->
<g id="edge5" class="edge">
<title>moul/depviz#13&#45;&gt;moul/depviz#12</title>
<path fill="none" stroke="#ffa500" stroke-dasharray="5,2" d="M1129.9408,-101.5C1121.6042,-101.5 1113.1647,-101.5 1104.8013,-101.5"/>
</g>
<!-- moul/depviz#12&#45;&gt;moul/depviz#8 -->
<g id="edge7" class="edge">
<title>moul/depviz#12&#45;&gt;moul/depviz#8</title>
<path fill="none" stroke="#ffa500" stroke-dasharray="5,2" d="M907.1747,-131.7959C893.9643,-136.0821 880.4584,-140.4641 867.469,-144.6786"/>
</g>
<!-- moul/depviz#21 -->
<g id="node8" class="node">
<title>moul/depviz#21</title>
<g id="a_node8"><a xlink:href="https://github.com/moul/depviz/issues/21" xlink:title="&lt;table&gt;&lt;tr&gt;&lt;td&gt;&amp;#34;moul/depviz#21&amp;#34;:&lt;br/&gt;Show epic&amp;#39;s&lt;br/&gt;completion rate&lt;/td&gt;&lt;/tr&gt;&lt;tr&gt;&lt;td&gt;&lt;table&gt;&lt;tr&gt;&lt;td bgcolor=&quot;#a2eeef&quot;&gt;enhancement&lt;/td&gt;&lt;/tr&gt;&lt;/table&gt;&lt;/td&gt;&lt;/tr&gt;&lt;/table&gt;">
<path fill="#ffc0cb" stroke="#ffc0cb" d="M729.8026,-.5C729.8026,-.5 839.8026,-.5 839.8026,-.5 845.8026,-.5 851.8026,-6.5 851.8026,-12.5 851.8026,-12.5 851.8026,-84.5 851.8026,-84.5 851.8026,-90.5 845.8026,-96.5 839.8026,-96.5 839.8026,-96.5 729.8026,-96.5 729.8026,-96.5 723.8026,-96.5 717.8026,-90.5 717.8026,-84.5 717.8026,-84.5 717.8026,-12.5 717.8026,-12.5 717.8026,-6.5 723.8026,-.5 729.8026,-.5"/>
<polygon fill="none" stroke="#ffc0cb" points="728.8026,-41.5 728.8026,-89.5 840.8026,-89.5 840.8026,-41.5 728.8026,-41.5"/>
<text text-anchor="start" x="731.6497" y="-75.3" font-family="Times,serif" font-size="14.00" fill="#000000">&quot;moul/depviz#21&quot;:</text>
<text text-anchor="start" x="751.4603" y="-61.3" font-family="Times,serif" font-size="14.00" fill="#000000">Show epic&#39;s</text>
<text text-anchor="start" x="741.0697" y="-47.3" font-family="Times,serif" font-size="14.00" fill="#000000">completion rate</text>
<polygon fill="none" stroke="#ffc0cb" points="728.8026,-7.5 728.8026,-39.5 840.8026,-39.5 840.8026,-7.5 728.8026,-7.5"/>
<polygon fill="#a2eeef" stroke="transparent" points="734.8026,-13.5 734.8026,-33.5 834.8026,-33.5 834.8026,-13.5 734.8026,-13.5"/>
<polygon fill="none" stroke="#ffc0cb" points="734.8026,-13.5 734.8026,-33.5 834.8026,-33.5 834.8026,-13.5 734.8026,-13.5"/>
<text text-anchor="start" x="747.8782" y="-19.3" font-family="Times,serif" font-size="14.00" fill="#000000">enhancement</text>
<polygon fill="none" stroke="#ffc0cb" points="731.8026,-10.5 731.8026,-36.5 837.8026,-36.5 837.8026,-10.5 731.8026,-10.5"/>
<polygon fill="none" stroke="#ffc0cb" points="725.8026,-4.5 725.8026,-92.5 843.8026,-92.5 843.8026,-4.5 725.8026,-4.5"/>
</a>
</g>
</g>
<!-- moul/depviz#12&#45;&gt;moul/depviz#21 -->
<g id="edge6" class="edge">
<title>moul/depviz#12&#45;&gt;moul/depviz#21</title>
<path fill="none" stroke="#ffa500" stroke-dasharray="5,2" d="M903.0909,-77.5585C885.7822,-73.3064 868.1124,-68.9657 851.8866,-64.9797"/>
</g>
<!-- moul/depviz#2 -->
<g id="node9" class="node">
<title>moul/depviz#2</title>
<g id="a_node9"><a xlink:href="https://github.com/moul/depviz/issues/2" xlink:title="&lt;table&gt;&lt;tr&gt;&lt;td&gt;&amp;#34;moul/depviz#2&amp;#34;:&lt;br/&gt;Setup CI&lt;/td&gt;&lt;/tr&gt;&lt;tr&gt;&lt;td&gt;&lt;table&gt;&lt;tr&gt;&lt;td bgcolor=&quot;#a2eeef&quot;&gt;enhancement&lt;/td&gt;&lt;/tr&gt;&lt;/table&gt;&lt;/td&gt;&lt;/tr&gt;&lt;/table&gt;">
<path fill="#cccccc" fill-opacity="0.200000" stroke="#cccccc" stroke-opacity="0.200000" d="M188,-367.5C188,-367.5 291,-367.5 291,-367.5 297,-367.5 303,-373.5 303,-379.5 303,-379.5 303,-437.5 303,-437.5 303,-443.5 297,-449.5 291,-449.5 291,-449.5 188,-449.5 188,-449.5 182,-449.5 176,-443.5 176,-437.5 176,-437.5 176,-379.5 176,-379.5 176,-373.5 182,-367.5 188,-367.5"/>
<polygon fill="none" stroke="#cccccc" stroke-opacity="0.200000" points="187.5,-408.5 187.5,-442.5 292.5,-442.5 292.5,-408.5 187.5,-408.5"/>
<text text-anchor="start" x="190.3472" y="-428.3" font-family="Times,serif" font-size="14.00" fill="#000000">&quot;moul/depviz#2&quot;:</text>
<text text-anchor="start" x="215.3052" y="-414.3" font-family="Times,serif" font-size="14.00" fill="#000000">Setup CI</text>
<polygon fill="none" stroke="#cccccc" stroke-opacity="0.200000" points="187.5,-374.5 187.5,-406.5 292.5,-406.5 292.5,-374.5 187.5,-374.5"/>
<polygon fill="#a2eeef" stroke="transparent" points="193.5,-380.5 193.5,-400.5 286.5,-400.5 286.5,-380.5 193.5,-380.5"/>
<polygon fill="none" stroke="#cccccc" stroke-opacity="0.200000" points="193.5,-380.5 193.5,-400.5 286.5,-400.5 286.5,-380.5 193.5,-380.5"/>
<text text-anchor="start" x="203.0757" y="-386.3" font-family="Times,serif" font-size="14.00" fill="#000000">enhancement</text>
<polygon fill="none" stroke="#cccccc" stroke-opacity="0.200000" points="190.5,-377.5 190.5,-403.5 289.5,-403.5 289.5,-377.5 190.5,-377.5"/>
<polygon fill="none" stroke="#cccccc" stroke-opacity="0.200000" points="184,-371.5 184,-445.5 295,-445.5 295,-371.5 184,-371.5"/>
</a>
</g>
</g>
<!-- moul/depviz#2&#45;&gt;moul/depviz#5 -->
<g id="edge8" class="edge">
<title>moul/depviz#2&#45;&gt;moul/depviz#5</title>
<path fill="none" stroke="#ffc0cb" stroke-dasharray="1,5" d="M175.7421,-377.5038C168.6288,-374.0457 161.3277,-370.4962 154.0711,-366.9684"/>
</g>
<!-- moul/depviz#18 -->
<g id="node10" class="node">
<title>moul/depviz#18</title>
<g id="a_node10"><a xlink:href="https://github.com/moul/depviz/issues/18" xlink:title="&lt;table&gt;&lt;tr&gt;&lt;td&gt;&amp;#34;moul/depviz#18&amp;#34;:&lt;br/&gt;Add badges in README&lt;/td&gt;&lt;/tr&gt;&lt;tr&gt;&lt;td&gt;&lt;table&gt;&lt;tr&gt;&lt;td bgcolor=&quot;#a2eeef&quot;&gt;enhancement&lt;/td&gt;&lt;/tr&gt;&lt;/table&gt;&lt;/td&gt;&lt;/tr&gt;&lt;/table&gt;">
<path fill="#cccccc" fill-opacity="0.200000" stroke="#cccccc" stroke-opacity="0.200000" d="M337,-420.5C337,-420.5 484,-420.5 484,-420.5 490,-420.5 496,-426.5 496,-432.5 496,-432.5 496,-490.5 496,-490.5 496,-496.5 490,-502.5 484,-502.5 484,-502.5 337,-502.5 337,-502.5 331,-502.5 325,-496.5 325,-490.5 325,-490.5 325,-432.5 325,-432.5 325,-426.5 331,-420.5 337,-420.5"/>
<polygon fill="none" stroke="#cccccc" stroke-opacity="0.200000" points="336.5,-461.5 336.5,-495.5 485.5,-495.5 485.5,-461.5 336.5,-461.5"/>
<text text-anchor="start" x="357.8472" y="-481.3" font-family="Times,serif" font-size="14.00" fill="#000000">&quot;moul/depviz#18&quot;:</text>
<text text-anchor="start" x="339.2568" y="-467.3" font-family="Times,serif" font-size="14.00" fill="#000000">Add badges in README</text>
<polygon fill="none" stroke="#cccccc" stroke-opacity="0.200000" points="336.5,-427.5 336.5,-459.5 485.5,-459.5 485.5,-427.5 336.5,-427.5"/>
<polygon fill="#a2eeef" stroke="transparent" points="342.5,-433.5 342.5,-453.5 479.5,-453.5 479.5,-433.5 342.5,-433.5"/>
<polygon fill="none" stroke="#cccccc" stroke-opacity="0.200000" points="342.5,-433.5 342.5,-453.5 479.5,-453.5 479.5,-433.5 342.5,-433.5"/>
<text text-anchor="start" x="374.0757" y="-439.3" font-family="Times,serif" font-size="14.00" fill="#000000">enhancement</text>
<polygon fill="none" stroke="#cccccc" stroke-opacity="0.200000" points="339.5,-430.5 339.5,-456.5 482.5,-456.5 482.5,-430.5 339.5,-430.5"/>
<polygon fill="none" stroke="#cccccc" stroke-opacity="0.200000" points="333,-424.5 333,-498.5 488,-498.5 488,-424.5 333,-424.5"/>
</a>
</g>
</g>
<!-- moul/depviz#18&#45;&gt;moul/depviz#2 -->
<g id="edge9" class="edge">
<title>moul/depviz#18&#45;&gt;moul/depviz#2</title>
<path fill="none" stroke="#c0c0c0" stroke-dasharray="1,5" d="M324.7495,-434.9224C317.5829,-432.7011 310.4186,-430.4806 303.4581,-428.3233"/>
</g>
<!-- moul/depviz#11 -->
<g id="node11" class="node">
<title>moul/depviz#11</title>
<g id="a_node11"><a xlink:href="https://github.com/moul/depviz/issues/11" xlink:title="&lt;TABLE&gt;">
<ellipse fill="#ffa500" stroke="#ffa500" stroke-width="2" cx="1230.4392" cy="-287.5" rx="103.8894" ry="77.5641"/>
<polygon fill="none" stroke="#ffa500" points="1168.4392,-273.5 1168.4392,-335.5 1293.4392,-335.5 1293.4392,-273.5 1168.4392,-273.5"/>
<text text-anchor="start" x="1178.0427" y="-321.3" font-family="Times,serif" font-size="14.00" fill="#000000">&quot;moul/depviz#11&quot;:</text>
<text text-anchor="start" x="1176.5081" y="-307.3" font-family="Times,serif" font-size="14.00" fill="#000000">depviz is pluggable</text>
<text text-anchor="start" x="1171.053" y="-293.3" font-family="Times,serif" font-size="14.00" fill="#000000">with other workflows</text>
<text text-anchor="start" x="1205.0754" y="-279.3" font-family="Times,serif" font-size="14.00" fill="#000000">/ systems</text>
<polygon fill="none" stroke="#ffa500" points="1168.4392,-239.5 1168.4392,-271.5 1293.4392,-271.5 1293.4392,-239.5 1168.4392,-239.5"/>
<polygon fill="#cc00d9" stroke="transparent" points="1174.4392,-245.5 1174.4392,-265.5 1287.4392,-265.5 1287.4392,-245.5 1174.4392,-245.5"/>
<polygon fill="none" stroke="#ffa500" points="1174.4392,-245.5 1174.4392,-265.5 1287.4392,-265.5 1287.4392,-245.5 1174.4392,-245.5"/>
<text text-anchor="start" x="1219.2805" y="-251.3" font-family="Times,serif" font-size="14.00" fill="#000000">epic</text>
<polygon fill="none" stroke="#ffa500" points="1171.4392,-242.5 1171.4392,-268.5 1290.4392,-268.5 1290.4392,-242.5 1171.4392,-242.5"/>
<polygon fill="none" stroke="#ffa500" points="1164.9392,-236.5 1164.9392,-338.5 1295.9392,-338.5 1295.9392,-236.5 1164.9392,-236.5"/>
</a>
</g>
</g>
<!-- moul/depviz#11&#45;&gt;moul/depviz#5 -->
<g id="edge10" class="edge">
<title>moul/depviz#11&#45;&gt;moul/depviz#5</title>
<path fill="none" stroke="#ffa500" stroke-dasharray="5,2" d="M1133.631,-316.1108C1123.8537,-318.2535 1114.0199,-320.1154 1104.4945,-321.5 963.8429,-341.9448 926.9324,-329.5 784.8026,-329.5 784.8026,-329.5 784.8026,-329.5 410.5,-329.5 322.6378,-329.5 221.755,-329.5 154.1612,-329.5"/>
</g>
<!-- moul/depviz#4 -->
<g id="node12" class="node">
<title>moul/depviz#4</title>
<g id="a_node12"><a xlink:href="https://github.com/moul/depviz/issues/4" xlink:title="&lt;table&gt;&lt;tr&gt;&lt;td&gt;&amp;#34;moul/depviz#4&amp;#34;:&lt;br/&gt;Export to OPML&lt;/td&gt;&lt;/tr&gt;&lt;tr&gt;&lt;td&gt;&lt;table&gt;&lt;tr&gt;&lt;td bgcolor=&quot;#a2eeef&quot;&gt;enhancement&lt;/td&gt;&lt;/tr&gt;&lt;/table&gt;&lt;/td&gt;&lt;/tr&gt;&lt;/table&gt;">
<path fill="#ffc0cb" stroke="#ffc0cb" d="M949.0498,-235.5C949.0498,-235.5 1052.0498,-235.5 1052.0498,-235.5 1058.0498,-235.5 1064.0498,-241.5 1064.0498,-247.5 1064.0498,-247.5 1064.0498,-305.5 1064.0498,-305.5 1064.0498,-311.5 1058.0498,-317.5 1052.0498,-317.5 1052.0498,-317.5 949.0498,-317.5 949.0498,-317.5 943.0498,-317.5 937.0498,-311.5 937.0498,-305.5 937.0498,-305.5 937.0498,-247.5 937.0498,-247.5 937.0498,-241.5 943.0498,-235.5 949.0498,-235.5"/>
<polygon fill="none" stroke="#ffc0cb" points="948.5498,-276.5 948.5498,-310.5 1053.5498,-310.5 1053.5498,-276.5 948.5498,-276.5"/>
<text text-anchor="start" x="951.397" y="-296.3" font-family="Times,serif" font-size="14.00" fill="#000000">&quot;moul/depviz#4&quot;:</text>
<text text-anchor="start" x="953.605" y="-282.3" font-family="Times,serif" font-size="14.00" fill="#000000">Export to OPML</text>
<polygon fill="none" stroke="#ffc0cb" points="948.5498,-242.5 948.5498,-274.5 1053.5498,-274.5 1053.5498,-242.5 948.5498,-242.5"/>
<polygon fill="#a2eeef" stroke="transparent" points="954.5498,-248.5 954.5498,-268.5 1047.5498,-268.5 1047.5498,-248.5 954.5498,-248.5"/>
<polygon fill="none" stroke="#ffc0cb" points="954.5498,-248.5 954.5498,-268.5 1047.5498,-268.5 1047.5498,-248.5 954.5498,-248.5"/>
<text text-anchor="start" x="964.1255" y="-254.3" font-family="Times,serif" font-size="14.00" fill="#000000">enhancement</text>
<polygon fill="none" stroke="#ffc0cb" points="951.5498,-245.5 951.5498,-271.5 1050.5498,-271.5 1050.5498,-245.5 951.5498,-245.5"/>
<polygon fill="none" stroke="#ffc0cb" points="945.0498,-239.5 945.0498,-313.5 1056.0498,-313.5 1056.0498,-239.5 945.0498,-239.5"/>
</a>
</g>
</g>
<!-- moul/depviz#11&#45;&gt;moul/depviz#4 -->
<g id="edge11" class="edge">
<title>moul/depviz#11&#45;&gt;moul/depviz#4</title>
<path fill="none" stroke="#ffa500" stroke-dasharray="5,2" d="M1126.5919,-282.531C1105.2929,-281.5119 1083.4808,-280.4682 1064.1177,-279.5417"/>
</g>
<!-- moul/depviz#10 -->
<g id="node13" class="node">
<title>moul/depviz#10</title>
<g id="a_node13"><a xlink:href="https://github.com/moul/depviz/issues/10" xlink:title="&lt;TABLE&gt;">
<ellipse fill="#ffa500" stroke="#ffa500" stroke-width="2" cx="1230.4392" cy="-469.5" rx="94.5053" ry="67.7647"/>
<polygon fill="none" stroke="#ffa500" points="1174.4392,-462.5 1174.4392,-510.5 1286.4392,-510.5 1286.4392,-462.5 1174.4392,-462.5"/>
<text text-anchor="start" x="1177.2864" y="-496.3" font-family="Times,serif" font-size="14.00" fill="#000000">&quot;moul/depviz#10&quot;:</text>
<text text-anchor="start" x="1183.9788" y="-482.3" font-family="Times,serif" font-size="14.00" fill="#000000">depviz is easy to</text>
<text text-anchor="start" x="1206.7253" y="-468.3" font-family="Times,serif" font-size="14.00" fill="#000000">discover</text>
<polygon fill="none" stroke="#ffa500" points="1174.4392,-428.5 1174.4392,-460.5 1286.4392,-460.5 1286.4392,-428.5 1174.4392,-428.5"/>
<polygon fill="#cc00d9" stroke="transparent" points="1180.4392,-434.5 1180.4392,-454.5 1280.4392,-454.5 1280.4392,-434.5 1180.4392,-434.5"/>
<polygon fill="none" stroke="#ffa500" points="1180.4392,-434.5 1180.4392,-454.5 1280.4392,-454.5 1280.4392,-434.5 1180.4392,-434.5"/>
<text text-anchor="start" x="1218.7805" y="-440.3" font-family="Times,serif" font-size="14.00" fill="#000000">epic</text>
<polygon fill="none" stroke="#ffa500" points="1177.4392,-431.5 1177.4392,-457.5 1283.4392,-457.5 1283.4392,-431.5 1177.4392,-431.5"/>
<polygon fill="none" stroke="#ffa500" points="1171.4392,-425.5 1171.4392,-513.5 1289.4392,-513.5 1289.4392,-425.5 1171.4392,-425.5"/>
</a>
</g>
</g>
<!-- moul/depviz#10&#45;&gt;moul/depviz#18 -->
<g id="edge12" class="edge">
<title>moul/depviz#10&#45;&gt;moul/depviz#18</title>
<path fill="none" stroke="#ffa500" stroke-dasharray="5,2" d="M1136.2687,-477.7961C1125.5593,-478.4962 1114.7955,-479.0917 1104.4945,-479.5 922.6398,-486.7083 876.9067,-485.2488 695,-479.5 628.0967,-477.3857 552.4758,-472.4812 496.0229,-468.325"/>
</g>
<!-- moul/depviz#3 -->
<g id="node14" class="node">
<title>moul/depviz#3</title>
<g id="a_node14"><a xlink:href="https://github.com/moul/depviz/issues/3" xlink:title="&lt;table&gt;&lt;tr&gt;&lt;td&gt;&amp;#34;moul/depviz#3&amp;#34;: Add&lt;br/&gt;examples&lt;/td&gt;&lt;/tr&gt;&lt;/table&gt;">
<path fill="#cccccc" fill-opacity="0.200000" stroke="#cccccc" stroke-opacity="0.200000" d="M935.5498,-427.5C935.5498,-427.5 1065.5498,-427.5 1065.5498,-427.5 1071.5498,-427.5 1077.5498,-433.5 1077.5498,-439.5 1077.5498,-439.5 1077.5498,-463.5 1077.5498,-463.5 1077.5498,-469.5 1071.5498,-475.5 1065.5498,-475.5 1065.5498,-475.5 935.5498,-475.5 935.5498,-475.5 929.5498,-475.5 923.5498,-469.5 923.5498,-463.5 923.5498,-463.5 923.5498,-439.5 923.5498,-439.5 923.5498,-433.5 929.5498,-427.5 935.5498,-427.5"/>
<polygon fill="none" stroke="#cccccc" stroke-opacity="0.200000" points="934.5498,-434.5 934.5498,-468.5 1066.5498,-468.5 1066.5498,-434.5 934.5498,-434.5"/>
<text text-anchor="start" x="937.4746" y="-454.3" font-family="Times,serif" font-size="14.00" fill="#000000">&quot;moul/depviz#3&quot;: Add</text>
<text text-anchor="start" x="974.1152" y="-440.3" font-family="Times,serif" font-size="14.00" fill="#000000">examples</text>
<polygon fill="none" stroke="#cccccc" stroke-opacity="0.200000" points="931.5498,-431.5 931.5498,-471.5 1069.5498,-471.5 1069.5498,-431.5 931.5498,-431.5"/>
</a>
</g>
</g>
<!-- moul/depviz#10&#45;&gt;moul/depviz#3 -->
<g id="edge13" class="edge">
<title>moul/depviz#10&#45;&gt;moul/depviz#3</title>
<path fill="none" stroke="#ffa500" stroke-dasharray="5,2" d="M1135.9392,-462.1008C1116.62,-460.5881 1096.5046,-459.0131 1077.8717,-457.5542"/>
</g>
<!-- moul/depviz#9 -->
<g id="node15" class="node">
<title>moul/depviz#9</title>
<g id="a_node15"><a xlink:href="https://github.com/moul/depviz/issues/9" xlink:title="&lt;TABLE&gt;">
<ellipse fill="#ffa500" stroke="#ffa500" stroke-width="2" cx="784.8026" cy="-408.5" rx="89.6056" ry="67.7647"/>
<polygon fill="none" stroke="#ffa500" points="732.8026,-401.5 732.8026,-449.5 837.8026,-449.5 837.8026,-401.5 732.8026,-401.5"/>
<text text-anchor="start" x="735.6497" y="-435.3" font-family="Times,serif" font-size="14.00" fill="#000000">&quot;moul/depviz#9&quot;:</text>
<text text-anchor="start" x="738.8421" y="-421.3" font-family="Times,serif" font-size="14.00" fill="#000000">depviz is easy to</text>
<text text-anchor="start" x="772.0887" y="-407.3" font-family="Times,serif" font-size="14.00" fill="#000000">hack</text>
<polygon fill="none" stroke="#ffa500" points="732.8026,-367.5 732.8026,-399.5 837.8026,-399.5 837.8026,-367.5 732.8026,-367.5"/>
<polygon fill="#cc00d9" stroke="transparent" points="738.8026,-373.5 738.8026,-393.5 831.8026,-393.5 831.8026,-373.5 738.8026,-373.5"/>
<polygon fill="none" stroke="#ffa500" points="738.8026,-373.5 738.8026,-393.5 831.8026,-393.5 831.8026,-373.5 738.8026,-373.5"/>
<text text-anchor="start" x="773.6439" y="-379.3" font-family="Times,serif" font-size="14.00" fill="#000000">epic</text>
<polygon fill="none" stroke="#ffa500" points="735.8026,-370.5 735.8026,-396.5 834.8026,-396.5 834.8026,-370.5 735.8026,-370.5"/>
<polygon fill="none" stroke="#ffa500" points="729.3026,-364.5 729.3026,-452.5 840.3026,-452.5 840.3026,-364.5 729.3026,-364.5"/>
</a>
</g>
</g>
<!-- moul/depviz#9&#45;&gt;moul/depviz#2 -->
<g id="edge15" class="edge">
<title>moul/depviz#9&#45;&gt;moul/depviz#2</title>
<path fill="none" stroke="#ffa500" stroke-dasharray="5,2" d="M694.7569,-408.5C584.3436,-408.5 399.988,-408.5 303.2291,-408.5"/>
</g>
<!-- moul/depviz#9&#45;&gt;moul/depviz#18 -->
<g id="edge16" class="edge">
<title>moul/depviz#9&#45;&gt;moul/depviz#18</title>
<path fill="none" stroke="#ffa500" stroke-dasharray="5,2" d="M696.0981,-421.0603C635.6746,-429.616 556.1116,-440.8819 496.312,-449.3493"/>
</g>
<!-- moul/depviz#22 -->
<g id="node16" class="node">
<title>moul/depviz#22</title>
<g id="a_node16"><a xlink:href="https://github.com/moul/depviz/issues/22" xlink:title="&lt;table&gt;&lt;tr&gt;&lt;td&gt;&amp;#34;moul/depviz#22&amp;#34;:&lt;br/&gt;Add a license&lt;/td&gt;&lt;/tr&gt;&lt;/table&gt;">
<path fill="#cccccc" fill-opacity="0.200000" stroke="#cccccc" stroke-opacity="0.200000" d="M540.5,-348.5C540.5,-348.5 650.5,-348.5 650.5,-348.5 656.5,-348.5 662.5,-354.5 662.5,-360.5 662.5,-360.5 662.5,-384.5 662.5,-384.5 662.5,-390.5 656.5,-396.5 650.5,-396.5 650.5,-396.5 540.5,-396.5 540.5,-396.5 534.5,-396.5 528.5,-390.5 528.5,-384.5 528.5,-384.5 528.5,-360.5 528.5,-360.5 528.5,-354.5 534.5,-348.5 540.5,-348.5"/>
<polygon fill="none" stroke="#cccccc" stroke-opacity="0.200000" points="539.5,-355.5 539.5,-389.5 651.5,-389.5 651.5,-355.5 539.5,-355.5"/>
<text text-anchor="start" x="542.3472" y="-375.3" font-family="Times,serif" font-size="14.00" fill="#000000">&quot;moul/depviz#22&quot;:</text>
<text text-anchor="start" x="557.4033" y="-361.3" font-family="Times,serif" font-size="14.00" fill="#000000">Add a license</text>
<polygon fill="none" stroke="#cccccc" stroke-opacity="0.200000" points="536.5,-352.5 536.5,-392.5 654.5,-392.5 654.5,-352.5 536.5,-352.5"/>
</a>
</g>
</g>
<!-- moul/depviz#9&#45;&gt;moul/depviz#22 -->
<g id="edge14" class="edge">
<title>moul/depviz#9&#45;&gt;moul/depviz#22</title>
<path fill="none" stroke="#ffa500" stroke-dasharray="5,2" d="M697.6314,-391.9225C685.89,-389.6896 673.9941,-387.4274 662.6724,-385.2743"/>
</g>
<!-- placeholder_1 -->
<g id="node17" class="node">
<title>placeholder_1</title>
<text text-anchor="middle" x="1230.4392" y="-558.3" font-family="Times,serif" font-size="14.00" fill="#000000">weight=1</text>
</g>
<!-- placeholder_2 -->
<g id="node18" class="node">
<title>placeholder_2</title>
<text text-anchor="middle" x="1000.5498" y="-558.3" font-family="Times,serif" font-size="14.00" fill="#000000">weight=2</text>
</g>
<!-- placeholder_1&#45;&gt;placeholder_2 -->
<!-- placeholder_3 -->
<g id="node19" class="node">
<title>placeholder_3</title>
<text text-anchor="middle" x="784.8026" y="-558.3" font-family="Times,serif" font-size="14.00" fill="#000000">weight=3</text>
</g>
<!-- placeholder_2&#45;&gt;placeholder_3 -->
<!-- placeholder_4 -->
<g id="node20" class="node">
<title>placeholder_4</title>
<text text-anchor="middle" x="595.5" y="-558.3" font-family="Times,serif" font-size="14.00" fill="#000000">weight=4</text>
</g>
<!-- placeholder_3&#45;&gt;placeholder_4 -->
<!-- placeholder_5 -->
<g id="node21" class="node">
<title>placeholder_5</title>
<text text-anchor="middle" x="410.5" y="-558.3" font-family="Times,serif" font-size="14.00" fill="#000000">weight=5</text>
</g>
<!-- placeholder_4&#45;&gt;placeholder_5 -->
<!-- placeholder_9 -->
<g id="node22" class="node">
<title>placeholder_9</title>
<text text-anchor="middle" x="239.5" y="-558.3" font-family="Times,serif" font-size="14.00" fill="#000000">weight=9</text>
</g>
<!-- placeholder_5&#45;&gt;placeholder_9 -->
<!-- placeholder_14 -->
<g id="node23" class="node">
<title>placeholder_14</title>
<text text-anchor="middle" x="77" y="-558.3" font-family="Times,serif" font-size="14.00" fill="#000000">weight=14</text>
</g>
<!-- placeholder_9&#45;&gt;placeholder_14 -->
</g>
</svg>
